<?xml version="1.0" encoding="UTF-8" standalone="no"?>
<svg
   xmlns:dc="http://purl.org/dc/elements/1.1/"
   xmlns:cc="http://creativecommons.org/ns#"
   xmlns:rdf="http://www.w3.org/1999/02/22-rdf-syntax-ns#"
   xmlns:svg="http://www.w3.org/2000/svg"
   xmlns="http://www.w3.org/2000/svg"
   xmlns:sodipodi="http://sodipodi.sourceforge.net/DTD/sodipodi-0.dtd"
   xmlns:inkscape="http://www.inkscape.org/namespaces/inkscape"
   width="105mm"
   height="74mm"
   viewBox="0 0 105 74"
   version="1.1"
   id="svg1845"
   inkscape:version="1.0.2 (e86c870879, 2021-01-15)"
   sodipodi:docname="up.svg"
   inkscape:export-filename="/home/koohyar/repos/docs/site/content/images/up.png"
   inkscape:export-xdpi="96"
   inkscape:export-ydpi="96">
  <defs
     id="defs1839" />
  <sodipodi:namedview
     id="base"
     pagecolor="#ffffff"
     bordercolor="#666666"
     borderopacity="1.0"
     inkscape:pageopacity="0.0"
     inkscape:pageshadow="2"
     inkscape:zoom="1"
     inkscape:cx="280.98344"
     inkscape:cy="228.5862"
     inkscape:document-units="mm"
     inkscape:current-layer="layer1"
     inkscape:document-rotation="0"
     showgrid="false"
     inkscape:window-width="1295"
     inkscape:window-height="750"
     inkscape:window-x="19"
     inkscape:window-y="13"
     inkscape:window-maximized="0" />
  <metadata
     id="metadata1842">
    <rdf:RDF>
      <cc:Work
         rdf:about="">
        <dc:format>image/svg+xml</dc:format>
        <dc:type
           rdf:resource="http://purl.org/dc/dcmitype/StillImage" />
        <dc:title />
      </cc:Work>
    </rdf:RDF>
  </metadata>
  <g
     inkscape:label="Layer 1"
     inkscape:groupmode="layer"
     id="layer1">
    <path
       style="fill:#000000;fill-opacity:0.913044;stroke-width:0.0697897"
       d="m 65.379408,53.565583 c -0.06878,0.0057 -0.1256,0.09102 -0.164521,0.249172 -0.02602,0.105918 -0.184616,0.428144 -0.352349,0.716021 -0.354876,0.609065 -0.472864,0.894613 -0.423241,1.023944 0.07012,0.182735 0.158896,0.08313 0.48907,-0.548639 0.392422,-0.75088 0.617672,-1.36189 0.523559,-1.420053 -0.02537,-0.01568 -0.04959,-0.02253 -0.07249,-0.02043 z"
       id="path1298" />
    <path
       style="fill:#000000;fill-opacity:0.913044;stroke-width:0.0697897"
       d="m 69.875922,53.443862 c -0.09621,-0.0086 -0.236432,0.0911 -0.332312,0.261305 -0.07933,0.140853 -0.264354,0.462002 -0.411099,0.713702 -0.146756,0.251689 -0.245971,0.491284 -0.220556,0.532412 0.03202,0.05177 0.07847,0.04798 0.151306,-0.01238 0.173007,-0.143583 0.93592,-1.330529 0.908351,-1.413241 -0.01732,-0.05187 -0.05195,-0.07799 -0.09569,-0.08181 z"
       id="path1296" />
    <path
       style="fill:#000000;fill-opacity:0.913044;stroke-width:0.0697897"
       d="m 51.12846,53.065197 c -0.117356,0 -0.258158,0.14171 -0.258158,0.259803 0,0.07068 0.04086,0.06565 0.174468,-0.02195 0.188872,-0.123743 0.228992,-0.237856 0.08371,-0.237856 z"
       id="path1294" />
    <path
       style="fill:#000000;fill-opacity:0.913044;stroke-width:0.0697897"
       d="m 62.943867,53.004402 c -0.03164,0 -0.06328,0.0048 -0.08722,0.01463 -0.04797,0.01939 -0.0086,0.03516 0.08722,0.03516 0.09596,0 0.135222,-0.01577 0.08721,-0.03516 -0.02395,-0.0097 -0.05559,-0.01463 -0.08721,-0.01463 z"
       id="path1292" />
    <path
       style="fill:#000000;fill-opacity:0.913044;stroke-width:0.0697897"
       d="m 64.152236,52.860468 c -0.0076,-5.03e-4 0.002,0.02992 0.02346,0.0912 0.04143,0.118243 0.01653,0.127162 -0.261437,0.0931 -0.169053,-0.02071 -0.338781,-0.04409 -0.377163,-0.05177 -0.152817,-0.03088 -0.314052,0.0066 -0.314052,0.0722 0,0.03838 0.05501,0.07154 0.122125,0.07373 0.06718,0.002 0.232052,0.04551 0.3664,0.09638 0.373401,0.141273 0.628103,0.134308 0.628103,-0.01719 0,-0.06944 -0.04731,-0.187198 -0.104948,-0.261701 -0.04921,-0.06356 -0.07467,-0.09534 -0.08247,-0.09597 z"
       id="path1290" />
    <path
       style="fill:#000000;fill-opacity:0.913044;stroke-width:0.0697897"
       d="m 57.574304,52.712022 c -0.286745,-0.002 -0.676347,0.01069 -1.051059,0.0361 -0.594955,0.04037 -1.270171,0.06802 -1.500474,0.06146 -1.6149,-0.04579 -2.942589,0.061 -3.126626,0.25149 -0.0666,0.06898 0.0876,0.07915 0.753777,0.04978 1.742038,-0.07695 3.239938,-0.173859 3.304237,-0.2136 0.03668,-0.0227 0.627268,-0.04399 1.312365,-0.04741 0.987377,-0.0046 1.315337,0.01767 1.581715,0.108915 0.241962,0.08285 0.456911,0.103275 0.767675,0.07307 0.237401,-0.02308 1.044096,-0.04228 1.792591,-0.04285 1.346024,-9.66e-4 1.356693,-0.002 0.977049,-0.108494 -0.30779,-0.08626 -0.563593,-0.09711 -1.291102,-0.05482 -1.283015,0.07467 -2.27671,0.04465 -3.140523,-0.09462 -0.07258,-0.01167 -0.207569,-0.01795 -0.379625,-0.01909 z"
       id="path1288" />
    <path
       style="fill:#000000;fill-opacity:0.913044;stroke-width:0.0697897"
       d="m 98.606272,46.75584 c -0.03836,0 -0.06983,0.03144 -0.06983,0.06983 0,0.03838 0.03146,0.06983 0.06983,0.06983 0.03836,0 0.06984,-0.03144 0.06984,-0.06983 0,-0.03838 -0.03146,-0.06983 -0.06984,-0.06983 z"
       id="path1286" />
    <path
       style="fill:#000000;fill-opacity:0.913044;stroke-width:0.0697897"
       d="m 77.276878,52.367302 c -0.189456,0 -1.073007,1.060685 -1.073007,1.288109 0,0.05919 0.04816,0.107677 0.107143,0.107677 0.150351,0 0.451179,-0.208006 0.451179,-0.312009 0,-0.04759 0.11004,-0.230732 0.244524,-0.406871 0.31813,-0.41664 0.421926,-0.676908 0.270167,-0.676908 z"
       id="path1284" />
    <path
       style="fill:#000000;fill-opacity:0.913044;stroke-width:0.0697897"
       d="m 46.861491,52.22772 c -0.01691,0 -0.05017,0.03144 -0.07391,0.06983 -0.02376,0.03838 -0.01,0.06983 0.03068,0.06983 0.04066,0 0.07401,-0.03144 0.07401,-0.06983 0,-0.03838 -0.01393,-0.06983 -0.03078,-0.06983 z"
       id="path1280" />
    <path
       style="fill:#000000;fill-opacity:0.913044;stroke-width:0.0697897"
       d="m 48.008924,52.027352 c -0.03164,0 -0.06328,0.0048 -0.08721,0.01453 -0.04797,0.01939 -0.0086,0.03516 0.08721,0.03516 0.09597,0 0.135223,-0.01577 0.08722,-0.03516 -0.02395,-0.0097 -0.05557,-0.01453 -0.08722,-0.01453 z"
       id="path1278" />
    <path
       style="fill:#000000;fill-opacity:0.913044;stroke-width:0.0697897"
       d="m 97.538585,51.809941 c -0.247352,-9.66e-4 -1.546262,0.238836 -2.456678,0.454042 -0.383837,0.09073 -0.933424,0.186487 -1.221309,0.212643 -0.287884,0.02613 -0.591154,0.07305 -0.673908,0.104413 -0.08275,0.03134 -0.396814,0.07647 -0.697897,0.10032 -0.301089,0.02384 -0.877162,0.07344 -1.280192,0.110421 -0.40303,0.03696 -1.438154,0.08608 -2.300186,0.109182 -1.558695,0.04171 -1.568609,0.04285 -1.797085,0.225172 -0.12635,0.100827 -0.229677,0.210848 -0.229677,0.244546 0,0.03374 0.133476,0.03868 0.296612,0.01098 0.163135,-0.02764 0.657764,-0.06308 1.099174,-0.07875 2.845061,-0.10115 3.575798,-0.184606 7.397678,-0.844014 0.9788,-0.168873 1.842447,-0.30837 1.919219,-0.310099 0.645078,-0.01463 0.592245,-0.335704 -0.05574,-0.338858 z"
       id="path1276" />
    <path
       style="fill:#000000;fill-opacity:0.913044;stroke-width:0.0697897"
       d="m 49.399401,51.764138 c -0.04389,0.002 -0.09444,0.0057 -0.151714,0.01167 -0.54426,0.06166 -0.680442,0.09759 -0.680442,0.179522 0,0.04331 0.07943,0.05843 0.191921,0.0363 0.105553,-0.02081 0.341101,-0.05824 0.523416,-0.08333 0.398759,-0.05472 0.423898,-0.154822 0.116822,-0.144209 z"
       id="path1274" />
    <path
       style="fill:#000000;fill-opacity:0.913044;stroke-width:0.0697897"
       d="m 49.899103,51.710574 c -0.07572,0.0066 -0.145433,0.04389 -0.145433,0.09623 0,0.02898 0.08143,0.03705 0.180871,0.01797 0.121281,-0.02318 0.152056,-0.05225 0.09348,-0.08845 -0.0359,-0.02213 -0.08351,-0.02954 -0.128948,-0.02575 z"
       id="path1272" />
    <path
       style="fill:#000000;fill-opacity:0.913044;stroke-width:0.0697897"
       d="m 50.572467,51.603161 c -0.05273,0 -0.12242,0.02213 -0.190696,0.06622 -0.08161,0.05273 -0.06232,0.06784 0.08722,0.06869 0.105553,5.05e-4 0.191919,-0.0303 0.191919,-0.06869 0,-0.04409 -0.03572,-0.06622 -0.08845,-0.06622 z"
       id="path1270" />
    <path
       style="fill:#000000;fill-opacity:0.913044;stroke-width:0.0697897"
       d="m 51.091932,51.571133 c -0.07031,9.66e-4 -0.151848,0.02954 -0.151848,0.07088 0,0.01511 0.0646,0.02736 0.143668,0.02736 0.07905,0 0.125051,-0.03012 0.102374,-0.06678 -0.01393,-0.02262 -0.05197,-0.03202 -0.09416,-0.03144 z"
       id="path1268" />
    <path
       style="fill:#000000;fill-opacity:0.913044;stroke-width:0.0697897"
       d="m 51.692501,51.460043 c -0.234284,0 -0.40347,0.06536 -0.40347,0.1558 0,0.08455 0.41604,0.01425 0.517695,-0.08741 0.04475,-0.04475 0.0057,-0.06841 -0.114219,-0.06841 z"
       id="path1266" />
    <path
       style="fill:#000000;fill-opacity:0.913044;stroke-width:0.0697897"
       d="m 52.619121,51.390253 c -0.07449,0 -0.154841,0.03145 -0.178564,0.06983 -0.02442,0.03962 0.03402,0.06983 0.135349,0.06983 0.09822,0 0.178706,-0.03144 0.178706,-0.06983 0,-0.03838 -0.06099,-0.06983 -0.135491,-0.06983 z"
       id="path1264" />
    <path
       style="fill:#000000;fill-opacity:0.913044;stroke-width:0.0697897"
       d="m 53.6725,51.325374 c -0.552774,0.01587 -0.708518,0.04865 -0.708518,0.149252 0,0.05025 0.141721,0.06022 0.428962,0.03022 0.235938,-0.02471 0.520405,-0.04485 0.632188,-0.04485 0.12546,0 0.18567,-0.02832 0.157434,-0.07401 -0.02622,-0.04246 -0.243489,-0.06831 -0.510066,-0.06062 z"
       id="path1262" />
    <path
       style="fill:#000000;fill-opacity:0.913044;stroke-width:0.0697897"
       d="m 55.514026,51.235269 c -0.317157,0.0048 -0.643389,0.03668 -0.697219,0.08968 -0.04124,0.04066 0.204919,0.06528 0.651418,0.06528 0.543194,0 0.710605,-0.02119 0.688479,-0.08722 -0.01739,-0.05187 -0.325538,-0.07297 -0.642678,-0.06773 z"
       id="path1260" />
    <path
       style="fill:#000000;fill-opacity:0.913044;stroke-width:0.0697897"
       d="m 57.210223,51.224505 c -0.08958,-5.04e-4 -0.231862,0.0096 -0.477614,0.02878 -0.161946,0.01294 -0.159439,0.01711 0.03487,0.059 0.248279,0.05349 0.711128,0.01125 0.603705,-0.0551 -0.03448,-0.02128 -0.07144,-0.03221 -0.160987,-0.03268 z"
       id="path1258" />
    <path
       style="fill:#000000;fill-opacity:0.913044;stroke-width:0.0697897"
       d="m 48.803326,50.315737 c -1.197283,-0.0057 -2.867876,0.07297 -3.005853,0.181566 -0.0569,0.04475 -0.07021,0.214693 -0.04266,0.54291 0.03753,0.447697 0.02622,0.500159 -0.178974,0.833658 -0.120451,0.195749 -0.218912,0.39661 -0.218912,0.446271 0,0.04969 -0.04617,0.151211 -0.1025,0.225724 -0.05635,0.07449 -0.103457,0.159676 -0.104681,0.189195 -0.002,0.04369 0.333754,-7.59e-4 0.400336,-0.05311 0.0344,-0.02698 0.234437,-0.764399 0.293606,-1.082288 0.03212,-0.17273 0.104216,-0.455373 0.160293,-0.628104 l 0.101965,-0.314051 0.550141,-0.0096 c 0.302585,-0.0048 0.88003,-0.04104 1.283064,-0.08019 0.403033,-0.03914 0.972927,-0.06052 1.266429,-0.04741 0.293501,0.01308 0.623257,-0.002 0.732789,-0.03287 l 0.199142,-0.05652 -0.183191,-0.04931 c -0.160322,-0.04313 -0.606764,-0.06346 -1.150986,-0.06622 z"
       id="path1252" />
    <path
       style="fill:#000000;fill-opacity:0.913044;stroke-width:0.0697897"
       d="m 50.489042,49.837305 c -0.03781,0.0086 -0.04599,0.125024 -0.0076,0.330811 0.03183,0.169557 0.08779,0.244422 0.199009,0.26594 0.33575,0.06498 0.466175,0.04455 0.534874,-0.08379 0.06546,-0.122322 0.04949,-0.129877 -0.202421,-0.0961 -0.26307,0.03524 -0.277825,0.02642 -0.390389,-0.233629 -0.05701,-0.13179 -0.104328,-0.190012 -0.133702,-0.18319 z"
       id="path1250" />
    <path
       style="fill:#000000;fill-opacity:0.913044;stroke-width:0.0697897"
       d="m 68.338652,49.578044 c -0.05862,-0.01266 -0.246969,0.197526 -0.683995,0.759781 -0.15353,0.197527 -0.396925,0.501317 -0.54087,0.675131 -0.143934,0.173813 -0.261702,0.361173 -0.261702,0.41642 0,0.100165 0.207578,0.147477 0.211141,0.04807 9.66e-4,-0.02878 0.118792,-0.182792 0.261702,-0.342268 0.722795,-0.806553 1.138684,-1.43685 1.023812,-1.551722 -0.0028,-0.0028 -0.0066,-0.0048 -0.01013,-0.0057 z"
       id="path1246" />
    <path
       style="fill:#000000;fill-opacity:0.913044;stroke-width:0.0697897"
       d="m 73.076838,49.148133 c -0.07601,0 -0.214203,0.196177 -0.321145,0.497383 -0.08854,0.249497 -0.244117,0.638155 -0.345533,0.863643 -0.101431,0.225486 -0.184295,0.468883 -0.184295,0.540868 0,0.23758 0.184964,0.136432 0.408659,-0.223406 0.203889,-0.327989 0.49861,-1.243076 0.49861,-1.54832 0,-0.08959 -0.02173,-0.130172 -0.05636,-0.130172 z"
       id="path1244" />
    <path
       style="fill:#000000;fill-opacity:0.913044;stroke-width:0.0697897"
       d="m 61.270698,48.311064 c -0.07297,-0.0114 -0.0997,0.249011 -0.09842,0.900855 0.002,0.778812 0.09254,1.391001 0.260212,1.749239 0.120452,0.257323 -0.08399,0.357498 -0.752694,0.368851 -0.890394,0.01511 -1.34951,0.04237 -1.417193,0.08427 -0.03448,0.02128 -0.25929,0.01098 -0.499692,-0.02299 -0.249657,-0.03524 -0.501897,-0.03572 -0.588172,-9.66e-4 -0.09526,0.03838 -0.112348,0.06412 -0.04637,0.06954 0.05756,0.0048 0.323826,0.02433 0.591706,0.04361 0.267887,0.01929 0.49917,0.04731 0.51402,0.06213 0.05311,0.05311 2.187709,-0.04427 2.35376,-0.107411 0.126866,-0.04827 0.169567,-0.116442 0.169567,-0.271383 0,-0.11384 -0.02613,-0.223046 -0.05804,-0.242759 -0.08171,-0.05045 -0.211331,-0.844033 -0.290881,-1.780041 -0.03714,-0.437606 -0.08379,-0.811805 -0.103597,-0.831614 -0.01238,-0.01238 -0.02375,-0.01967 -0.0342,-0.02128 z"
       id="path1242" />
    <path
       style="fill:#000000;fill-opacity:0.913044;stroke-width:0.0697897"
       d="m 50.985885,47.220607 c -0.04911,-0.002 -0.11488,0.0066 -0.208138,0.02261 -0.160238,0.02793 -0.40121,0.05862 -0.535558,0.06802 -1.41441,0.09936 -1.73969,0.240585 -0.554225,0.240585 0.38158,0 0.693807,0.02774 0.693807,0.06176 0,0.03392 -0.07429,0.110378 -0.165072,0.169842 -0.137122,0.08988 -0.172987,0.189441 -0.212366,0.589112 -0.04797,0.486716 0.03743,1.080758 0.180064,1.252672 0.202857,0.24443 0.264079,-0.03374 0.09596,-0.436048 -0.223416,-0.534722 0.141625,-1.493209 0.592941,-1.556767 0.264639,-0.03724 0.356254,-0.14009 0.269341,-0.30247 -0.03924,-0.07334 -0.07487,-0.105876 -0.15675,-0.109309 z"
       id="path1238" />
    <path
       style="fill:#000000;fill-opacity:0.913044;stroke-width:0.0697897"
       d="m 100.32021,40.963312 c -0.0599,0 -0.10877,0.03144 -0.10877,0.06983 0,0.03838 0.0295,0.06983 0.0655,0.06983 0.0361,0 0.0852,-0.03144 0.10891,-0.06983 0.0237,-0.03838 -0.006,-0.06983 -0.0656,-0.06983 z"
       id="path1234" />
    <path
       style="fill:#000000;fill-opacity:0.913044;stroke-width:0.0697897"
       d="m 84.717496,46.505126 c -0.03939,0.0028 -0.06909,0.02212 -0.06909,0.06108 0,0.03363 0.04209,0.09631 0.09376,0.139161 0.05174,0.04285 0.148364,0.198563 0.21483,0.345955 0.09121,0.202335 0.200715,0.304371 0.446957,0.41642 0.179362,0.08161 0.373295,0.178174 0.430867,0.214543 0.09366,0.05919 0.690308,0.343361 1.612783,0.768237 0.176948,0.08151 0.377104,0.148161 0.444915,0.148161 0.06782,0 0.394123,0.105567 0.725148,0.234588 0.971955,0.378836 2.35918,0.594566 4.57993,0.712202 0.422224,0.02242 0.846199,0.0686 0.942166,0.102782 0.202274,0.07192 1.263648,0.202666 2.268153,0.279432 0.383837,0.02936 0.980545,0.09006 1.325996,0.134801 0.345464,0.04475 1.570264,0.105482 2.721799,0.134814 1.15152,0.02936 2.19236,0.05843 2.31299,0.0648 0.2954,0.01549 0.35367,-0.154479 0.12977,-0.378389 -0.16687,-0.166868 -0.18041,-0.168959 -0.39011,-0.06052 -0.18601,0.09618 -0.39921,0.106185 -1.48385,0.06983 -0.69668,-0.02337 -1.643556,-0.07277 -2.104172,-0.109716 -0.460603,-0.03696 -1.305478,-0.08437 -1.877363,-0.105497 -0.571899,-0.02109 -1.090081,-0.06498 -1.151531,-0.09746 -0.190677,-0.10091 -1.112518,-0.22257 -2.20531,-0.290879 -1.232989,-0.07705 -1.849166,-0.148277 -1.977006,-0.228594 -0.05091,-0.03202 -0.285008,-0.05548 -0.52028,-0.05216 -0.532298,0.0076 -1.810621,-0.240773 -2.163074,-0.420097 -0.144943,-0.07373 -0.490393,-0.184159 -0.767674,-0.245353 -0.277308,-0.06118 -0.604062,-0.185651 -0.726252,-0.276704 -0.122183,-0.09102 -0.279205,-0.166271 -0.348941,-0.167115 -0.208001,-0.0028 -0.669038,-0.241478 -0.919406,-0.47653 -0.152559,-0.14324 -0.305394,-0.219864 -0.438498,-0.219864 -0.140444,0 -0.280668,-0.07639 -0.448585,-0.24426 -0.134352,-0.13435 -0.286939,-0.244269 -0.339137,-0.244269 -0.05216,0 -0.11298,-0.04711 -0.135077,-0.104681 -0.02656,-0.06944 -0.119051,-0.109534 -0.184703,-0.104554 z"
       id="path1228" />
    <path
       style="fill:#000000;fill-opacity:0.913044;stroke-width:0.0697897"
       d="m 26.033428,46.365411 c -0.03838,0 -0.08912,0.03144 -0.112854,0.06983 -0.02375,0.03838 -0.01182,0.06983 0.0266,0.06983 0.03838,0 0.0893,-0.03144 0.112995,-0.06983 0.02375,-0.03838 0.01168,-0.06983 -0.0267,-0.06983 z"
       id="path1226" />
    <path
       style="fill:#000000;fill-opacity:0.913044;stroke-width:0.0697897"
       d="m 77.058791,46.228421 c -0.110903,0.0057 -0.569036,0.464438 -0.738926,0.740154 -0.09797,0.159011 -0.274065,0.35745 -0.391336,0.44095 -0.200335,0.142662 -0.283117,0.398161 -0.166702,0.514562 0.02559,0.02556 0.06485,0.04617 0.0872,0.04589 0.100278,-9.65e-4 0.596418,-0.56879 0.913955,-1.045472 0.327382,-0.491513 0.416953,-0.702188 0.295777,-0.696128 z"
       id="path1224" />
    <path
       style="fill:#000000;fill-opacity:0.913044;stroke-width:0.0697897"
       d="m 46.120388,45.737308 c -0.07905,0 -0.124179,0.03144 -0.100461,0.06983 0.02376,0.03838 0.08836,0.06983 0.143668,0.06983 0.0553,0 0.100601,-0.03144 0.100601,-0.06983 0,-0.03838 -0.0648,-0.06983 -0.143812,-0.06983 z"
       id="path1222" />
    <path
       style="fill:#000000;fill-opacity:0.913044;stroke-width:0.0697897"
       d="m 45.677252,45.737308 c -0.184748,0 -0.306755,0.294632 -0.331503,0.800673 l -0.02376,0.486618 0.279155,0.05017 c 0.153539,0.02764 0.436249,0.05215 0.628246,0.05434 0.191988,0.002 0.678779,0.07021 1.081736,0.151163 0.402959,0.08095 0.858274,0.170964 1.011804,0.200102 0.338259,0.06422 0.400839,0.0551 0.440818,-0.06488 0.02261,-0.06773 -0.02166,-0.08285 -0.163838,-0.05559 -0.107129,0.02052 -0.276135,0.01013 -0.37553,-0.02289 -0.09939,-0.03306 -0.259119,-0.06964 -0.355075,-0.08141 -0.09597,-0.01168 -0.205886,-0.04095 -0.24427,-0.06489 -0.06602,-0.04113 -0.599457,-0.127246 -1.53537,-0.247947 l -0.418729,-0.05396 1.32e-4,-0.418738 c 7.7e-5,-0.230304 0.02564,-0.489395 0.05701,-0.575765 0.04331,-0.119606 0.03126,-0.157025 -0.05082,-0.157025 z"
       id="path1220" />
    <path
       style="fill:#000000;fill-opacity:0.913044;stroke-width:0.0697897"
       d="m 49.083574,45.683059 c -0.06062,0 -0.132282,0.0057 -0.213318,0.01721 -0.312198,0.04418 -0.913965,0.0627 -1.419643,0.0438 -0.115148,-0.0048 -0.303583,0.0028 -0.418739,0.01539 -0.115147,0.01281 -0.323172,0.02869 -0.462213,0.03544 -0.211559,0.01027 -0.239262,0.02869 -0.169434,0.112854 0.04589,0.0553 0.167553,0.113938 0.270302,0.130454 0.10274,0.01653 0.297881,0.01673 0.433588,4.93e-4 0.135701,-0.01625 1.015052,-0.03857 1.954109,-0.04979 1.482148,-0.01767 1.710152,-0.03478 1.728651,-0.129497 0.02784,-0.142546 -0.116343,-0.229466 -0.215778,-0.130031 -0.101867,0.101881 -1.18383,0.102232 -1.285647,5.03e-4 -0.03088,-0.03088 -0.10091,-0.04675 -0.201878,-0.04675 z"
       id="path1218" />
    <path
       style="fill:#000000;fill-opacity:0.913044;stroke-width:0.0697897"
       d="m 72.845657,44.982847 c -0.115836,0.0121 -0.331549,0.19308 -0.603152,0.510201 -0.197251,0.230303 -0.486164,0.544355 -0.641883,0.697895 -0.155712,0.153537 -0.282558,0.318411 -0.282558,0.366389 0.0021,0.263347 0.602165,-0.144675 0.898942,-0.610659 0.06106,-0.09596 0.160604,-0.211418 0.22124,-0.256527 0.14982,-0.111476 0.514753,-0.644671 0.471075,-0.688354 -0.01559,-0.01557 -0.03698,-0.02177 -0.06361,-0.01891 z"
       id="path1214" />
    <path
       style="fill:#000000;fill-opacity:0.913044;stroke-width:0.0697897"
       d="m 68.909227,44.635943 c -0.05862,-0.0057 -0.292476,0.226797 -0.982778,0.972146 -0.119185,0.128682 -0.326012,0.310927 -0.459619,0.405106 -0.250142,0.176313 -0.614745,0.62989 -0.614745,0.764684 0,0.171077 0.194696,0.05073 0.660261,-0.407831 0.270178,-0.266122 0.685507,-0.668757 0.922945,-0.894719 0.393515,-0.374504 0.595402,-0.723233 0.483485,-0.835158 -0.0028,-0.0028 -0.0057,-0.0038 -0.0096,-0.0038 z"
       id="path1212" />
    <path
       style="fill:#000000;fill-opacity:0.913044;stroke-width:0.0697897"
       d="m 58.345677,44.372055 c -0.122336,-2.58e-4 -0.161368,0.09224 -0.08029,0.243718 0.104456,0.19518 0.04789,0.356016 -0.250263,0.712886 -0.349594,0.418445 -0.42194,0.587165 -0.552041,1.286333 -0.151934,0.816488 -0.155715,0.901947 -0.04019,0.901947 0.153616,0 0.356586,-0.530845 0.356586,-0.932615 0,-0.213764 0.511464,-1.310493 0.662999,-1.421686 0.14171,-0.103979 0.149482,-0.09586 1.127672,1.167887 0.17827,0.230303 0.366428,0.443781 0.418197,0.474478 0.05177,0.03068 0.09416,0.09787 0.09416,0.149121 0,0.05121 0.07068,0.14047 0.157025,0.198334 0.08636,0.05786 0.356444,0.296989 0.600163,0.53132 0.243718,0.234343 0.4714,0.408611 0.505972,0.387254 0.138486,-0.0856 0.04228,-0.256734 -0.392156,-0.697629 -0.250226,-0.25394 -0.50107,-0.551005 -0.557503,-0.660129 -0.05643,-0.109126 -0.160475,-0.216689 -0.231045,-0.239082 -0.115584,-0.03668 -0.309445,-0.250691 -1.140612,-1.258665 -0.140541,-0.170441 -0.277,-0.407234 -0.303155,-0.526286 -0.03164,-0.14382 -0.107636,-0.239433 -0.226816,-0.284753 -0.05786,-0.02204 -0.107931,-0.0323 -0.148704,-0.0324 z"
       id="path1210" />
    <path
       style="fill:#000000;fill-opacity:0.913044;stroke-width:0.0697897"
       d="m 80.141649,43.015522 c 0.0574,0 0.144888,0.04855 0.194389,0.107959 0.04954,0.05938 0.168185,0.184996 0.263751,0.279156 0.09553,0.09416 0.139783,0.1712 0.09813,0.1712 -0.0416,0 -0.132524,-0.0628 -0.201998,-0.139583 -0.06947,-0.07677 -0.167544,-0.13957 -0.217824,-0.13957 -0.05023,0 -0.124929,-0.0628 -0.166027,-0.139584 -0.05913,-0.110659 -0.05319,-0.139569 0.02953,-0.139569 z"
       id="path1202" />
    <path
       style="fill:#000000;fill-opacity:0.913044;stroke-width:0.0697897"
       d="m 88.480941,41.209584 c -0.02422,-9.66e-4 -0.05181,0.0038 -0.07705,0.01351 -0.05568,0.02223 -0.03912,0.03886 0.04209,0.04228 0.07352,0.0028 0.114793,-0.01351 0.09158,-0.03668 -0.01152,-0.01154 -0.03249,-0.01805 -0.05671,-0.0191 z"
       id="path1198" />
    <path
       style="fill:#000000;fill-opacity:0.913044;stroke-width:0.0697897"
       d="m 88.936211,41.131205 c -0.05988,0 -0.0893,0.03144 -0.06554,0.06983 0.02373,0.03838 0.0727,0.06983 0.108771,0.06983 0.03608,0 0.06575,-0.03144 0.06575,-0.06983 0,-0.03838 -0.04912,-0.06983 -0.108916,-0.06983 z"
       id="path1196" />
    <path
       style="fill:#000000;fill-opacity:0.913044;stroke-width:0.0697897"
       d="m 89.752703,41.074771 c -0.17287,2.56e-4 -0.428426,0.0647 -0.428426,0.129356 0,0.08275 0.419381,0.08617 0.548235,0.0048 0.07013,-0.04446 0.0735,-0.07315 0.01297,-0.110547 -0.02663,-0.01653 -0.07515,-0.02346 -0.132759,-0.02328 z"
       id="path1194" />
    <path
       style="fill:#000000;fill-opacity:0.913044;stroke-width:0.0697897"
       d="m 73.435459,39.97941 c -0.127599,-0.0066 -0.320483,0.04627 -0.525737,0.149663 -0.103652,0.05216 -0.354889,0.09661 -0.558315,0.09869 -0.203426,0.002 -0.511118,0.05804 -0.68385,0.12432 l -0.314053,0.120493 -0.0097,0.416553 c -0.0062,0.229125 -0.0367,0.557885 -0.06984,0.730614 l -0.06016,0.314052 -0.48853,0.04617 c -0.672481,0.06366 -0.920722,0.105469 -1.326007,0.223671 -0.191911,0.05597 -0.521668,0.148087 -0.732779,0.204605 -0.715376,0.191522 -2.020691,0.876506 -2.483939,1.303509 -0.167552,0.154443 -0.330839,0.280789 -0.362989,0.280789 -0.0321,0 -0.317851,0.2905 -0.634914,0.645557 -0.317063,0.355046 -0.707643,0.789413 -0.86787,0.965193 -0.160236,0.17578 -0.422596,0.474127 -0.582994,0.662999 -0.160389,0.188871 -0.388156,0.453272 -0.506239,0.58762 -0.409579,0.465957 -0.47139,0.846739 -0.588305,3.629054 -0.0086,0.211113 -0.0399,0.434708 -0.06907,0.496833 -0.03724,0.07943 -0.01415,0.123167 0.07781,0.147222 0.124292,0.03248 0.185899,0.134209 0.47653,0.786629 0.116329,0.261114 0.126078,0.267622 0.149674,0.100587 0.02546,-0.180512 -0.03116,-0.34756 -0.246855,-0.728696 -0.0968,-0.171028 -0.120521,-0.420258 -0.12923,-1.360902 -0.01336,-1.443538 0.162347,-2.428987 0.521383,-2.924613 0.122139,-0.168617 0.22218,-0.342772 0.22218,-0.386979 0,-0.04419 0.375721,-0.464768 0.835017,-0.934526 0.459297,-0.469746 0.99494,-1.037805 1.190233,-1.262342 0.215873,-0.248184 0.514049,-0.492937 0.760742,-0.624417 0.223158,-0.118946 0.440419,-0.257978 0.482656,-0.308873 0.0934,-0.112517 0.508492,-0.299515 1.477029,-0.665458 0.951722,-0.35958 1.900745,-0.533041 2.63974,-0.482393 0.599136,0.04104 0.718718,-0.01977 0.57303,-0.291972 -0.04609,-0.08617 -0.03801,-0.164389 0.02601,-0.252032 0.06444,-0.08798 0.08209,-0.262149 0.05768,-0.566767 -0.04788,-0.596571 0.0069,-0.651408 0.652363,-0.651408 0.463162,0 0.528255,-0.01757 0.68209,-0.183475 0.160397,-0.172987 0.173802,-0.175961 0.23608,-0.05235 0.127881,0.253836 0.253686,1.184913 0.243034,1.798984 -0.0062,0.341584 0.0062,0.647589 0.02553,0.679901 0.01994,0.0323 0.148316,0.01182 0.285291,-0.04541 0.479761,-0.20046 0.772841,-0.142205 1.552409,0.308192 0.392364,0.226684 0.750509,0.457462 0.795767,0.512925 0.04526,0.05548 0.19643,0.18511 0.335992,0.288021 0.139561,0.102908 0.340166,0.311666 0.445721,0.46399 0.10557,0.152313 0.245601,0.27697 0.31119,0.27697 0.206779,0 0.235541,-0.04903 1.11527,-1.901762 0.123024,-0.259089 0.238073,-0.471076 0.255714,-0.471076 0.01766,0 0.195693,0.117863 0.395566,0.261978 0.199873,0.144125 0.426211,0.296238 0.50297,0.338051 0.07677,0.04179 0.206731,0.174734 0.288836,0.29524 0.08209,0.120508 0.302007,0.339759 0.488669,0.487294 0.186641,0.147545 0.463514,0.399235 0.61528,0.559414 0.167682,0.176939 0.338786,0.291289 0.436056,0.291289 0.112241,0 0.160169,0.04066 0.160169,0.136165 0,0.316475 0.584193,1.910958 0.807206,2.203138 0.126708,0.165996 0.284262,0.406179 0.350176,0.533639 0.272534,0.527018 0.643415,0.850931 0.665864,0.581626 0.02725,-0.327666 0.02097,-0.506913 -0.0169,-0.483485 -0.06464,0.03999 -0.221592,-0.167334 -0.47939,-0.633147 -0.127474,-0.230305 -0.293845,-0.52866 -0.36968,-0.662999 -0.162928,-0.288675 -0.398587,-1.226411 -0.400056,-1.592071 -0.0021,-0.36467 -0.139244,-0.598849 -0.377159,-0.640785 -0.110013,-0.01939 -0.234893,-0.09811 -0.277384,-0.174878 -0.147137,-0.265845 -0.637737,-0.769472 -1.133539,-1.163518 -0.394413,-0.313472 -0.568663,-0.405893 -0.837479,-0.444371 -0.186682,-0.0267 -0.441099,-0.109956 -0.565262,-0.184967 -0.249477,-0.150717 -0.506923,-0.117271 -0.506923,0.06584 0,0.06213 -0.05664,0.177698 -0.12568,0.256942 -0.0691,0.07923 -0.199432,0.332503 -0.289651,0.562806 -0.192595,0.491561 -0.568084,1.151529 -0.655233,1.151529 -0.07145,0 -0.453849,-0.296904 -0.848648,-0.658771 -0.286339,-0.262455 -0.753103,-0.551035 -1.030356,-0.637101 -0.08589,-0.02669 -0.242482,-0.109309 -0.34799,-0.183607 -0.117388,-0.08265 -0.361146,-0.149768 -0.628105,-0.172978 -0.239943,-0.0209 -0.445819,-0.04665 -0.457582,-0.05739 -0.0118,-0.01069 -0.02242,-0.187912 -0.02387,-0.393658 -0.0028,-0.476587 -0.300952,-1.807989 -0.420913,-1.882132 -0.02601,-0.01615 -0.06133,-0.02518 -0.103872,-0.02755 z"
       id="path1190" />
    <path
       style="fill:#000000;fill-opacity:0.913044;stroke-width:0.0697897"
       d="m 74.305922,39.324174 c -0.0096,7.59e-4 -0.02008,0.002 -0.03167,0.0048 -0.0702,0.01351 -0.13874,0.08199 -0.152249,0.152248 -0.01773,0.09216 0.01083,0.120943 0.103045,0.10319 0.0702,-0.01351 0.13874,-0.08209 0.152263,-0.152257 0.01559,-0.08067 -0.0041,-0.1127 -0.07145,-0.107551 z"
       id="path1188" />
    <path
       style="fill:#000000;fill-opacity:0.913044;stroke-width:0.0697897"
       d="m 43.605781,45.336844 c -0.05187,-7.59e-4 -0.118158,0.002 -0.20296,0.0057 -0.211112,0.01055 -0.603677,0.04883 -0.872363,0.08503 -0.268686,0.0362 -0.975312,0.09738 -1.570267,0.135898 -0.594954,0.03848 -1.395788,0.09863 -1.779631,0.133576 -0.541495,0.04931 -0.738262,0.04285 -0.877683,-0.0285 -0.156656,-0.08019 -0.20584,-0.07458 -0.383842,0.04304 -0.112278,0.0742 -0.242351,0.120662 -0.289104,0.10319 -0.124404,-0.04645 -0.184482,0.09186 -0.08959,0.206238 0.04893,0.059 0.254114,0.108606 0.51197,0.123771 0.478525,0.02812 0.934117,-0.0028 1.302691,-0.08845 0.13435,-0.03126 0.633699,-0.059 1.109811,-0.06166 0.476123,-0.0028 0.962903,-0.0343 1.081737,-0.0705 0.220262,-0.06698 0.845049,-0.14629 1.472402,-0.186877 0.524422,-0.03392 0.767675,-0.122547 0.767675,-0.279564 0,-0.08921 -0.02526,-0.118988 -0.180882,-0.121182 z"
       id="path1186" />
    <path
       style="fill:#000000;fill-opacity:0.913044;stroke-width:0.0697897"
       d="m 35.429377,44.957902 c -0.01701,1.44e-4 -0.03306,0.0048 -0.04798,0.01393 -0.04075,0.02526 -0.0742,0.09358 -0.0742,0.15199 0,0.135645 0.370617,1.180722 0.516337,1.455898 0.149047,0.281464 0.142719,0.998113 -0.01701,1.931204 -0.105848,0.618213 -0.191825,0.873017 -0.50543,1.498841 -0.322916,0.644406 -0.468997,0.846588 -1.005809,1.390876 -0.345461,0.350267 -0.785137,0.742652 -0.97706,0.871964 -0.19192,0.129299 -0.4145,0.29163 -0.494515,0.360671 -0.448815,0.387224 -1.417326,0.747953 -2.436633,0.907535 -0.557342,0.08721 -2.355016,0.07837 -2.617108,-0.01294 -0.09596,-0.03344 -0.237287,-0.08447 -0.314052,-0.113277 -0.07677,-0.02878 -0.173851,-0.04721 -0.215643,-0.04086 -0.0418,0.0066 -0.132972,-0.05149 -0.202687,-0.128526 -0.06974,-0.07705 -0.183523,-0.140118 -0.252849,-0.140118 -0.06936,0 -0.189005,-0.06754 -0.265941,-0.150082 -0.116145,-0.124671 -0.15804,-0.135152 -0.246986,-0.06137 -0.120043,0.09963 -0.141569,0.211416 -0.04075,0.211416 0.03648,0 0.201346,0.08883 0.3664,0.197375 0.517573,0.340321 0.889577,0.439858 1.643592,0.439858 0.377791,0 0.732476,0.03116 0.788263,0.06926 0.181424,0.12394 1.652133,0.02289 2.160339,-0.148447 1.179431,-0.397656 2.708912,-1.339886 3.441226,-2.119846 0.396822,-0.422653 0.874084,-1.123454 0.932607,-1.369347 0.02289,-0.09596 0.08826,-0.228149 0.145169,-0.293742 0.146547,-0.168805 0.435298,-1.024276 0.43564,-1.290558 1.42e-4,-0.122885 0.0437,-0.389819 0.09663,-0.593217 0.108972,-0.418701 0.06718,-0.764902 -0.20486,-1.695797 -0.08968,-0.307079 -0.201089,-0.691321 -0.247406,-0.853829 -0.07953,-0.279137 -0.240355,-0.489906 -0.359302,-0.488804 z"
       id="path1182" />
    <path
       style="fill:#000000;fill-opacity:0.913044;stroke-width:0.0697897"
       d="m 53.136002,37.30015 c -0.04912,-5.04e-4 -0.111153,0.002 -0.189471,0.0066 -0.323827,0.01863 -0.369098,0.04019 -0.389563,0.184701 -0.01957,0.137896 0,0.156247 0.122674,0.117216 0.144379,-0.04579 0.201859,-0.01266 0.792767,0.455134 0.123321,0.09765 0.312342,0.232832 0.419964,0.300561 0.107621,0.06774 0.363673,0.275223 0.568953,0.461132 0.205268,0.185897 0.439449,0.359093 0.520412,0.384792 0.08095,0.02575 0.194933,0.138979 0.253257,0.251756 0.05832,0.112784 0.466441,0.573826 0.906994,1.024495 0.440561,0.450661 1.051534,1.077576 1.357766,1.393195 0.306223,0.315619 0.690693,0.640776 0.854368,0.722567 0.372376,0.186079 0.485633,0.322403 0.790715,0.952245 0.187932,0.387966 0.335761,0.578584 0.642022,0.828071 0.583136,0.475019 0.709542,0.716543 0.712202,1.360748 9.66e-4,0.291081 0.02356,0.550627 0.04978,0.576858 0.197954,0.197945 0.298802,-0.801906 0.127302,-1.26221 -0.134688,-0.361535 -0.355123,-0.646506 -0.500235,-0.646506 -0.171419,0 -0.593929,-0.532403 -0.788539,-0.993675 -0.240697,-0.570501 -0.448495,-0.867898 -0.650192,-0.930717 -0.248801,-0.07753 -0.678541,-0.448787 -0.678541,-0.586253 0,-0.07267 -0.06669,-0.142983 -0.157434,-0.165756 -0.206534,-0.05187 -0.830048,-0.639921 -1.0208,-0.962875 -0.08265,-0.139963 -0.236033,-0.310288 -0.34091,-0.378522 -0.274083,-0.178297 -1.062745,-0.945393 -1.064702,-1.035526 -0.002,-0.09168 -0.795437,-0.808985 -0.894851,-0.808985 -0.03838,0 -0.160143,-0.08636 -0.270435,-0.191921 -0.110308,-0.105553 -0.378075,-0.333253 -0.595126,-0.505973 -0.21705,-0.17273 -0.39626,-0.370684 -0.39815,-0.439868 -0.002,-0.08065 -0.03287,-0.109394 -0.180198,-0.111096 z"
       id="path1178" />
    <path
       style="fill:#000000;fill-opacity:0.913044;stroke-width:0.0541088"
       d="m 95.274281,46.782259 c -0.02973,0 -0.05416,0.02438 -0.05416,0.05414 0,0.02976 0.02435,0.05414 0.05416,0.05414 0.02974,0 0.05416,-0.02438 0.05416,-0.05414 0,-0.02976 -0.02435,-0.05414 -0.05416,-0.05414 z"
       id="path1170" />
    <path
       style="fill:#000000;fill-opacity:0.913044;stroke-width:0.0697897"
       d="m 72.582305,35.764228 c 0.03187,-9.66e-4 0.0672,9.66e-4 0.105922,0.0057 0.173636,0.02033 0.204274,0.0686 0.32318,0.511019 0.09566,0.355892 0.12864,0.699852 0.121727,1.266703 -0.0062,0.486175 0.01849,0.795362 0.06499,0.82412 0.04098,0.02526 0.07458,0.183381 0.07458,0.351265 0,0.230741 -0.02987,0.313853 -0.122128,0.340492 -0.0672,0.01939 -0.36552,0.05652 -0.663001,0.08265 -0.595252,0.05225 -0.620013,0.03268 -0.46399,-0.365716 0.04229,-0.108057 0.08789,-0.35345 0.101278,-0.545371 0.01338,-0.191921 0.05637,-0.584485 0.09542,-0.872362 0.03905,-0.287887 0.07205,-0.731518 0.07314,-0.985914 0.0021,-0.452437 0.0652,-0.605605 0.288837,-0.612427 z"
       id="path1168" />
    <path
       style="fill:#000000;fill-opacity:0.913044;stroke-width:0.0697897"
       d="m 10.523055,50.318393 c 0.18849,7.59e-4 0.39896,0.05815 0.857376,0.215092 0.401464,0.13746 1.028259,0.370951 1.392923,0.518924 0.364678,0.147971 0.751937,0.291401 0.860653,0.318686 0.108715,0.02726 0.31288,0.121633 0.453628,0.20964 0.140755,0.08798 0.363622,0.197024 0.495201,0.242218 0.131593,0.04522 0.382837,0.172465 0.558322,0.282842 0.175485,0.110364 0.441058,0.239453 0.590216,0.286919 0.149165,0.04751 0.381125,0.160977 0.515512,0.252173 0.134381,0.0912 0.362029,0.197498 0.505827,0.236222 0.143797,0.03876 0.300434,0.1173 0.347996,0.174612 0.04753,0.05728 0.126391,0.104132 0.175154,0.104132 0.04878,0 0.106439,0.04656 0.128261,0.103457 0.02187,0.0569 0.132027,0.143232 0.244944,0.191921 0.112945,0.04875 0.589637,0.512444 1.05925,1.030624 0.469613,0.51819 0.912258,0.983196 0.983732,1.033351 0.07145,0.05017 0.130034,0.148428 0.130034,0.21836 0,0.07515 0.08465,0.162214 0.207048,0.212918 0.113883,0.04711 0.223785,0.138585 0.244262,0.203094 0.02056,0.06451 0.194236,0.284524 0.386162,0.488939 0.191918,0.204415 0.348941,0.392774 0.348941,0.418597 0,0.05065 0.446315,0.499293 1.413248,1.420736 0.335861,0.320056 0.610768,0.611885 0.611472,0.648414 6.9e-4,0.103724 1.547318,1.660068 1.755911,1.767632 0.268469,0.138459 0.710119,0.610747 0.654829,0.700214 -0.0534,0.08645 -0.0683,0.08655 -0.34446,0.0038 -0.11057,-0.03306 -0.267601,-0.121042 -0.348948,-0.195465 -0.175817,-0.160825 -0.696048,-0.430186 -0.830794,-0.430186 -0.05236,0 -0.249809,-0.109914 -0.438774,-0.24426 -0.188959,-0.134351 -0.401658,-0.24426 -0.472711,-0.24426 -0.07109,0 -0.385106,-0.123715 -0.698042,-0.274938 -0.85098,-0.411271 -2.339897,-1.051058 -2.446025,-1.051058 -0.05119,0 -0.167993,-0.05615 -0.259523,-0.124869 -0.09158,-0.06868 -0.244952,-0.162784 -0.340911,-0.208955 -0.09596,-0.04618 -0.221584,-0.111715 -0.279164,-0.145712 -0.295087,-0.174231 -1.320869,-0.6371 -1.411868,-0.6371 -0.05761,0 -0.179583,-0.05853 -0.27112,-0.130045 -0.193484,-0.151116 -0.724072,-0.428277 -0.819741,-0.428277 -0.0603,0 -0.56758,-0.313054 -0.98674,-0.608883 -0.09595,-0.06773 -0.19018,-0.12484 -0.209373,-0.126894 -0.01911,-0.002 -0.158976,-0.120072 -0.310507,-0.262254 -0.214003,-0.200814 -0.256846,-0.277208 -0.191912,-0.342134 0.135126,-0.135139 0.09739,-0.195191 -0.122548,-0.195191 -0.244075,0 -1.214148,-0.700611 -2.027024,-1.463946 -0.629817,-0.59143 -1.215859,-1.105962 -1.50048,-1.317418 -0.389908,-0.289672 -0.760478,-0.602488 -0.973908,-0.8222 -0.116919,-0.120353 -0.3821736,-0.362808 -0.5895396,-0.538692 -0.355661,-0.301662 -1.123438,-1.195772 -1.123438,-1.308278 0,-0.09168 0.403037,-0.143944 0.994088,-0.128935 0.31686,0.0076 0.7187796,-0.0086 0.8930846,-0.03696 0.0663,-0.01083 0.126646,-0.01691 0.189462,-0.01663 z"
       id="path1166" />
    <path
       style="fill:#000000;fill-opacity:0.913044;stroke-width:0.0697897"
       d="m 85.625448,35.487257 c 0.03167,0 0.06327,0.0048 0.08721,0.01453 0.04795,0.01939 0.0086,0.03516 -0.08721,0.03516 -0.09597,0 -0.135222,-0.01577 -0.08722,-0.03516 0.02394,-0.0097 0.05561,-0.01453 0.08722,-0.01453 z"
       id="path1164" />
    <path
       style="fill:#000000;fill-opacity:0.913044;stroke-width:0.0541088"
       d="m 95.274281,46.295275 c -0.02973,0 -0.05416,0.03794 -0.05416,0.08434 0,0.04641 0.02435,0.06931 0.05416,0.05097 0.02974,-0.01841 0.05416,-0.05634 0.05416,-0.08434 0,-0.028 -0.02435,-0.05097 -0.05416,-0.05097 z"
       id="path1162" />
    <path
       style="fill:#000000;fill-opacity:0.913044;stroke-width:0.0697897"
       d="m 72.680727,33.762833 c 0.03305,-0.0048 0.06106,0.03116 0.106184,0.115457 0.06161,0.115049 0.07307,0.361118 0.04036,0.860915 -0.02525,0.384908 -0.06878,0.720886 -0.09677,0.746557 -0.08019,0.07334 -0.365037,-0.08693 -0.365037,-0.205412 0,-0.366191 0.171104,-1.388198 0.245759,-1.467766 0.02815,-0.02992 0.04974,-0.04703 0.06954,-0.04978 z"
       id="path1136" />
    <path
       style="fill:#000000;fill-opacity:0.913044;stroke-width:0.0697897"
       d="m 9.268465,61.761543 c 0.01939,0.002 0.05181,0.01871 0.09773,0.05341 0.04891,0.03696 0.230332,0.109394 0.403064,0.161111 0.172732,0.05169 0.408639,0.149577 0.524233,0.217411 0.402727,0.236317 1.640876,0.83039 1.730695,0.83039 0.04981,0 0.237135,0.093 0.416284,0.206638 0.179162,0.113614 0.491476,0.276458 0.694074,0.361896 0.391681,0.165167 0.787764,0.448712 0.700222,0.501345 -0.02898,0.01738 -0.530304,0.0359 -1.114049,0.04114 -1.047307,0.0096 -1.062761,0.0076 -1.170752,-0.157433 -0.06023,-0.09186 -0.31079,-0.314717 -0.556804,-0.495343 -0.246028,-0.180625 -0.484543,-0.373381 -0.530104,-0.428277 -0.0456,-0.05491 -0.152249,-0.09977 -0.237046,-0.09977 -0.106659,0 -0.221688,-0.102148 -0.373191,-0.331504 C 9.73237,62.440232 9.538278,62.1842 9.421394,62.053615 9.268,61.882224 9.210186,61.755563 9.268462,61.761509 Z"
       id="path1134" />
    <path
       style="fill:#000000;fill-opacity:0.913044;stroke-width:0.0697897"
       d="m 78.571937,32.341555 c 0.04809,0.0057 0.100037,0.05976 0.172705,0.170649 0.108716,0.165939 0.107536,0.17448 -0.02435,0.17448 -0.141431,0 -0.314156,-0.224946 -0.234175,-0.304922 0.0296,-0.02964 0.05706,-0.04361 0.08589,-0.04019 z"
       id="path1132" />
    <path
       style="fill:#000000;fill-opacity:0.913044;stroke-width:0.0697897"
       d="m 54.551605,13.952606 c 1.102259,4.94e-4 2.25655,0.194808 2.418641,0.463438 0.03268,0.05425 0.236469,0.198648 0.452675,0.321006 0.216214,0.122351 0.431953,0.269398 0.479532,0.326735 0.04759,0.05728 0.131101,0.104273 0.185517,0.104273 0.209963,0 0.70692,0.318071 1.17511,0.752143 0.268687,0.249124 0.598441,0.523787 0.732789,0.610251 0.311914,0.200767 0.547187,0.45943 0.855596,0.940663 0.135306,0.211113 0.423193,0.571452 0.639825,0.800672 0.418615,0.442917 0.543215,0.708059 0.380851,0.810894 -0.107678,0.06822 -0.163905,0.07753 -0.20719,0.0344 -0.100854,-0.100503 -1.997176,-0.173662 -6.519453,-0.251757 -0.49899,-0.0086 -0.930565,-0.02908 -0.958923,-0.04551 -0.0284,-0.01643 -0.703576,-0.04162 -1.500476,-0.05586 -2.263201,-0.04066 -4.084587,-0.104104 -6.054914,-0.210733 -0.997988,-0.05397 -1.92444,-0.09378 -2.058787,-0.08855 -0.273474,0.01069 -2.824858,-0.08209 -3.41968,-0.124179 -0.211113,-0.01492 -0.597482,-0.04019 -0.858464,-0.05614 -0.26099,-0.01597 -0.49518,-0.04969 -0.520423,-0.07495 -0.07021,-0.07021 0.263518,-0.636759 0.547814,-0.930165 0.473319,-0.488473 1.348094,-1.064151 1.617161,-1.064151 0.04019,0 0.176863,-0.07915 0.303687,-0.175837 0.247252,-0.188587 0.928102,-0.413684 1.980958,-0.654952 0.410615,-0.09406 2.322789,-0.118539 3.384794,-0.04323 0.666381,0.04721 0.900152,0.09272 1.14443,0.222448 0.168854,0.08968 0.35842,0.16303 0.421333,0.16303 0.06288,0 0.22314,0.09292 0.356034,0.206505 0.132887,0.113586 0.276524,0.207806 0.319229,0.209365 0.04275,0.002 0.325358,-0.234912 0.628103,-0.52547 0.302756,-0.290545 0.676167,-0.593284 0.829706,-0.672812 0.153539,-0.07953 0.388288,-0.234323 0.521782,-0.344037 0.133506,-0.109717 0.294147,-0.199559 0.356993,-0.199559 0.0629,0 0.201774,-0.06878 0.308732,-0.152931 0.106974,-0.08417 0.307477,-0.159077 0.445596,-0.166432 0.138121,-0.0076 0.392535,-0.0344 0.565267,-0.06014 0.317175,-0.04721 0.678739,-0.0685 1.046155,-0.06831 z"
       id="path1118" />
    <path
       style="fill:#000000;fill-opacity:0.913044;stroke-width:0.0697897"
       d="m 29.046103,27.023657 c -0.392061,-0.002 -0.768408,0.01435 -0.996952,0.05416 -0.211114,0.03677 -0.485035,0.07685 -0.608619,0.08902 -0.123589,0.0121 -0.610365,0.213944 -1.081736,0.448446 -0.67686,0.33674 -0.978381,0.536813 -1.434504,0.95198 -0.564525,0.513828 -0.842398,0.642817 -0.963284,0.44722 -0.02669,-0.04313 -0.246473,-0.16818 -0.488519,-0.277931 -0.464162,-0.210466 -0.341129,-0.196842 -2.821019,-0.312417 -0.364653,-0.01701 -0.725816,-0.0379 -0.802582,-0.04635 -0.299706,-0.03306 -1.401432,0.107959 -1.500476,0.192054 -0.05757,0.04893 -0.246007,0.122336 -0.418737,0.163297 -0.714093,0.169347 -1.024184,0.264886 -1.243666,0.383157 -0.127401,0.06869 -0.465927,0.248298 -0.752285,0.399111 -0.286356,0.150813 -0.666239,0.376499 -0.844289,0.501612 -0.360262,0.253163 -1.06514,0.95651 -1.067287,1.064969 -7.59e-4,0.03838 -0.111869,0.189983 -0.246853,0.336956 l -0.245353,0.2673 c -26.316057,-0.745635 -0.101656,-1.34516 -0.101684,1.270115 0,0.591041 0.02898,0.966361 0.07933,1.028571 0.04361,0.05387 0.181707,0.345727 0.306963,0.648416 0.125262,0.302698 0.320674,0.656044 0.434139,0.785271 0.219388,0.249874 0.216595,0.443952 -0.0066,0.443952 -0.07591,0 -0.216034,0.120916 -0.328911,0.283792 -0.192633,0.277977 -0.196558,0.302717 -0.189051,1.203867 0.0086,1.035897 0.04446,1.243655 0.396383,2.295418 0.137206,0.410112 0.24957,0.79235 0.24957,0.849334 0,0.103864 0.611306,1.330377 1.040163,2.08687 0.281655,0.496815 1.253337,1.53558 1.640058,1.753324 0.157187,0.08854 0.47427,0.200443 0.704572,0.248764 0.230304,0.04825 0.669982,0.168872 0.977051,0.26784 0.468835,0.151097 0.748475,0.187742 1.744735,0.228992 1.691542,0.07002 2.284075,0.0324 2.791577,-0.178012 0.230313,-0.09547 0.498723,-0.174374 0.596485,-0.175296 0.09776,-9.66e-4 0.390151,-0.141216 0.649774,-0.311732 0.259622,-0.170517 0.574805,-0.343864 0.700487,-0.385344 0.125685,-0.04151 0.317823,-0.16856 0.42692,-0.282424 0.210228,-0.219436 0.203882,-0.336644 -0.01154,-0.215503 -0.359026,0.201841 -1.580954,0.774641 -1.652179,0.774499 -0.04503,-1.44e-4 -0.207409,0.0608 -0.360947,0.13549 -0.15353,0.07467 -0.50775,0.204605 -0.787038,0.288704 -0.457957,0.137896 -0.550407,0.144666 -0.942154,0.06898 -0.238902,-0.04617 -0.630564,-0.08313 -0.870463,-0.08219 -0.239899,9.66e-4 -0.436182,-0.02832 -0.436182,-0.06498 0,-0.09234 -0.184397,-0.08351 -0.34472,0.01663 -0.105117,0.06566 -0.175313,0.06288 -0.330553,-0.01308 -0.108395,-0.05301 -0.349336,-0.105792 -0.535415,-0.117215 -0.186069,-0.0114 -0.60475,-0.08409 -0.930297,-0.161397 -0.325547,-0.07733 -0.639306,-0.140526 -0.697212,-0.140526 -0.216802,0 -1.170862,-0.702075 -1.467347,-1.079827 -0.165452,-0.21076 -0.300635,-0.407431 -0.300635,-0.437054 0,-0.02964 -0.1053,-0.201879 -0.233905,-0.382751 -0.625272,-0.879449 -1.492731,-3.104392 -1.545042,-3.962732 -0.01055,-0.172731 -0.0418,-0.586471 -0.06954,-0.919392 -0.03278,-0.394787 -0.02289,-0.688061 0.02832,-0.843338 0.09092,-0.275412 0.375045,-0.569465 0.651142,-0.673772 0.264952,-0.100094 0.241495,-0.261257 -0.095,-0.653858 -0.157292,-0.183515 -0.413038,-0.574891 -0.5684,-0.86978 -0.273799,-0.519682 -0.283584,-0.561522 -0.31638,-1.357624 -0.02575,-0.625718 -0.0114,-0.848326 0.06014,-0.934526 3.481147,2.282915 20.007713,-2.825427 22.761163,0.900722 0.148791,0.204244 0.240119,0.190003 0.332056,-0.05177 l 0.05919,-0.155666 c 6.576324,0.07344 13.149982,0.100924 19.728197,0.02508 0.752845,-0.0098 1.151528,0.01939 1.151528,0.08455 0,0.06156 -0.756855,0.319162 -1.116632,0.380024 -0.09596,0.01625 -0.284391,0.07715 -0.418738,0.135222 -0.134337,0.05804 -0.712764,0.188966 -1.285382,0.290879 -0.5726,0.101895 -1.105631,0.230455 -1.184505,0.285693 -0.07885,0.0553 -0.232576,0.10046 -0.341451,0.10046 -0.1229,0 -0.180379,0.02832 -0.151706,0.07467 0.05681,0.09196 0.471296,0.02842 0.998445,-0.15294 0.209668,-0.07211 0.521488,-0.131128 0.69285,-0.131128 0.364061,0 2.046141,-0.38257 2.331947,-0.530371 0.10779,-0.05577 0.196017,-0.08303 0.196017,-0.0607 0,0.02233 0.08636,-0.0048 0.19192,-0.05957 0.210201,-0.109661 0.411813,-0.191636 0.78513,-0.319363 0.323626,-0.110717 1.608354,-0.206742 2.861368,-0.213868 1.954775,-0.01111 3.4752,-0.0553 3.552858,-0.103316 0.04313,-0.0267 0.05881,-0.08037 0.03478,-0.11927 -0.04209,-0.06811 -1.827867,-0.04627 -4.233168,0.05197 -0.770573,0.03144 -0.959616,0.0209 -0.958915,-0.05341 7.59e-4,-0.08778 0.567405,-0.366039 1.255522,-0.616654 0.70978,-0.258501 1.735797,-0.770052 2.058788,-1.026397 1.571093,-1.246885 1.959316,-1.632553 2.149432,-2.135256 0.02632,-0.06964 0.08171,-0.105792 0.122941,-0.08027 0.04133,0.02546 0.05349,0.09824 0.02698,0.161529 -0.147561,0.35308 -0.259954,2.044204 -0.248762,3.744095 0.01308,1.978954 0.0323,2.218492 0.216043,2.68689 0.06774,0.17273 0.17827,0.502486 0.245629,0.732789 0.06736,0.230305 0.196909,0.507475 0.288019,0.615981 0.0911,0.108493 0.165748,0.260487 0.165748,0.337631 0,0.07715 0.09064,0.27092 0.20146,0.43073 0.1108,0.159809 0.255803,0.463333 0.322364,0.674446 0.0666,0.211113 0.15088,0.441881 0.187285,0.512794 0.03639,0.07087 0.05614,0.137375 0.04389,0.14762 -0.08389,0.07021 -0.400374,0.20334 -0.744372,0.313235 -0.222124,0.07097 -0.526902,0.195 -0.677306,0.275611 -0.150413,0.08057 -0.314422,0.146528 -0.364489,0.146528 -0.09883,0 -0.622641,0.251044 -0.76932,0.368718 -0.04987,0.03999 -0.34395,0.190449 -0.653461,0.334364 -0.30951,0.143905 -0.596836,0.295867 -0.6386,0.337631 -0.0418,0.0418 -0.115767,0.07591 -0.164389,0.07591 -0.09302,0 -1.000221,0.900542 -1.000221,0.992868 0,0.02945 -0.105905,0.171496 -0.235264,0.315554 -0.302546,0.336872 -0.618231,0.962913 -0.583535,1.15739 0.02299,0.128709 0.04493,0.111461 0.146936,-0.115865 0.235718,-0.525212 0.968622,-1.516332 1.314007,-1.776905 0.188814,-0.142452 0.443535,-0.341127 0.56595,-0.441502 0.214514,-0.175883 1.660978,-0.900769 2.525636,-1.265744 0.500937,-0.211445 1.305979,-0.401152 1.702353,-0.401152 0.185375,0 0.284951,-0.03078 0.281741,-0.08722 -0.01041,-0.185917 -0.110716,-0.339911 -0.296324,-0.455402 -0.13473,-0.08379 -0.289122,-0.332044 -0.508984,-0.818247 -0.173558,-0.383843 -0.43754,-0.964841 -0.586662,-1.29111 -0.149112,-0.326259 -0.354485,-0.866643 -0.45636,-1.200865 -0.166879,-0.547538 -0.18283,-0.694009 -0.16057,-1.479621 0.01625,-0.574909 0.05453,-0.90154 0.112052,-0.959057 2.178047,0.04179 3.872533,-0.544003 6.26878,0.02698 0.04664,0.147051 -0.157154,2.173791 -0.251768,2.503699 -0.03712,0.129581 -0.06747,0.43566 -0.06747,0.680177 v 0.444494 l 0.296605,-0.03866 c 1.248968,-0.163115 1.56113,-0.214675 1.619883,-0.267442 0.105342,-0.09462 0.03898,-0.619866 -0.116947,-0.925528 -0.130889,-0.256534 -0.135028,-0.313329 -0.05354,-0.745055 0.07687,-0.407384 0.07255,-0.533819 -0.03381,-0.985496 -0.197176,-0.837286 -0.28329,-0.780463 1.254576,-0.830112 2.15394,-0.06336 3.983995,-0.102051 6.145834,-0.150348 l 0.591837,0.585027 c 0.325492,0.321805 0.858218,0.869305 1.18384,1.21655 0.325616,0.347238 0.819811,0.811825 1.098085,1.032391 0.278295,0.220557 0.505978,0.42689 0.505978,0.458537 0,0.03164 0.133476,0.14532 0.296612,0.252573 0.841984,0.553579 2.355392,1.880156 2.355392,2.064658 0,0.114768 0.665885,0.689989 0.798761,0.689989 0.02939,0 0.113725,0.07667 0.187421,0.170384 0.07373,0.09368 0.197789,0.19062 0.275749,0.215359 0.07801,0.0247 0.169145,0.116864 0.202557,0.204739 0.04795,0.126134 0.09967,0.152294 0.245352,0.124446 0.101499,-0.01939 0.252954,-0.002 0.33655,0.0399 0.0836,0.04133 0.324719,0.145446 0.535817,0.231444 0.211119,0.08599 0.811483,0.401818 1.334178,0.701714 0.522687,0.299896 0.980951,0.54523 1.018482,0.54523 0.03753,0 0.12408,0.06176 0.19234,0.137122 0.06823,0.07543 0.379407,0.219426 0.691335,0.320055 0.311942,0.100629 0.614294,0.223882 0.671874,0.273846 0.05761,0.04997 0.277405,0.178174 0.488523,0.284874 0.211112,0.106707 0.430944,0.232442 0.488531,0.279433 0.105245,0.08589 0.95063,0.467665 1.535354,0.693399 0.468951,0.181034 1.067839,0.466573 1.186427,0.565675 0.05761,0.04807 0.415325,0.200044 0.795084,0.337498 0.776262,0.280951 1.325319,0.573227 1.573939,0.837886 0.0922,0.09814 0.227127,0.178421 0.299737,0.178421 0.0726,0 0.18963,0.03088 0.26008,0.0686 0.143727,0.07695 0.560627,-0.03496 0.560627,-0.15048 0,-0.03762 -0.09,-0.158365 -0.19982,-0.268258 -0.19368,-0.193678 -0.321037,-0.533706 -0.293477,-0.783903 0.01,-0.08265 -0.035,-0.122125 -0.13657,-0.122125 -0.10073,0 -0.17456,-0.06518 -0.22477,-0.198193 -0.0411,-0.108986 -0.187657,-0.273227 -0.325517,-0.365031 -0.13785,-0.09178 -0.373897,-0.261695 -0.524637,-0.377572 -0.30371,-0.233477 -1.365936,-1.27537 -1.365936,-1.339764 0,-0.02253 -0.2905,-0.32968 -0.645554,-0.682637 -0.355047,-0.352956 -0.833987,-0.83189 -1.064292,-1.064284 C 95.479399,39.34947 95.1731,39.053612 95.02911,38.924329 94.622064,38.558804 94.211466,38.031483 94.251894,37.92614 c 0.02394,-0.06242 -0.04885,-0.12356 -0.210456,-0.176919 -0.238073,-0.07857 -1.251258,-1.015841 -1.486985,-1.375619 -0.05837,-0.08902 -0.137292,-0.161928 -0.175423,-0.161928 -0.106735,0 -0.771875,-0.707148 -0.908767,-0.966153 -0.08797,-0.166383 -0.165509,-0.22676 -0.279157,-0.217544 -0.317903,0.02575 -0.340104,0.0076 -0.294694,-0.234038 0.05367,-0.286206 0.03698,-0.299487 -0.804763,-0.64106 -0.364644,-0.147973 -0.694399,-0.291186 -0.732786,-0.31828 -0.03836,-0.02708 -0.237866,-0.08465 -0.443279,-0.127992 -0.205413,-0.04331 -0.59797,-0.183998 -0.872367,-0.312685 -0.27439,-0.128695 -0.695165,-0.30494 -0.935053,-0.391614 -0.239915,-0.08665 -0.436201,-0.18507 -0.436201,-0.218768 0,-0.03374 -0.04312,-0.06138 -0.09581,-0.06138 -0.153601,0 -0.741644,-0.27927 -0.741644,-0.352215 0,-0.03658 0.196286,-0.07078 0.436181,-0.07591 11.863032,-0.297596 17.82922,-0.706359 0.820024,-0.371709 -2.044107,0.04199 -2.302629,0.03467 -2.617102,-0.07401 -0.191926,-0.06632 -0.423838,-0.179495 -0.515382,-0.25149 -0.09149,-0.07201 -0.217155,-0.131002 -0.279157,-0.131143 -0.112165,-2.48e-4 -0.582669,-0.221411 -0.915308,-0.430187 -0.09596,-0.06023 -0.362905,-0.182867 -0.593203,-0.272475 -0.230305,-0.08959 -0.467488,-0.202706 -0.526965,-0.251481 -0.05947,-0.04883 -0.247504,-0.13784 -0.417787,-0.197926 -0.170276,-0.06004 -0.38848,-0.181813 -0.484984,-0.270424 -0.0965,-0.08864 -0.430586,-0.262008 -0.742327,-0.385345 -0.458602,-0.181443 -0.599088,-0.273398 -0.73578,-0.481708 -0.116642,-0.177746 -0.21118,-0.250388 -0.305477,-0.234456 -0.07515,0.01266 -0.24649,0.03478 -0.380843,0.04902 -0.134345,0.01435 -0.338475,0.04541 -0.453628,0.06907 -0.172587,0.03554 -0.221632,0.01539 -0.279164,-0.114359 -0.09957,-0.224652 -0.217962,-0.236708 -0.349762,-0.03563 -0.184454,0.281512 0.03967,0.691539 0.654694,1.197465 0.273659,0.225134 0.497658,0.433453 0.497658,0.462897 0,0.07753 0.42795,0.493755 0.953729,0.927437 0.810392,0.668443 0.834139,0.63882 -0.555445,0.694759 -1.422472,0.05728 -4.391475,0.127513 -5.172451,0.122406 -0.698586,-0.0048 -0.804287,-0.08361 -0.690404,-0.517013 0.07753,-0.295202 0.06589,-0.428191 -0.123079,-1.413648 -0.04415,-0.230305 -0.07506,-0.599318 -0.06858,-0.820025 0.0076,-0.243994 -0.01718,-0.401287 -0.0623,-0.401287 -0.0407,0 -0.07399,-0.0952 -0.07399,-0.211549 0,-0.254672 -0.186282,-0.358867 -0.31842,-0.178154 -0.06195,0.08465 -0.07715,0.274689 -0.05043,0.628103 0.03077,0.406538 0.01014,0.582195 -0.104411,0.888313 -0.07857,0.209868 -0.176665,0.552603 -0.218087,0.761549 -0.25094,1.265706 -0.23254,1.216731 -0.460182,1.224588 -3.719176,0.12847 -5.69106,0.159894 -5.86913,0.09368 -0.191921,-0.07144 -0.337004,-0.587345 -0.288153,-1.025037 0.02043,-0.182601 0.08475,-0.677496 0.142993,-1.099722 0.05824,-0.422235 0.138599,-1.025835 0.178421,-1.341406 0.0398,-0.315572 0.122308,-0.65002 0.183333,-0.743145 0.08389,-0.128077 0.09939,-0.256147 0.06366,-0.525468 -0.07268,-0.548071 -0.322184,-0.446577 -0.687815,0.279839 -0.377238,0.749492 -0.570957,1.026909 -1.023259,1.465171 -0.426045,0.412801 -1.046871,0.969687 -1.081054,0.969687 -0.02746,0 -0.760902,0.500311 -0.866101,0.590756 -0.05757,0.04949 -0.450139,0.239034 -0.872363,0.42119 -0.422225,0.182164 -0.846198,0.385145 -0.942155,0.45105 -0.09597,0.06593 -0.347208,0.175066 -0.558321,0.242625 -0.211112,0.06754 -0.578443,0.213754 -0.816205,0.324816 -0.237761,0.111067 -0.504709,0.200272 -0.593217,0.198333 -0.08854,-0.002 -0.396383,0.01323 -0.68426,0.03354 -0.287878,0.02033 -0.74326,0.0341 -1.011945,0.0305 -6.618736,-0.546711 -14.074303,0.763068 -20.044302,-0.05367 -0.0534,-0.03943 -0.134083,-0.172473 -0.434956,-0.717113 -0.07829,-0.141721 -0.255147,-0.343759 -0.393105,-0.448998 -0.137966,-0.105229 -0.387976,-0.401257 -0.555453,-0.65782 -0.167485,-0.256564 -0.408145,-0.549742 -0.534873,-0.651551 -0.375825,-0.301901 -0.892343,-0.756342 -1.198831,-1.054745 -0.325491,-0.316911 -0.661146,-0.558398 -0.867452,-0.623876 -0.07723,-0.02451 -0.17864,-0.09044 -0.225183,-0.146536 -0.04655,-0.05606 -0.144884,-0.101966 -0.218504,-0.101966 -0.135841,0 -0.425883,-0.184178 -0.74533,-0.473395 -0.204975,-0.185575 -0.736932,-0.433862 -0.929614,-0.433862 -0.07325,0 -0.209887,-0.05035 -0.303696,-0.111772 -0.129116,-0.08455 -0.826056,-0.139541 -1.479479,-0.142982 z"
       id="path1108"
       sodipodi:nodetypes="ssssssssssssssscccssssssssssssssssssscsssssssssssssssssssscccccssssssssssssssssscssssssssssssssssssssssssssssscsssssccssccsssscccsssssssssssssssssssssssssssssssssssssssssssssssssssccsscsssssssssssssssssssssssssssssssssssssssssssccsssssssssssss" />
    <path
       style="fill:#000000;fill-opacity:0.913044;stroke-width:0.0697897"
       d="m 47.970627,35.102734 c -0.0532,-0.0028 -0.131016,0.01266 -0.254625,0.04569 -0.186335,0.04969 -0.462413,0.06071 -0.727337,0.02926 -0.234874,-0.02784 -0.643133,-0.02632 -0.907259,0.0038 -0.549494,0.06186 -3.528117,0.246294 -4.876945,0.301919 -2.708826,0.111729 -4.34306,0.205546 -4.850374,0.278614 -0.373943,0.05387 -2.59632,0.05633 -3.419679,0.0038 -0.410282,-0.02613 -0.848516,-0.09582 -0.995727,-0.158253 -0.223208,-0.09462 -0.289094,-0.09739 -0.436182,-0.01871 -0.21286,0.113924 -0.227919,0.363388 -0.03364,0.557637 0.07677,0.07677 0.167829,0.139584 0.202419,0.139584 0.03458,0 0.127781,0.109914 0.207046,0.24426 0.176105,0.298471 0.359056,0.325386 0.355902,0.05235 -9.66e-4,-0.105552 -0.04835,-0.252895 -0.104681,-0.327408 -0.188197,-0.248812 -0.1274,-0.268847 0.647873,-0.213459 1.00768,0.07201 2.364431,0.07705 3.925653,0.01463 0.710111,-0.0284 1.589459,-0.05301 1.954109,-0.05453 0.364652,-0.002 0.835729,-0.03202 1.046842,-0.06773 0.211113,-0.03572 1.357406,-0.09818 2.547316,-0.138753 1.189911,-0.04057 2.493229,-0.101811 2.896264,-0.136039 0.403034,-0.0342 1.054689,-0.08456 1.448127,-0.111912 0.813687,-0.05644 0.845895,-0.03154 0.540868,0.417921 -0.09597,0.141406 -0.174478,0.301111 -0.174478,0.354809 0,0.14033 -0.264724,0.305576 -0.42309,0.264164 -0.122378,-0.03202 -0.131016,-0.0066 -0.0931,0.269616 0.03838,0.28023 0.02157,0.326365 -0.209506,0.571405 -0.138247,0.146594 -0.251348,0.310535 -0.251348,0.36448 0,0.05396 -0.159905,0.436485 -0.355218,0.850017 -0.195314,0.413523 -0.444171,0.940302 -0.553133,1.170607 -0.108957,0.230303 -0.219141,0.528659 -0.244811,0.662997 -0.02564,0.134351 -0.153558,0.469425 -0.284201,0.744648 -0.130637,0.275221 -0.218457,0.550026 -0.19519,0.610658 0.119438,0.311268 0.421057,-0.08389 0.731697,-0.958647 0.441853,-1.244187 0.648283,-1.751195 0.811579,-1.99405 0.0875,-0.130102 0.159039,-0.271422 0.159068,-0.314051 1.43e-4,-0.149995 0.420914,-0.964937 0.627971,-1.216133 0.115217,-0.139766 0.209506,-0.284247 0.209506,-0.321005 0,-0.03677 0.06176,-0.132522 0.137262,-0.212909 0.07553,-0.08037 0.263594,-0.404572 0.417922,-0.720391 0.187579,-0.383852 0.348662,-0.615685 0.486068,-0.699252 0.148609,-0.09034 0.188597,-0.152418 0.144219,-0.224223 -0.02526,-0.04086 -0.05396,-0.06213 -0.107142,-0.06498 z"
       id="path1086" />
    <path
       style="fill:#000000;fill-opacity:0.913044;stroke-width:0.0697897"
       d="m 48.780704,28.220153 c -0.0361,0 -0.08503,0.03144 -0.108775,0.06983 -0.02376,0.03838 0.0057,0.06983 0.06556,0.06983 0.05986,0 0.108902,-0.03145 0.108902,-0.06983 0,-0.03838 -0.02954,-0.06983 -0.06565,-0.06983 z"
       id="path1084" />
  </g>
</svg>
