<?xml version="1.0" encoding="UTF-8" standalone="no"?>
<svg
   xmlns:dc="http://purl.org/dc/elements/1.1/"
   xmlns:cc="http://creativecommons.org/ns#"
   xmlns:rdf="http://www.w3.org/1999/02/22-rdf-syntax-ns#"
   xmlns:svg="http://www.w3.org/2000/svg"
   xmlns="http://www.w3.org/2000/svg"
   xmlns:sodipodi="http://sodipodi.sourceforge.net/DTD/sodipodi-0.dtd"
   xmlns:inkscape="http://www.inkscape.org/namespaces/inkscape"
   version="1.1"
   id="svg84"
   width="210mm"
   height="148mm"
   viewBox="0 0 793.7008 559.37009"
   sodipodi:docname="plateau.svg"
   inkscape:version="1.0.2 (e86c870879, 2021-01-15)">
  <metadata
     id="metadata90">
    <rdf:RDF>
      <cc:Work
         rdf:about="">
        <dc:format>image/svg+xml</dc:format>
        <dc:type
           rdf:resource="http://purl.org/dc/dcmitype/StillImage" />
        <dc:title></dc:title>
      </cc:Work>
    </rdf:RDF>
  </metadata>
  <defs
     id="defs88">
    <clipPath
       clipPathUnits="userSpaceOnUse"
       id="clipPath953">
      <rect
         style="fill:#000000;fill-opacity:1;stroke:#000000;stroke-width:1.00277"
         id="rect955"
         width="1672.0341"
         height="2418.562"
         x="107.98775"
         y="30.600622" />
    </clipPath>
  </defs>
  <sodipodi:namedview
     pagecolor="#ffffff"
     bordercolor="#666666"
     borderopacity="1"
     objecttolerance="10"
     gridtolerance="10"
     guidetolerance="10"
     inkscape:pageopacity="0"
     inkscape:pageshadow="2"
     inkscape:window-width="1333"
     inkscape:window-height="856"
     id="namedview86"
     showgrid="false"
     inkscape:zoom="1.0139384"
     inkscape:cx="287.80947"
     inkscape:cy="261.49887"
     inkscape:window-x="0"
     inkscape:window-y="0"
     inkscape:window-maximized="1"
     inkscape:current-layer="g92"
     units="mm" />
  <g
     inkscape:groupmode="layer"
     inkscape:label="Image"
     id="g92">
    <path
       style="fill:#000000;fill-opacity:0.913044;stroke-width:0.277637"
       d="m 424.74074,482.67283 c -0.28325,0.003 -0.64295,0.0473 -1.1447,0.12744 -0.86459,0.13809 -2.7589,0.28666 -4.20955,0.33077 -2.83864,0.0863 -9.15399,0.66863 -9.48738,0.87467 -0.29521,0.18246 -7.2747,0.4998 -9.38812,0.42675 -1.99093,-0.0688 -4.16835,0.44525 -4.16835,0.9842 0,0.26881 0.86271,0.31178 3.81751,0.18924 2.09962,-0.0871 4.87946,-0.18022 6.17741,-0.20659 1.29796,-0.0264 3.40472,-0.20937 4.68187,-0.40616 1.27719,-0.19693 2.4888,-0.2939 2.6923,-0.21581 0.20354,0.0781 1.03226,0.0119 1.84207,-0.1475 1.53127,-0.30124 3.61533,-0.50547 5.13031,-0.50214 0.48478,0 0.96054,-0.12635 1.0574,-0.28305 0.0968,-0.15672 1.19973,-0.28732 2.45048,-0.29066 2.24519,-0.006 2.26601,-0.013 1.62515,-0.50593 -0.34533,-0.26559 -0.60431,-0.37923 -1.0764,-0.37523 z"
       id="path1680" />
    <path
       style="fill:#000000;fill-opacity:0.913044;stroke-width:0.277637"
       d="m 422.97677,480.91211 c -0.17085,0 -0.35862,0.0219 -0.55091,0.0721 -0.59992,0.15689 -0.60355,0.17727 -0.10142,0.54444 0.58501,0.42776 1.26605,0.38658 1.42344,-0.0862 0.1047,-0.31448 -0.25845,-0.52809 -0.77111,-0.53032 z"
       id="path1678" />
    <path
       style="fill:#000000;fill-opacity:0.913044;stroke-width:0.277637"
       d="m 201.91347,479.54128 c -0.39865,0.0164 -1.07638,0.66022 -0.89961,0.94624 0.10065,0.16287 0.29603,0.29608 0.43435,0.29608 0.34542,0 0.87812,-1.04583 0.61546,-1.20817 -0.0422,-0.0261 -0.0933,-0.0365 -0.1502,-0.0342 z"
       id="path1676" />
    <path
       style="fill:#000000;fill-opacity:0.913044;stroke-width:0.277637"
       d="m 240.3271,471.06631 c -0.37491,0 -0.63478,0.50591 -0.43001,0.83724 0.0959,0.1552 0.29057,0.2104 0.43272,0.12255 0.33722,-0.20842 0.33512,-0.95979 -0.003,-0.95979 z"
       id="path1664" />
    <path
       style="fill:#000000;fill-opacity:0.913044;stroke-width:0.277637"
       d="m 339.91678,465.28039 c -0.0951,0.003 -0.1946,0.005 -0.29878,0.0108 -1.40583,0.0813 -1.4424,0.10567 -1.52809,0.99669 -0.0729,0.75764 -0.22575,0.94027 -0.89798,1.07473 -0.44551,0.0891 -0.73945,0.27636 -0.65288,0.41646 0.0866,0.14006 1.1695,0.21877 2.406,0.17463 2.2208,-0.0793 2.25087,-0.0903 2.46294,-0.88608 0.34593,-1.29803 -0.065,-1.808 -1.49121,-1.78728 z"
       id="path1662" />
    <path
       style="fill:#000000;fill-opacity:0.913044;stroke-width:0.277637"
       d="m 296.89178,465.04995 c -1.17931,0 -1.88652,0.0511 -1.88652,0.16159 0,0.41804 1.42504,0.65186 4.49153,0.73749 1.63048,0.0454 3.41278,0.20645 3.9612,0.35787 0.61288,0.16916 1.33198,0.17955 1.86537,0.0267 0.49416,-0.14173 1.35846,-0.14687 2.00745,-0.0119 0.62684,0.13033 2.07685,0.25518 3.2221,0.27711 1.14525,0.0219 3.08177,0.20101 4.30337,0.39802 1.25895,0.20301 3.50139,0.3096 5.17695,0.24566 1.68119,-0.0642 3.1806,0.007 3.47642,0.16538 0.28608,0.15312 1.70412,0.31437 3.15161,0.35843 1.53677,0.0468 2.85625,0.22772 3.17113,0.43489 0.67511,0.44419 4.8891,0.25984 5.78645,-0.25323 0.53507,-0.3059 0.21716,-0.37548 -2.43854,-0.53359 -1.6797,-0.1 -4.80312,-0.34185 -6.94092,-0.53739 -2.1378,-0.19551 -5.13628,-0.38606 -6.66328,-0.42295 -1.527,-0.0369 -4.0882,-0.20426 -5.69155,-0.37198 -5.67007,-0.59309 -13.45487,-1.03459 -16.99277,-1.03192 z"
       id="path1660" />
    <path
       style="fill:#000000;fill-opacity:0.913044;stroke-width:0.277637"
       d="m 282.78924,464.33199 c -0.53445,-0.0122 -2.22109,0.0541 -3.74809,0.14695 -1.527,0.0928 -4.24437,0.1763 -6.0386,0.18546 -2.6216,0.0133 -3.26223,0.0933 -3.26223,0.4094 0,0.21631 0.15203,0.44436 0.33837,0.50647 0.59314,0.1977 9.45635,-0.0547 11.04473,-0.31451 0.83985,-0.13737 1.62517,-0.19026 1.74554,-0.11713 0.19126,0.11619 3.95809,0.30368 9.19237,0.45713 0.93503,0.0275 1.82819,-0.0971 2.08228,-0.29066 0.50357,-0.38356 0.58503,-0.35971 -1.7759,-0.5249 -1.61463,-0.11297 -8.15699,-0.42601 -9.57847,-0.45821 z"
       id="path1658" />
    <path
       style="fill:#000000;fill-opacity:0.913044;stroke-width:0.277637"
       d="m 607.88496,454.96339 c -0.1437,0 -0.26081,0.12493 -0.26081,0.27763 0,0.1527 0.19468,0.27764 0.43272,0.27764 0.23822,0 0.35574,-0.12494 0.26137,-0.27764 -0.0944,-0.1527 -0.2896,-0.27763 -0.43328,-0.27763 z"
       id="path1656" />
    <path
       style="fill:#000000;fill-opacity:0.913044;stroke-width:0.277637"
       d="m 594.18967,454.79203 c -0.0996,0.004 -0.16972,0.11536 -0.16972,0.29391 0,0.23804 0.12494,0.43272 0.27764,0.43272 0.1527,0 0.27764,-0.11766 0.27764,-0.26137 0,-0.14367 -0.12494,-0.33835 -0.27764,-0.43272 -0.0382,-0.0236 -0.0747,-0.034 -0.10792,-0.0325 z"
       id="path1654" />
    <path
       style="fill:#000000;fill-opacity:0.913044;stroke-width:0.277637"
       d="m 442.67487,447.27199 c -0.0989,0 -0.1927,0.0316 -0.27058,0.10953 -0.16897,0.16897 -0.2238,0.56962 -0.12199,0.89038 0.21747,0.68529 0.92536,0.77349 1.1664,0.14534 0.18682,-0.48686 -0.34504,-1.14003 -0.77383,-1.14525 z"
       id="path1650" />
    <path
       style="fill:#000000;fill-opacity:0.913044;stroke-width:0.277637"
       d="m 552.84133,431.08772 c -0.37631,0.007 -0.99097,0.26025 -1.59317,0.70494 -0.52595,0.38836 -2.20535,1.37258 -3.73235,2.18692 -2.52097,1.34443 -3.73488,1.86883 -8.05146,3.48023 -0.7635,0.28502 -2.22212,0.84199 -3.24108,1.23743 -1.01895,0.39543 -2.64313,0.91439 -3.60927,1.15338 -0.96615,0.23896 -2.88082,0.80876 -4.25512,1.26564 -3.7989,1.26297 -4.1382,1.35348 -5.05712,1.35348 -1.38713,0 -10.40941,2.76281 -13.78205,4.22041 -1.04664,0.45232 -2.60835,1.00324 -3.47046,1.2244 -0.86215,0.22117 -1.94193,0.57532 -2.40003,0.78682 -1.24384,0.57427 -4.02049,1.55713 -5.23498,1.8529 -0.58867,0.14334 -1.40076,0.4245 -1.80464,0.62523 -0.40391,0.20076 -1.54044,0.58573 -2.5253,0.85515 -0.98486,0.26945 -2.0594,0.6663 -2.38809,0.88169 -0.3287,0.21537 -1.20966,0.56502 -1.95756,0.77708 -2.04174,0.5789 -3.80771,1.26961 -4.27464,1.67179 -0.22905,0.19729 -0.72879,0.42884 -1.11054,0.5146 -2.20613,0.49558 -3.34083,0.84932 -4.58101,1.4283 -2.92332,1.36478 -5.85808,2.62797 -6.52446,2.80835 -0.38175,0.10331 -1.88918,0.86034 -3.34955,1.68209 -1.46037,0.82172 -2.80204,1.49394 -2.98131,1.49394 -0.17927,0 -2.23256,0.79942 -4.56313,1.77643 -2.33057,0.977 -5.4241,2.21906 -6.87476,2.76009 -5.91652,2.2066 -6.8582,2.60929 -16.10292,6.89158 -1.29795,0.60123 -2.54732,1.21272 -2.77637,1.3589 -0.22905,0.14617 -0.7288,0.40507 -1.11055,0.57534 -1.39901,0.62394 -2.92584,1.44374 -3.33164,1.78893 -0.22905,0.19484 -1.47841,0.78607 -2.77636,1.31333 -3.44689,1.40023 -3.88692,1.6312 -3.88692,2.04268 0,0.41552 0.86284,0.49312 1.60022,0.14371 0.26514,-0.12563 1.66896,-0.79968 3.11961,-1.49771 1.45065,-0.69801 3.13729,-1.48364 3.74809,-1.74609 3.03282,-1.30314 6.45594,-3.07904 7.04775,-3.65589 0.3644,-0.35521 0.92662,-0.64639 1.24937,-0.64639 0.51957,0 2.32326,-0.84327 5.8591,-2.73839 0.60806,-0.32589 1.33594,-0.5927 1.61754,-0.5927 0.48118,0 3.13652,-0.95393 5.09075,-1.82904 0.4812,-0.21547 1.0139,-0.39205 1.18376,-0.39205 0.16986,0 0.52598,-0.11847 0.79115,-0.26301 0.26515,-0.14456 1.16921,-0.47448 2.00906,-0.73368 0.83986,-0.25923 1.77346,-0.64103 2.07467,-0.84807 0.30121,-0.20703 0.79077,-0.37633 1.08834,-0.37633 0.29757,0 0.73823,-0.17411 0.97931,-0.38664 0.24107,-0.21253 1.31325,-0.73171 2.38215,-1.15391 1.0689,-0.42221 3.39541,-1.49749 5.17042,-2.38976 1.77499,-0.89227 3.39917,-1.62406 3.60928,-1.62406 0.21009,0 0.75712,-0.25024 1.21522,-0.55364 0.4581,-0.3034 1.03605,-0.55366 1.28459,-0.55366 0.24852,0 0.60758,-0.18902 0.79768,-0.41807 0.1901,-0.22905 0.54861,-0.41809 0.79712,-0.41809 0.24854,0 0.77819,-0.17216 1.17671,-0.38011 0.39855,-0.20795 1.58278,-0.65514 2.63158,-0.99397 1.0488,-0.33883 2.40167,-0.85529 3.00628,-1.14742 0.60461,-0.2921 1.23693,-0.53087 1.40498,-0.53087 0.16808,0 0.79568,-0.24987 1.39471,-0.55527 0.59903,-0.3054 1.29792,-0.55527 1.55357,-0.55527 0.25567,0 0.82283,-0.18671 1.26022,-0.41485 0.43739,-0.2281 1.02248,-0.41645 1.30031,-0.41645 0.27786,0 1.41742,-0.38123 2.53235,-0.84538 1.11491,-0.46412 2.63647,-0.89052 3.38153,-0.94732 0.74504,-0.0568 1.43408,-0.11436 1.53081,-0.12797 0.0967,-0.0133 0.2351,-0.25098 0.30745,-0.52762 0.097,-0.37086 1.27238,-0.88224 4.47637,-1.94778 2.38975,-0.79477 5.0624,-1.76802 5.93934,-2.1631 2.45997,-1.10819 2.62169,-1.16963 3.95471,-1.50312 0.68715,-0.17195 1.87405,-0.49339 2.63755,-0.71417 4.22335,-1.22138 6.37123,-1.77535 6.88289,-1.77535 0.6017,0 0.90351,-0.086 4.50021,-1.28515 1.22161,-0.40729 2.65837,-0.8373 3.19283,-0.95493 1.56029,-0.34344 5.56961,-1.80061 7.11985,-2.58766 0.78568,-0.39885 1.67162,-0.72499 1.96894,-0.72499 0.67427,0 5.88562,-2.1463 6.48054,-2.66901 0.24107,-0.2118 0.56919,-0.38499 0.72935,-0.38499 0.16014,0 0.43853,-0.17766 0.61872,-0.39478 0.18018,-0.21711 0.81989,-0.47809 1.42125,-0.57967 0.71633,-0.12102 1.30892,-0.4515 1.71896,-0.95871 0.34421,-0.42584 0.90742,-0.91889 1.251,-1.09592 0.34358,-0.17704 0.62468,-0.44263 0.62468,-0.58997 0,-0.18596 -0.14023,-0.27081 -0.36603,-0.26678 z"
       id="path1638" />
    <path
       style="fill:#000000;fill-opacity:0.913044;stroke-width:0.277637"
       d="m 581.87063,415.6778 0.40671,0.95979 c 0.35834,0.84282 0.35818,1.06329 0,1.81441 -0.33383,0.70003 -0.3591,1.33135 -0.13829,3.48237 0.27133,2.64329 0.88535,7.01943 1.08453,7.72937 v 0 c 0.0589,0.20998 -0.0494,0.43923 -0.24024,0.50919 -0.40721,0.14931 -0.38689,0.18846 -0.48314,-0.95113 -0.0415,-0.49108 -0.36249,-1.4281 -0.71309,-2.08227 -0.58459,-1.09081 -0.63825,-1.54599 -0.648,-5.49254 -0.008,-3.01422 0.10089,-4.55288 0.36115,-5.13628 z"
       id="path1634" />
    <path
       style="fill:#000000;fill-opacity:0.913044;stroke-width:0.277637"
       d="m 581.5225,414.42843 c -0.49567,0 -0.54997,0.26379 -1.08723,5.2751 -0.12277,1.14525 -0.44158,2.61545 -0.70872,3.26712 -0.38497,0.93902 -0.46249,1.76416 -0.37361,3.97692 l 0.11224,2.79208 -1.81549,-0.12524 c -0.99841,-0.0689 -2.93937,-0.21039 -4.31367,-0.31398 -4.03253,-0.30393 -13.37928,-0.58121 -16.33881,-0.48478 -2.54209,0.0828 -2.72431,0.12699 -2.59418,0.62468 0.077,0.29443 0.0272,0.60533 -0.11116,0.69084 -0.38534,0.23816 -0.29924,0.67783 0.13287,0.67783 0.21159,0 0.69729,-0.16198 1.07909,-0.36007 0.39139,-0.20306 1.34349,-0.32475 2.18314,-0.27925 0.81909,0.0444 2.80141,0.1426 4.40477,0.21853 1.60335,0.076 3.41493,0.20181 4.02573,0.2798 0.6108,0.078 3.29693,0.20909 5.96919,0.29119 8.10624,0.24901 8.00545,0.24032 8.52322,0.75808 0.6181,0.61811 0.83019,0.60453 1.19406,-0.0754 0.16733,-0.31265 0.58115,-0.55528 0.94732,-0.55528 1.18809,0 1.37808,-0.60116 0.8519,-2.69665 -0.2602,-1.03626 -0.51332,-2.82138 -0.56232,-3.96663 -0.049,-1.14525 -0.21134,-2.7039 -0.36115,-3.46396 -0.18685,-0.94793 -0.17938,-1.55612 0.0239,-1.93585 0.67154,-1.25478 -0.1871,-4.59511 -1.18104,-4.59511 z"
       id="path1628" />
    <path
       style="fill:#000000;fill-opacity:0.913044;stroke-width:0.277637"
       d="m 527.6252,339.18887 c -0.3747,0 -0.27817,0.73201 0.14262,1.08125 0.20945,0.17383 0.44502,0.88375 0.52326,1.57798 0.0783,0.6942 0.38722,1.53564 0.68707,1.86972 0.54258,0.60447 0.94416,1.4971 2.19505,4.88249 0.36098,0.977 0.7966,1.94526 0.96792,2.15168 0.17133,0.20642 0.53243,0.37525 0.80257,0.37525 0.6806,0 0.98353,-1.31188 0.44139,-1.91091 -0.22783,-0.25176 -0.55025,-1.0661 -0.71686,-1.80953 -0.16661,-0.74343 -0.62155,-2.02511 -1.01079,-2.84794 -0.72622,-1.53508 -3.60573,-5.36999 -4.03223,-5.36999 z"
       id="path1606" />
    <path
       style="fill:#000000;fill-opacity:0.913044;stroke-width:0.277637"
       d="m 539.91062,339.08151 c -0.24118,0.0413 -0.55166,0.54244 -0.88658,1.49554 -0.29512,0.83985 -0.72296,1.9205 -0.9506,2.40167 -0.22763,0.4812 -0.4159,1.10588 -0.4159,1.38818 0,0.28233 -0.19862,0.88833 -0.43977,1.34643 -0.61677,1.17157 -0.30388,5.09685 0.48639,6.10151 0.60391,0.76775 0.7369,0.81247 1.32149,0.44247 0.33469,-0.21184 0.29993,-0.56799 -0.22882,-2.34906 -0.34277,-1.15463 -0.53959,-2.23456 -0.43762,-2.3995 0.10195,-0.16497 0.29163,-0.94866 0.42135,-1.74173 0.40271,-2.46183 0.60291,-3.09031 1.1523,-3.61741 0.40546,-0.38899 0.51171,-0.817 0.44791,-1.80464 -0.0573,-0.88596 -0.22897,-1.30478 -0.47015,-1.26346 z"
       id="path1604" />
    <path
       style="fill:#000000;fill-opacity:0.913044;stroke-width:0.277637"
       d="m 335.45941,291.78185 c 0.0511,0.0239 0.0815,0.37584 0.0824,1.06501 10e-4,0.75637 0.2134,1.54522 0.55364,2.05896 0.30339,0.4581 0.552,0.92661 0.55311,1.04114 0.004,0.43394 -0.53412,0.18149 -1.07313,-0.50378 -0.46028,-0.58512 -0.53153,-0.96895 -0.39802,-2.15168 0.11623,-1.02962 0.21633,-1.54047 0.28197,-1.50965 z"
       id="path1582" />
    <path
       style="fill:#000000;fill-opacity:0.913044;stroke-width:0.277637"
       d="m 337.66369,290.9636 c 0.12813,-0.003 0.28619,0.0264 0.49346,0.0688 1.49448,0.30649 2.78542,1.07282 3.16896,1.8811 0.44622,0.94036 0.23154,2.01145 -0.47935,2.3919 -0.77243,0.4134 -2.59263,0.59484 -3.2297,0.32211 -0.30812,-0.1319 -0.73794,-0.57235 -0.95546,-0.97878 -0.35016,-0.6543 -0.33624,-0.91367 0.12309,-2.26501 0.37801,-1.11208 0.49462,-1.41156 0.879,-1.42017 z"
       id="path1580" />
    <path
       style="fill:#000000;fill-opacity:0.913044;stroke-width:0.277637"
       d="m 429.14444,288.15578 c -0.52617,0.0103 -0.43911,0.35348 0.55039,0.88172 2.62245,1.39992 5.15744,3.25942 6.33739,4.64824 1.80606,2.12576 3.57893,4.83566 4.61191,7.05045 0.49852,1.0689 1.00016,2.03716 1.11488,2.15168 0.33805,0.33753 0.95473,0.23844 1.11487,-0.17893 0.17991,-0.46877 -1.4569,-3.78242 -3.09573,-6.26746 -2.82548,-4.2844 -5.35642,-6.48803 -9.08666,-7.91264 -0.69473,-0.26531 -1.23134,-0.37925 -1.54705,-0.37306 z"
       id="path1578" />
    <path
       style="fill:#000000;fill-opacity:0.913044;stroke-width:0.277637"
       d="m 452.3873,285.67493 c -0.65928,-0.0457 -1.73906,0.70089 -2.59907,1.87243 -0.53228,0.72514 -1.208,1.49069 -1.50151,1.70106 -1.45921,1.04583 -3.30194,7.93083 -2.80186,10.46779 0.40349,2.04693 0.79288,3.18352 1.17402,3.42545 0.49194,0.31223 0.98078,0.28558 1.19783,-0.0656 0.10126,-0.16381 -0.15831,-1.06008 -0.57643,-1.99171 -0.74812,-1.66707 -0.7545,-1.73173 -0.42131,-4.07507 0.60114,-4.22788 1.72704,-6.42801 4.87977,-9.5351 0.99619,-0.98178 1.26183,-1.40445 1.02975,-1.63653 -0.0994,-0.0995 -0.22907,-0.15212 -0.38119,-0.16269 z"
       id="path1576" />
    <path
       style="fill:#000000;fill-opacity:0.913044;stroke-width:0.277637"
       d="m 540.31733,281.1628 c -0.49697,0 -1.0483,1.58592 -0.75756,2.17934 0.12355,0.25215 0.24932,0.88166 0.2798,1.39904 0.0305,0.5174 0.12205,1.04838 0.20337,1.17995 0.24882,0.40258 0.95527,0.26595 1.142,-0.22072 0.11411,-0.29735 -0.059,-0.65019 -0.49022,-0.99938 l -0.66644,-0.53953 0.76839,-0.66155 c 0.74462,-0.64051 0.75528,-0.68787 0.33566,-1.49935 -0.23832,-0.46082 -0.6048,-0.8378 -0.815,-0.8378 z"
       id="path1574" />
    <path
       style="fill:#000000;fill-opacity:0.913044;stroke-width:0.277637"
       d="m 470.515,280.89491 c -0.74093,0.033 -1.43155,1.06513 -1.43155,2.4635 0,0.82669 0.15526,1.2133 0.61708,1.53677 0.71241,0.49897 0.77677,0.50786 1.29709,0.17839 0.26284,-0.16642 0.33283,-0.51849 0.21744,-1.09536 -0.0935,-0.46766 -0.0496,-0.92492 0.0981,-1.01618 0.37625,-0.23255 0.33516,-1.34424 -0.0645,-1.74392 -0.23443,-0.23444 -0.48669,-0.33419 -0.73368,-0.3232 z"
       id="path1570" />
    <path
       style="fill:#000000;fill-opacity:0.913044;stroke-width:0.277637"
       d="m 567.12823,280.74743 c -0.0244,-0.003 -0.0467,0.003 -0.0667,0.0158 -0.1585,0.0979 -0.22666,0.33805 -0.15184,0.53306 0.0748,0.19498 6e-5,0.49011 -0.16594,0.65611 -0.30457,0.30457 -0.34519,2.37649 -0.0558,2.84469 0.36331,0.58784 0.86323,0.17003 1.17018,-0.97767 0.27133,-1.01451 0.25579,-1.40564 -0.0894,-2.23195 -0.20279,-0.48525 -0.47002,-0.82799 -0.64043,-0.83996 z"
       id="path1568" />
    <path
       style="fill:#000000;fill-opacity:0.913044;stroke-width:0.277637"
       d="m 356.99307,276.75043 c -0.11153,-0.003 -0.25176,0.006 -0.42405,0.0222 -0.70814,0.0683 -0.92045,0.22871 -0.99451,0.75264 -0.0518,0.36637 0.0624,0.95896 0.25378,1.31661 0.26894,0.50252 0.27477,0.8117 0.0249,1.36 -0.17781,0.39025 -0.32319,0.82836 -0.32319,0.9739 0,0.30992 1.38733,0.34935 1.83229,0.0521 0.16792,-0.11219 0.37826,-0.9293 0.46743,-1.81602 0.1286,-1.27876 0.0762,-1.64505 -0.25215,-1.77104 -0.22769,-0.0874 -0.34539,-0.33794 -0.26137,-0.55689 0.0877,-0.2286 0.0114,-0.32675 -0.32319,-0.33349 z"
       id="path1564" />
    <path
       style="fill:#000000;fill-opacity:0.913044;stroke-width:0.277637"
       d="m 304.93294,271.3002 c 0.31298,-0.003 0.65804,0.004 1.03896,0.0158 2.3214,0.0739 2.53694,0.13066 3.03991,0.80037 0.30226,0.40246 0.54117,1.16111 0.54117,1.71735 0,1.1116 -0.51885,1.64172 -2.56054,2.61475 -0.66022,0.31465 -1.53478,0.62546 -1.94346,0.69085 -0.78028,0.12477 -3.07774,-0.76786 -3.43901,-1.33613 -0.30618,-0.48161 -0.26599,-1.49963 0.10791,-2.74763 0.40132,-1.33949 1.02413,-1.74078 3.21506,-1.75527 z"
       id="path1560" />
    <path
       style="fill:#000000;fill-opacity:0.913044;stroke-width:0.277637"
       d="m 301.53948,270.33497 c 0.61909,0 0.48703,0.69465 -0.31234,1.64467 -0.87607,1.04113 -1.30644,1.10605 -0.93974,0.14154 0.48916,-1.2866 0.83929,-1.78621 1.25208,-1.78621 z"
       id="path1558" />
    <path
       style="fill:#000000;fill-opacity:0.913044;stroke-width:0.277637"
       d="m 562.9832,267.3162 c -0.0476,0.009 -0.0222,0.13299 0.0737,0.38122 0.11797,0.30541 0.30748,0.99256 0.42081,1.52701 0.11333,0.53445 0.41529,1.53394 0.6713,2.22109 0.25601,0.68715 0.65983,1.87405 0.89691,2.63755 0.2371,0.7635 0.65558,2.07533 0.92997,2.91518 0.27439,0.83985 0.58115,1.88863 0.68218,2.33062 0.12288,0.53737 0.27628,0.71173 0.46254,0.52546 0.18624,-0.18624 0.0494,-1.09675 -0.4132,-2.74763 -0.38048,-1.35773 -0.77861,-3.02769 -0.88444,-3.71123 -0.18871,-1.21882 -2.07081,-5.42416 -2.67387,-5.97407 -0.0821,-0.0749 -0.13734,-0.1107 -0.16594,-0.1052 z"
       id="path1556" />
    <path
       style="fill:#000000;fill-opacity:0.913044;stroke-width:0.277637"
       d="m 389.00045,254.00377 c -0.31368,0.009 -0.40736,0.6306 -0.55419,3.33761 -0.31204,5.75288 -0.41437,6.49734 -1.11271,8.07643 -0.44674,1.01015 -1.14987,1.93504 -2.07957,2.73569 -0.77259,0.66535 -1.40491,1.42841 -1.40499,1.69564 -7e-5,0.26722 0.12858,0.48586 0.28577,0.48586 0.3992,0 3.13247,-2.18467 3.42545,-2.73786 0.13254,-0.25026 0.55845,-0.92742 0.94624,-1.50479 0.57723,-0.85939 0.71905,-1.43838 0.78248,-3.19282 0.0426,-1.17868 0.22608,-2.70521 0.40778,-3.39236 0.58028,-2.1945 0.22018,-5.33351 -0.63065,-5.49743 -0.023,-0.004 -0.0447,-0.007 -0.0656,-0.006 z"
       id="path1550" />
    <path
       style="fill:#000000;fill-opacity:0.913044;stroke-width:0.277637"
       d="m 394.08305,251.45571 c -0.48812,0 -0.66998,0.34441 -0.51352,0.97173 0.0381,0.1527 0.0963,1.527 0.1296,3.054 0.0748,3.43289 0.35744,5.92193 0.89852,7.91264 0.22827,0.83985 0.50749,2.06035 0.62035,2.71238 0.22094,1.27654 0.9071,2.17247 2.637,3.4428 1.17624,0.86378 1.89674,0.92475 2.04161,0.17244 0.0574,-0.29796 -0.30759,-0.71902 -1.00427,-1.1588 -0.60196,-0.38 -1.35024,-1.10505 -1.66256,-1.61107 -1.05028,-1.70166 -1.94796,-6.46843 -2.43529,-12.92798 -0.1698,-2.25078 -0.25813,-2.56814 -0.71144,-2.56814 z"
       id="path1548" />
    <path
       style="fill:#000000;fill-opacity:0.913044;stroke-width:0.277637"
       d="m 322.18057,248.95698 c 0.1527,0 0.35516,0.12493 0.44954,0.27763 0.0944,0.1527 0.0464,0.27764 -0.10629,0.27764 -0.1527,0 -0.35461,-0.12494 -0.44899,-0.27764 -0.0944,-0.1527 -0.047,-0.27763 0.10574,-0.27763 z"
       id="path1546" />
    <path
       style="fill:#000000;fill-opacity:0.913044;stroke-width:0.277637"
       d="m 488.98761,244.00616 c -0.0398,-1.7e-4 -0.081,0.004 -0.12363,0.0131 -0.30043,0.0621 -0.4546,0.30798 -0.40507,0.64531 0.16816,1.14528 0.35451,3.97087 0.41373,6.27501 0.0472,1.83587 -0.0399,2.52008 -0.37145,2.91518 -0.23824,0.28397 -0.6495,1.23062 -0.9137,2.10343 -0.2642,0.87284 -0.60014,1.66093 -0.74667,1.7515 -0.37412,0.23122 -0.3317,1.06626 0.0748,1.47278 0.50935,0.50935 1.14878,0.27053 1.36866,-0.51082 0.107,-0.38028 0.35085,-1.25359 0.54173,-1.94074 0.19087,-0.68715 0.43295,-1.3743 0.53792,-1.527 0.105,-0.1527 0.40485,-0.93394 0.66644,-1.73579 0.36578,-1.12123 0.41645,-1.73464 0.21961,-2.65759 -0.14079,-0.66003 -0.28413,-2.17384 -0.31887,-3.36365 -0.0705,-2.41411 -0.3469,-3.43828 -0.94352,-3.44061 z"
       id="path1544" />
    <path
       style="fill:#000000;fill-opacity:0.913044;stroke-width:0.277637"
       d="m 494.68622,243.12661 c -0.12902,0 -0.52202,0.99521 -0.87359,2.21187 -0.58514,2.02511 -0.61443,2.42161 -0.34649,4.68784 0.29619,2.50492 1.28835,5.38046 2.30081,6.66761 0.28849,0.36673 0.5249,0.81276 0.5249,0.99069 0,0.17791 0.1497,0.47346 0.33294,0.6567 0.36123,0.36123 2.16748,0.46521 2.1647,0.12471 0,-0.11452 -0.4295,-0.89538 -0.95276,-1.73523 -2.25738,-3.62318 -2.59963,-4.36261 -2.89728,-6.25712 -0.22408,-1.42525 -0.21958,-2.52219 0.0172,-4.17485 0.30971,-2.16035 0.22333,-3.17222 -0.27058,-3.17222 z"
       id="path1542" />
    <path
       style="fill:#000000;fill-opacity:0.913044;stroke-width:0.277637"
       d="m 322.45062,242.84897 c 0.32066,0 0.30075,0.1145 -0.0982,0.55527 -0.51618,0.57038 -0.97173,0.72636 -0.97173,0.33295 0,-0.36149 0.63441,-0.88822 1.06988,-0.88822 z"
       id="path1540" />
    <path
       style="fill:#000000;fill-opacity:0.913044;stroke-width:0.277637"
       d="m 277.40895,242.58813 c 0.18836,-0.0261 0.52459,0.1527 0.97661,0.52926 0.69822,0.58168 0.49671,0.68859 -0.52437,0.27816 -0.34357,-0.13809 -0.62468,-0.37975 -0.62468,-0.53736 0,-0.16472 0.0594,-0.2544 0.17244,-0.27006 z"
       id="path1538" />
    <path
       style="fill:#000000;fill-opacity:0.913044;stroke-width:0.277637"
       d="m 328.56947,241.97158 c 0.70707,-0.0139 1.28316,0.0936 1.44729,0.34111 0.2837,0.42778 0.0712,2.60601 -0.32698,3.35007 -0.28062,0.52437 -2.63102,2.52497 -3.4504,2.93687 -0.3054,0.15353 -0.96899,0.35746 -1.4744,0.45333 -0.75485,0.14317 -1.03523,0.0492 -1.5693,-0.52707 -0.80954,-0.8735 -1.06155,-1.82243 -0.72175,-2.71617 0.35755,-0.94039 2.02936,-2.56551 3.31429,-3.22103 0.74633,-0.38075 1.87216,-0.59917 2.78125,-0.61711 z"
       id="path1536" />
    <path
       style="fill:#000000;fill-opacity:0.913044;stroke-width:0.277637"
       d="m 328.59929,240.62788 c 0.1527,0 0.27764,0.12493 0.27764,0.27763 0,0.1527 -0.12494,0.27764 -0.27764,0.27764 -0.1527,0 -0.27763,-0.12494 -0.27763,-0.27764 0,-0.1527 0.12493,-0.27763 0.27763,-0.27763 z"
       id="path1534" />
    <path
       style="fill:#000000;fill-opacity:0.913044;stroke-width:0.277637"
       d="m 266.38645,238.59549 c 0.0145,0.004 0.0222,0.0158 0.0222,0.0358 0,0.16025 -0.42109,0.73765 -0.9354,1.28299 -0.60181,0.63809 -1.17081,0.98008 -1.59641,0.95926 -0.50976,-0.0247 -0.54429,-0.0628 -0.15075,-0.16431 0.2808,-0.0725 0.99918,-0.63503 1.59641,-1.25044 0.52258,-0.53851 0.96222,-0.89094 1.06391,-0.86329 z"
       id="path1532" />
    <path
       style="fill:#000000;fill-opacity:0.913044;stroke-width:0.277637"
       d="m 257.88708,237.22627 c 0.0311,-0.0158 0.0805,0.24385 0.17298,0.80962 0.10392,0.63576 0.35033,1.34951 0.54714,1.58664 0.1968,0.23713 0.30104,0.59189 0.23208,0.7879 -0.19558,0.55594 -1.04152,-1.69008 -1.00263,-2.66195 0.0132,-0.33058 0.0262,-0.50988 0.0504,-0.52221 z"
       id="path1530" />
    <path
       style="fill:#000000;fill-opacity:0.913044;stroke-width:0.277637"
       d="m 329.95277,237.14548 c 0.0437,0.007 0.0971,0.0214 0.15888,0.045 0.23699,0.091 0.4311,0.21436 0.4311,0.27438 0,0.22486 -0.52942,0.0984 -0.69246,-0.16538 -0.073,-0.11806 -0.0285,-0.17353 0.10248,-0.15401 z"
       id="path1528" />
    <path
       style="fill:#000000;fill-opacity:0.913044;stroke-width:0.277637"
       d="m 298.47571,235.31102 c 0.14507,0 0.30806,0.13466 0.36278,0.2988 0.0547,0.16416 -0.10827,0.29823 -0.36278,0.29823 -0.2545,0 -0.41803,-0.13407 -0.36331,-0.29823 0.0547,-0.16414 0.21825,-0.2988 0.36331,-0.2988 z"
       id="path1522" />
    <path
       style="fill:#000000;fill-opacity:0.913044;stroke-width:0.277637"
       d="m 336.80801,234.97536 c 0.0794,-0.0197 0.12038,0.023 0.12038,0.12852 0,0.23646 -0.28916,0.70153 -0.64258,1.03356 -0.60081,0.56443 -1.02324,0.7635 -1.02324,0.48206 0,-0.0669 0.37481,-0.53201 0.83291,-1.03356 0.3403,-0.37259 0.58017,-0.5779 0.71253,-0.61058 z"
       id="path1520" />
    <path
       style="fill:#000000;fill-opacity:0.913044;stroke-width:0.277637"
       d="m 291.12268,234.60338 c 0.13298,0.003 0.24777,0.058 0.35518,0.16539 0.16852,0.16853 0.52422,0.30637 0.79007,0.30637 0.26585,0 0.56068,0.12494 0.65505,0.27764 0.0944,0.1527 0.0704,0.25865 -0.0531,0.23588 -0.12354,-0.0228 -0.5993,-0.0907 -1.05741,-0.15076 -1.45943,-0.19126 -1.74016,-0.3582 -1.15338,-0.68756 0.17969,-0.10092 0.33065,-0.14998 0.46363,-0.14696 z"
       id="path1518" />
    <path
       style="fill:#000000;fill-opacity:0.913044;stroke-width:0.277637"
       d="m 268.33533,233.68696 c 0.14368,0 0.33889,0.12494 0.43326,0.27764 0.0944,0.1527 -0.0233,0.27763 -0.26137,0.27763 -0.23806,0 -0.43272,-0.12493 -0.43272,-0.27763 0,-0.1527 0.11714,-0.27764 0.26083,-0.27764 z"
       id="path1516" />
    <path
       style="fill:#000000;fill-opacity:0.913044;stroke-width:0.277637"
       d="m 272.60236,233.52049 c 2.05234,0.005 5.13067,0.15509 7.2717,0.3991 2.41689,0.27547 8.85168,1.54863 10.41137,2.06004 0.76106,0.24954 3.65469,0.4413 7.26356,0.48153 0.19237,0.003 0.40363,1.13323 0.64963,3.47263 0.1337,1.27146 0.55347,3.90723 1.26563,7.94896 0.15152,0.85995 0.39818,3.27536 0.54768,5.3673 0.1495,2.09196 0.38863,4.32455 0.53142,4.96111 0.3168,1.41242 0.62069,8.05955 0.3953,8.64689 -0.25021,0.65205 -0.55887,0.51082 -1.21845,-0.55639 -0.33281,-0.5385 -0.7857,-1.1593 -1.00643,-1.38005 -0.22074,-0.22072 -1.16515,-1.43585 -2.09909,-2.6999 -2.0897,-2.82829 -3.58991,-4.55796 -4.61679,-5.32388 -1.02644,-0.76564 -4.41506,-4.50757 -5.09073,-5.62161 -0.29148,-0.48059 -0.96146,-1.16774 -1.48904,-1.52701 -0.52759,-0.35929 -0.96032,-0.75422 -0.96143,-0.87736 -0.003,-0.34091 -2.66209,-2.96888 -3.00412,-2.96888 -0.16494,0 -0.74978,-0.67776 -1.29979,-1.5064 -0.55001,-0.82863 -1.8983,-2.2322 -2.99598,-3.11908 -1.09769,-0.88688 -2.50819,-2.1144 -3.1348,-2.72756 -0.62662,-0.61316 -1.552,-1.48569 -2.05625,-1.93912 -0.96012,-0.86337 -1.8033,-2.48424 -1.52592,-2.93307 0.0691,-0.11175 0.93113,-0.16042 2.16253,-0.15725 z"
       id="path1514" />
    <path
       style="fill:#000000;fill-opacity:0.913044;stroke-width:0.277637"
       d="m 326.99258,231.86441 c 0.13246,0.005 0.21853,0.33111 0.21853,0.86168 0,0.55855 0.20375,1.44521 0.45279,1.97002 0.24904,0.52482 0.37729,1.02931 0.28522,1.12138 -0.0921,0.0921 -0.28788,-0.14981 -0.43543,-0.53792 -0.14755,-0.38808 -0.40129,-0.78746 -0.56341,-0.88766 -0.37373,-0.23097 -0.38739,-2.28057 -0.0168,-2.50959 0.0207,-0.0128 0.0402,-0.0186 0.0591,-0.0178 z"
       id="path1512" />
    <path
       style="fill:#000000;fill-opacity:0.913044;stroke-width:0.277637"
       d="m 266.27528,231.32705 0.50376,1.01781 c 0.27705,0.55991 0.46329,1.36567 0.41375,1.79001 l -0.09,0.77108 -0.51135,-0.95654 c -0.2812,-0.52618 -0.46744,-1.33135 -0.41374,-1.78945 z"
       id="path1510" />
    <path
       style="fill:#000000;fill-opacity:0.913044;stroke-width:0.277637"
       d="m 263.33678,230.91059 c 1.14867,0 2.3753,0.90982 2.12078,1.57309 -0.0856,0.22311 0.0445,0.79271 0.28902,1.26564 0.61809,1.19525 0.41564,3.72133 -0.3888,4.85106 -0.3335,0.46835 -1.16938,1.11635 -1.85724,1.43968 -3.22212,1.51457 -4.87581,-0.0222 -4.85593,-4.51267 0.008,-1.91045 0.10452,-2.37208 0.62577,-3.00845 0.71016,-0.867 2.58419,-1.60835 4.0664,-1.60835 z"
       id="path1508" />
    <path
       style="fill:#000000;fill-opacity:0.913044;stroke-width:0.277637"
       d="m 331.89135,229.77728 c 0.16226,0.0128 0.34038,0.11355 0.4696,0.32264 0.10202,0.16497 0.46701,0.22994 0.81067,0.14368 1.18797,-0.29815 2.1981,1.66829 1.92285,3.74324 -0.16616,1.25258 -0.27706,1.41219 -1.42939,2.05623 -1.4131,0.78979 -2.60848,0.89452 -3.22048,0.28252 -0.22846,-0.22847 -0.74423,-0.54033 -1.14579,-0.69301 -1.08089,-0.41093 -1.88063,-2.36188 -1.51345,-3.6917 0.29226,-1.05847 0.91431,-1.8632 1.44024,-1.8632 0.17013,0 0.59246,0.26579 0.93811,0.59051 0.76414,0.71788 1.61517,0.52182 1.35077,-0.31126 -0.11979,-0.37739 0.10643,-0.60114 0.37687,-0.57965 z"
       id="path1506" />
    <path
       style="fill:#000000;fill-opacity:0.913044;stroke-width:0.277637"
       d="m 330.65608,227.81916 c 0.51566,-0.0189 1.41372,0.28828 1.83013,0.73152 0.59957,0.63821 0.60892,0.69121 0.11767,0.65667 -0.66329,-0.0466 -2.32467,-0.86037 -2.3328,-1.14253 -0.005,-0.16098 0.15061,-0.23708 0.385,-0.24566 z"
       id="path1504" />
    <path
       style="fill:#000000;fill-opacity:0.913044;stroke-width:0.277637"
       d="m 287.54214,212.97918 c 0.58075,-0.007 1.39057,0.11838 1.9234,0.30637 0.60893,0.21484 1.28456,0.32239 1.50151,0.23913 0.21696,-0.0833 0.61746,0.10864 0.88985,0.42676 0.27239,0.31814 0.82709,0.57859 1.23256,0.57859 1.17914,0 1.42966,0.61091 1.68425,4.10652 0.30985,4.25426 0.52726,5.72287 1.6181,10.93303 0.50099,2.39284 0.83493,4.54799 0.74236,4.78923 -0.22599,0.58893 -1.4726,0.5412 -2.69069,-0.10303 -0.78507,-0.4152 -1.8408,-0.54886 -5.35752,-0.6789 -2.40896,-0.0891 -4.63008,-0.29577 -4.93565,-0.4593 -0.79481,-0.42536 -5.67933,-0.8394 -11.61682,-0.98419 -2.81564,-0.0687 -5.16597,-0.17122 -5.22304,-0.2283 -0.3554,-0.3554 17.81978,-18.73209 18.58539,-18.79145 0.1999,-0.0156 0.83595,-0.0712 1.41313,-0.12363 0.0721,-0.007 0.15021,-0.01 0.23317,-0.0108 z"
       id="path1502" />
    <path
       style="fill:#000000;fill-opacity:0.913044;stroke-width:0.277637"
       d="m 299.41003,210.75212 c 0.39774,-0.0139 0.40677,0.19568 -0.0201,0.62251 -0.63251,0.63252 -3.52479,1.75858 -3.71719,1.44727 -0.28196,-0.45624 0.41429,-0.9898 2.1262,-1.63001 0.75708,-0.28313 1.3017,-0.42906 1.61106,-0.43977 z"
       id="path1500" />
    <path
       style="fill:#000000;fill-opacity:0.913044;stroke-width:0.277637"
       d="m 288.12399,210.67782 c 0.38442,-0.0214 0.8977,0.27611 1.78132,0.95057 1.04186,0.79532 1.44578,0.95127 2.09583,0.80851 0.78062,-0.17147 1.61593,0.2105 1.61593,0.7391 0,0.32139 -0.58854,0.3032 -1.11054,-0.0341 -0.22905,-0.14804 -0.85374,-0.27528 -1.38819,-0.28305 -0.53445,-0.008 -1.28407,-0.19282 -1.66582,-0.41104 -0.38175,-0.21823 -0.96794,-0.40116 -1.3025,-0.40671 -0.77271,-0.0125 -1.06447,-0.47135 -0.63119,-0.99342 0.1903,-0.2293 0.37451,-0.35707 0.60516,-0.36981 z"
       id="path1498" />
    <path
       style="fill:#000000;fill-opacity:0.913044;stroke-width:0.277637"
       d="m 288.5117,209.35036 c 0.0332,0.006 0.0697,0.0197 0.10791,0.0434 0.1527,0.0944 0.27764,0.22658 0.27764,0.29391 0,0.0674 -0.12494,0.12255 -0.27764,0.12255 -0.1527,0 -0.27763,-0.13221 -0.27763,-0.29391 0,-0.1213 0.0702,-0.18268 0.16972,-0.16594 z"
       id="path1496" />
    <path
       style="fill:#000000;fill-opacity:0.913044;stroke-width:0.277637"
       d="m 301.21792,202.69957 c 0.10118,0.003 0.17298,0.11372 0.17298,0.29227 0,0.48767 -0.16707,0.55913 -0.40507,0.17408 -0.0879,-0.14215 -0.0326,-0.33683 0.12255,-0.43273 0.0388,-0.0239 0.0758,-0.0348 0.10954,-0.0336 z"
       id="path1490" />
    <path
       style="fill:#000000;fill-opacity:0.913044;stroke-width:0.277637"
       d="m 295.63428,200.96595 c 0.12896,0.006 0.20389,0.0368 0.20389,0.0998 0,0.0909 -0.19675,0.54553 -0.43706,1.01024 -0.54762,1.05896 -0.30968,1.34074 0.50755,0.60136 1.50011,-1.3572 4.00406,-1.24795 4.40206,0.19196 0.41685,1.50812 0.25298,3.33847 -0.417,4.65963 -0.78627,1.55049 -1.35785,2.11023 -2.74708,2.69069 -0.56704,0.23691 -1.03084,0.61677 -1.03084,0.84377 0,0.46942 -1.51641,0.51776 -3.57132,0.11385 -1.52112,-0.29898 -3.09196,-1.46064 -3.09196,-2.28617 0,-0.33727 -0.24987,-0.76908 -0.55527,-0.95979 -0.85758,-0.53556 -0.72107,-1.80772 0.29499,-2.74816 1.15262,-1.06684 1.52614,-1.76857 1.08614,-2.04051 -0.49004,-0.30285 -0.0403,-0.88097 0.54172,-0.69626 0.26854,0.0852 1.03893,-0.14571 1.71191,-0.51299 0.963,-0.52554 2.54342,-0.99116 3.10227,-0.9674 z"
       id="path1488" />
    <path
       style="fill:#000000;fill-opacity:0.913044;stroke-width:0.277637"
       d="m 190.67135,199.81529 c -0.35572,0 -1.82423,1.67265 -2.70967,3.08654 -0.41905,0.66913 -1.0389,1.54991 -1.37734,1.957 -0.33844,0.40708 -1.07526,1.68409 -1.63762,2.83765 -0.56236,1.15355 -1.14483,2.17314 -1.29437,2.26557 -0.45326,0.2801 -2.47795,4.51123 -2.48192,5.18669 -0.002,0.34697 -0.3751,1.69262 -0.82912,2.99057 -0.45401,1.29795 -0.82771,2.63696 -0.82965,2.97537 -0.002,0.33839 -0.18032,1.02554 -0.3964,1.52701 -1.05846,2.45639 -1.54726,3.84199 -1.65714,4.69541 -0.0663,0.51491 -0.31614,1.50452 -0.55473,2.19941 -0.52998,1.54355 -1.2957,6.77967 -1.45976,9.98082 -0.0665,1.29795 -0.20139,2.54732 -0.29933,2.77637 -0.27492,0.64292 -0.31936,1.2118 -0.45821,5.83037 -0.0711,2.36685 -0.26629,4.74064 -0.43326,5.27509 -0.18086,0.57888 -0.23213,1.77016 -0.12689,2.94665 0.12117,1.35456 0.0775,2.03627 -0.1399,2.17064 -0.17437,0.10775 -0.24019,0.32078 -0.14587,0.4734 0.0943,0.15262 0.21299,0.80012 0.26354,1.43863 0.30281,3.82517 0.66193,6.87248 0.93865,7.96306 0.21553,0.84949 0.24631,2.24406 0.096,4.35759 -0.12164,1.70966 -0.17728,3.24014 -0.12364,3.40105 0.11905,0.35716 0.60881,0.37109 1.14471,0.032 0.55887,-0.35363 0.46864,-6.86812 -0.15563,-11.26108 -0.47662,-3.35394 -0.52533,-4.02601 -0.4029,-5.55274 0.0367,-0.4581 -0.001,-1.70746 -0.084,-2.77636 -0.083,-1.06891 -0.0134,-2.75555 0.15455,-3.7481 0.16792,-0.99255 0.33069,-3.36634 0.36169,-5.2751 0.0696,-4.2834 0.61341,-10.95043 0.98691,-12.09779 0.1528,-0.46937 0.3211,-1.65627 0.37416,-2.63755 0.1436,-2.65579 0.6794,-5.1679 1.56387,-7.33677 0.12455,-0.3054 0.28729,-0.80515 0.36223,-1.11055 0.0749,-0.3054 0.38876,-1.17995 0.69735,-1.94345 0.30858,-0.76351 0.71038,-2.13781 0.89256,-3.05401 0.40692,-2.04651 1.85758,-6.40019 2.4586,-7.37905 0.24366,-0.39686 0.79888,-1.25906 1.23418,-1.91581 0.4353,-0.65675 0.9247,-1.58292 1.08777,-2.05787 0.24202,-0.70486 2.20606,-3.81348 4.79845,-7.59597 0.23548,-0.34358 0.3175,-0.62468 0.1822,-0.62468 z"
       id="path1486" />
    <path
       style="fill:#000000;fill-opacity:0.913044;stroke-width:0.277637"
       d="m 296.41296,199.26001 c -1.67485,0 -2.36164,0.13413 -3.35333,0.6545 -0.68594,0.35996 -1.58241,0.73507 -1.99172,0.83347 -2.31365,0.55627 -4.60919,5.01698 -3.77249,7.3308 0.32917,0.91032 0.30617,0.98869 -0.4837,1.63273 -0.45634,0.37211 -1.17846,0.75062 -1.60454,0.84104 -0.50601,0.10742 -0.75084,0.32006 -0.70603,0.6133 0.0377,0.2469 -0.25253,0.94874 -0.64474,1.55954 -0.78464,1.22194 -6.14807,6.498 -7.37473,7.25434 -0.87742,0.54101 -8.12954,7.86084 -8.12954,8.20547 0,0.1238 -0.44923,0.72191 -0.99776,1.32908 l -0.99722,1.10405 -1.08235,-0.55258 c -1.01656,-0.5186 -1.19686,-0.52815 -2.9732,-0.15779 -2.62346,0.547 -4.25066,1.58703 -5.02024,3.20801 -0.33802,0.71197 -0.54236,1.48292 -0.45387,1.71352 0.09,0.23449 -0.088,0.64503 -0.40398,0.93106 -0.74139,0.67093 -0.77276,2.09096 -0.0461,2.09096 0.38645,0 0.60631,0.33716 0.86002,1.31877 0.18747,0.72533 0.38673,1.47417 0.44303,1.66419 0.17491,0.59025 1.87945,1.45814 2.86746,1.45814 1.62154,0.003 4.57128,-1.03122 5.39277,-1.88867 0.41603,-0.43428 1.11977,-1.65194 1.56442,-2.70588 0.44465,-1.05396 0.91845,-1.95245 1.05252,-1.99715 0.13408,-0.0447 1.48565,1.16977 3.00357,2.69882 1.51793,1.52909 3.13491,3.15609 3.59301,3.61578 1.37853,1.38326 1.65485,1.67078 5.05549,5.26535 4.10318,4.33718 5.90072,6.07788 6.4621,6.25604 0.2416,0.0767 0.64932,0.48273 0.90611,0.90285 0.25679,0.42012 1.17738,1.51367 2.0454,2.42987 2.6543,2.80161 5.10429,5.65349 5.10429,5.94154 0,0.15031 0.69593,0.87422 1.54652,1.60835 0.85059,0.73412 1.91007,1.88332 2.35449,2.55403 0.44442,0.67069 1.06032,1.39615 1.36866,1.61213 0.73747,0.51651 0.70739,1.07789 -0.10899,2.04812 -0.62122,0.73827 -1.27377,2.8756 -1.27377,4.17105 0,0.64464 1.57048,2.18095 3.24217,3.17167 1.5702,0.93047 3.58815,0.9273 5.59991,-0.009 1.73784,-0.809 1.89055,-0.82616 2.44179,-0.27491 0.2472,0.24721 0.92552,0.41645 1.66962,0.41645 1.14954,0 1.39588,0.13532 2.96507,1.62948 0.94116,0.89613 2.17367,1.7781 2.73895,1.96028 0.56529,0.18216 2.0777,1.16724 3.36092,2.18856 1.28323,1.02131 2.74733,2.10656 3.25356,2.41196 0.50623,0.30541 1.30855,0.80515 1.78295,1.11055 0.47439,0.3054 1.27506,0.80515 1.77915,1.11055 0.50409,0.3054 1.5556,0.96001 2.33713,1.45434 0.78154,0.49436 1.86504,1.0392 2.40764,1.21086 1.83077,0.57915 2.23627,0.98403 2.23627,2.23628 0,1.21844 0.76671,2.73883 1.71679,3.4043 0.70275,0.49222 4.50128,0.28871 5.42802,-0.29066 1.22128,-0.76353 1.44262,-1.45301 1.08452,-3.37881 -0.32166,-1.72984 -0.34162,-1.75808 -1.83284,-2.57355 -2.34498,-1.28238 -3.39632,-1.34624 -4.85864,-0.29608 l -1.21141,0.87031 -1.72275,-0.81447 c -0.9474,-0.44805 -1.98912,-1.0525 -2.31491,-1.34263 -0.32579,-0.29013 -1.27377,-0.87452 -2.10667,-1.29925 -0.83291,-0.42476 -2.00337,-1.10155 -2.60068,-1.50368 -0.59731,-0.40213 -1.48749,-0.98084 -1.9787,-1.28624 -0.49122,-0.3054 -1.69511,-1.26102 -2.67497,-2.12347 -0.97986,-0.86243 -2.47332,-1.89543 -3.31917,-2.29539 -0.84584,-0.39999 -2.14129,-1.22544 -2.87831,-1.83446 -0.77497,-0.6404 -1.97042,-1.29087 -2.83493,-1.54219 -1.66941,-0.48531 -1.782,-0.74956 -1.05795,-2.48246 0.78111,-1.86947 -0.37845,-4.0375 -2.45697,-4.59403 -0.64497,-0.17269 -1.54717,-0.51471 -2.00528,-0.76025 -0.48909,-0.26214 -1.52053,-0.4518 -2.49873,-0.45874 l -1.66582,-0.0119 0.0445,-0.83291 c 0.0245,-0.4581 -0.0638,-1.76993 -0.1963,-2.91518 -0.13248,-1.14525 -0.31522,-4.76841 -0.40615,-8.05146 -0.0909,-3.28306 -0.2731,-6.46894 -0.40453,-7.07974 -1.83302,-8.51914 -2.26565,-10.9385 -2.17608,-12.16884 0.0707,-0.97073 0.17434,-1.14714 0.63986,-1.09372 0.30541,0.0351 2.49179,0.14309 4.85865,0.24021 2.85266,0.11702 4.58415,0.31134 5.13628,0.57695 1.01178,0.48678 5.0968,0.52588 6.92247,0.0662 0.69148,-0.17411 1.46639,-0.23644 1.72222,-0.13827 0.47607,0.18269 4.62736,-0.52057 6.00064,-1.01676 0.41992,-0.15173 0.7635,-0.38333 0.7635,-0.5146 0,-0.46157 -1.27794,-0.54064 -4.16455,-0.25756 -8.06518,0.7909 -9.59585,0.87741 -10.55019,0.59811 -0.53445,-0.15642 -2.43019,-0.35296 -4.21281,-0.43706 -1.78263,-0.0841 -3.90655,-0.28921 -4.71983,-0.45604 -0.81328,-0.16681 -1.74344,-0.35268 -2.06655,-0.41265 -0.42346,-0.0786 -0.6738,-0.43983 -0.89689,-1.29329 -0.82982,-3.17447 -1.44163,-6.25865 -1.70595,-8.5986 -0.54219,-4.79981 -0.85428,-7.29382 -1.12139,-8.96572 -0.30972,-1.93857 -0.22025,-2.05946 2.05245,-2.77962 0.78457,-0.24862 1.67655,-0.66269 1.98195,-0.91967 0.73659,-0.61985 2.08228,-2.43368 2.08228,-2.80674 0,-0.45416 0.71866,-0.35182 1.14579,0.16322 0.20957,0.25271 0.79254,0.6319 1.29546,0.84213 0.50292,0.21023 0.98687,0.57177 1.07584,0.80362 0.13747,0.35823 2.91484,2.33715 3.28013,2.33715 0.068,0 0.65897,0.38069 1.31335,0.84593 0.65438,0.46523 2.0395,1.40542 3.07786,2.08932 1.03836,0.68391 2.41267,1.71499 3.05401,2.29103 0.64134,0.57602 1.49487,1.25309 1.89682,1.50477 0.70895,0.44388 3.42548,2.84622 6.69852,5.92474 0.8792,0.82694 1.73671,1.50368 1.90604,1.50368 0.19289,0 0.23416,0.23332 0.11008,0.62468 -0.10893,0.34357 -0.413,1.68664 -0.67565,2.98459 -0.44768,2.21235 -0.52441,2.36541 -1.22279,2.44776 -1.03787,0.12241 -0.92943,0.52904 0.22612,0.8481 0.53861,0.1487 1.54762,0.84484 2.26556,1.56278 l 1.29437,1.29437 -0.59595,1.2266 c -0.53068,1.09231 -0.69921,1.22713 -1.5373,1.22713 -0.51774,0 -1.09118,0.1806 -1.27431,0.40127 -0.18313,0.22064 -1.00124,0.53967 -1.81819,0.70928 -1.34583,0.27938 -3.72649,1.64236 -3.76111,2.15329 -0.008,0.11355 -0.0755,0.94291 -0.15075,1.84262 -0.10469,1.25128 -0.011,1.90398 0.39964,2.77637 0.7065,1.50096 1.30701,2.007 2.87994,2.42768 1.21307,0.32445 1.43186,0.29504 3.17493,-0.42079 2.07858,-0.85359 4.41822,-2.64762 4.67861,-3.58759 0.0931,-0.33594 0.36452,-1.07093 0.60354,-1.63384 0.61383,-1.44568 0.28836,-2.88725 -0.90666,-4.01432 -1.66244,-1.56787 -1.22159,-2.26987 1.57038,-2.50092 2.51455,-0.20809 4.02877,-0.71472 5.04301,-1.68642 0.95946,-0.91923 0.99865,-2.028 0.13556,-3.86576 -1.29368,-2.75465 -2.16692,-3.94896 -3.38315,-4.62873 -1.44972,-0.81025 -3.51407,-1.17163 -4.29794,-0.75212 -0.44975,0.24071 -0.76692,0.16797 -1.60672,-0.36925 -0.57559,-0.36823 -1.42137,-1.06893 -1.87947,-1.55685 -0.4581,-0.48789 -1.20772,-1.05249 -1.66582,-1.25478 -0.4581,-0.20229 -1.58253,-1.07434 -2.49873,-1.93804 -0.9162,-0.8637 -2.16556,-1.88996 -2.77636,-2.28018 -0.61081,-0.39022 -1.48536,-1.04935 -1.94346,-1.4652 -1.17988,-1.07104 -5.07243,-3.80712 -7.58458,-5.33096 -1.17306,-0.71158 -2.54171,-1.67895 -3.04153,-2.15004 -0.49983,-0.47107 -1.50708,-1.15963 -2.23845,-1.53025 -1.49194,-0.75603 -2.11635,-1.37341 -1.91634,-1.89465 0.22686,-0.59117 -0.56213,-5.20519 -1.00589,-5.88243 -0.2294,-0.3501 -1.00929,-1.02914 -1.73306,-1.50856 -1.18494,-0.78485 -1.5256,-0.87142 -3.4222,-0.87142 z"
       id="path1484" />
    <path
       style="fill:#000000;fill-opacity:0.913044;stroke-width:0.277637"
       d="m 192.3312,198.45042 c -0.27687,0.0122 -0.88442,0.58093 -0.88442,0.88658 0,0.15767 0.25056,0.0598 0.5569,-0.21744 0.30634,-0.27725 0.49656,-0.56411 0.42296,-0.63768 -0.0233,-0.0233 -0.0559,-0.0332 -0.0954,-0.0315 z"
       id="path1482" />
    <path
       style="fill:#000000;fill-opacity:0.913044;stroke-width:0.277637"
       d="m 207.90977,189.25532 c -1.34192,0.11561 -10.66358,4.80056 -12.71489,6.53912 -0.67655,0.5734 -0.49413,0.51954 0.97172,-0.28685 3.11689,-1.7146 6.71444,-3.53609 9.14737,-4.6309 1.29014,-0.58054 2.47704,-1.19664 2.63755,-1.36922 0.17847,-0.1919 0.14995,-0.26867 -0.0418,-0.25215 z"
       id="path1480" />
    <path
       style="fill:#000000;fill-opacity:0.913044;stroke-width:0.277637"
       d="m 535.58718,177.60435 c -0.93014,0 -0.93708,2.42674 -0.0158,5.56684 0.37856,1.29009 0.69076,2.55337 0.6941,2.80727 0.003,0.2539 0.44324,1.12595 0.97769,1.93749 0.53445,0.81153 0.97173,1.65546 0.97173,1.87568 0,0.6271 3.87298,4.16755 5.41392,4.94918 0.7635,0.38728 1.85111,1.11982 2.41685,1.62787 0.56577,0.50804 1.52028,1.17484 2.12131,1.48147 0.601,0.30662 1.325,0.86969 1.60888,1.25153 0.28391,0.3818 1.45326,1.18076 2.59851,1.77534 2.90472,1.50813 5.17715,2.88848 6.79016,4.12388 0.75714,0.57993 1.75664,1.25495 2.22109,1.49991 0.46444,0.24495 1.23796,1.05837 1.71844,1.80788 0.48047,0.74951 1.19739,1.75275 1.59316,2.22976 0.76528,0.92239 2.39189,4.02237 2.39189,4.55824 0,0.17596 0.44364,1.02592 0.98636,1.88923 3.21495,5.11374 3.69074,6.44983 5.00507,14.06349 0.23724,1.3743 0.43531,2.68614 0.44031,2.91519 0.005,0.22905 0.2555,1.10277 0.55743,1.94129 0.32914,0.91401 0.55192,2.24827 0.55636,3.33164 0.004,0.99388 0.25504,2.93123 0.55744,4.30553 0.62141,2.82398 0.7482,4.81603 0.88227,13.88184 0.0519,3.5121 0.21834,6.82575 0.36982,7.36386 0.22719,0.80709 0.23704,3.76462 0.039,11.65425 -0.006,0.22905 0.17977,1.47841 0.41213,2.77636 0.40993,2.28992 0.40568,2.37416 -0.13449,2.83981 -0.66636,0.57443 -0.49467,1.89562 0.35734,2.74763 1.12746,1.12746 2.42952,-1.00352 1.48961,-2.43801 -0.3114,-0.47523 -0.41346,-1.32788 -0.38503,-3.21667 0.0374,-2.48399 -0.0136,-3.25151 -0.44411,-6.65351 -0.12318,-0.97364 -0.0746,-2.11012 0.12636,-2.94772 0.23702,-0.98803 0.24843,-1.81288 0.0412,-2.99653 -0.44325,-2.53205 -0.61897,-6.74194 -0.30585,-7.327 0.165,-0.30834 0.17508,-0.58309 0.0244,-0.67621 -0.13951,-0.0862 -0.26011,-2.24892 -0.26789,-4.80603 -0.0158,-5.19295 -0.12385,-6.78947 -0.59539,-8.81388 -0.2672,-1.14717 -0.59428,-4.51329 -0.60733,-6.24683 -0.003,-0.22905 -0.18885,-1.0825 -0.4159,-1.89681 -0.22702,-0.81431 -0.35038,-1.72027 -0.27386,-2.01287 0.0765,-0.29263 0.0244,-0.60269 -0.1155,-0.68923 -0.14001,-0.0865 -0.22944,-0.49297 -0.19845,-0.90285 0.031,-0.4099 -0.15081,-1.36975 -0.40399,-2.13325 -0.54986,-1.65807 -1.49147,-5.65618 -1.7065,-7.24568 -0.1851,-1.36819 -1.31633,-4.01532 -1.93585,-4.52947 -0.24515,-0.20345 -0.44574,-0.4649 -0.44574,-0.58076 0,-0.11583 -0.8117,-1.63087 -1.80356,-3.3669 -0.99185,-1.73604 -1.88196,-3.56955 -1.97763,-4.07451 -0.0984,-0.51927 -0.45605,-1.10339 -0.82366,-1.34427 -0.35749,-0.23424 -1.09686,-1.09891 -1.64306,-1.92177 -0.54617,-0.82286 -1.45665,-1.83837 -2.02316,-2.25688 -0.56655,-0.41851 -1.43636,-1.16499 -1.93316,-1.65877 -0.4968,-0.4938 -1.33638,-1.01748 -1.86591,-1.16368 -1.02676,-0.2835 -2.63897,-1.30107 -3.00575,-1.89737 -0.12211,-0.19854 -0.37351,-0.36115 -0.55908,-0.36115 -0.75112,0 -3.75948,-1.70194 -4.20195,-2.37727 -0.26059,-0.39768 -0.93264,-0.91167 -1.49338,-1.142 -0.56074,-0.23036 -1.61268,-0.91373 -2.33714,-1.51887 -0.72447,-0.60511 -1.81422,-1.38257 -2.42175,-1.72765 -0.60749,-0.34504 -1.5135,-0.99713 -2.01394,-1.4489 -0.50044,-0.4518 -1.30542,-1.10038 -1.78837,-1.44132 -0.92248,-0.6512 -3.4249,-5.1618 -3.4249,-6.17309 0,-0.29693 -0.24424,-1.32316 -0.54225,-2.28073 -0.29802,-0.95759 -0.61888,-2.45958 -0.71364,-3.33761 -0.11333,-1.05091 -0.29754,-1.59641 -0.539,-1.59641 z"
       id="path1474" />
    <path
       style="fill:#000000;fill-opacity:0.913044;stroke-width:0.277637"
       d="m 232.40307,173.57482 c -0.17519,0.007 -0.27573,0.17602 -0.42405,0.56613 -0.15126,0.39782 -0.27492,0.93966 -0.27492,1.20436 0,0.67832 -2.00626,2.68519 -3.8533,3.8549 -0.85858,0.54372 -2.31024,1.5787 -3.22644,2.29972 -1.93618,1.52372 -5.78783,3.45274 -7.7478,3.88042 -1.43088,0.31223 -3.71122,1.15677 -4.88467,1.80896 -0.38175,0.21217 -1.22507,0.65478 -1.87404,0.98367 -0.64898,0.32889 -1.17996,0.64651 -1.17996,0.70603 0,0.27894 0.90563,0.0454 2.39462,-0.61818 1.8513,-0.825 4.2237,-1.62648 5.65684,-1.91092 3.21837,-0.63873 5.33027,-1.63453 7.35575,-3.46885 0.8263,-0.74829 2.37562,-1.93629 3.44334,-2.63971 1.97883,-1.30365 5.07496,-4.50624 5.41826,-5.60479 0.14091,-0.45094 0.0421,-0.68632 -0.38175,-0.91315 -0.18485,-0.099 -0.31677,-0.15292 -0.42188,-0.14859 z"
       id="path1468" />
    <path
       style="fill:#000000;fill-opacity:0.913044;stroke-width:0.277637"
       d="m 470.40711,172.88453 c -0.54419,0 -0.5508,0.0294 -0.11172,0.5146 0.25607,0.28297 1.11913,0.86414 1.91744,1.29165 0.79832,0.42753 2.07101,1.2266 2.82843,1.7759 1.61468,1.17102 2.00589,1.40154 4.02842,2.3751 0.83505,0.40196 1.59061,0.84865 1.6794,0.99233 0.27314,0.44197 3.12952,2.49007 3.47262,2.49007 0.1778,0 0.56099,0.26361 0.85187,0.58564 0.29091,0.32203 1.23524,1.08098 2.09855,1.68695 0.86328,0.60597 1.62559,1.31628 1.69403,1.57798 0.0691,0.26403 0.66099,0.65239 1.32963,0.87305 1.17212,0.38683 1.66357,0.79341 5.6308,4.65203 1.04222,1.01368 2.24567,2.0984 2.67442,2.41088 2.10451,1.53389 7.48117,6.35675 12.62758,11.32672 1.06732,1.03073 2.05818,1.87405 2.20158,1.87405 0.1434,0 1.08489,0.80092 2.09205,1.77968 3.4795,3.38136 4.33374,4.18079 5.30166,4.96331 2.19447,1.77409 3.4666,2.91871 4.95515,4.45737 0.86298,0.89205 1.88576,1.78712 2.27262,1.98899 0.77786,0.40588 8.17862,7.72557 10.24435,10.13213 0.72091,0.83985 1.71885,2.12911 2.21785,2.86476 0.49899,0.73566 1.07795,1.4026 1.28623,1.48253 0.53043,0.20353 4.25859,4.69925 4.56474,5.50448 0.13868,0.36473 1.88176,3.09629 3.87392,6.07002 1.99215,2.97377 3.70728,5.62923 3.81153,5.90089 0.10426,0.2717 0.86873,1.43808 1.69836,2.59252 0.82964,1.15441 1.62756,2.41144 1.77318,2.79319 0.14562,0.38175 0.5136,0.95987 0.81773,1.2846 0.64356,0.68712 2.92079,4.61385 3.17871,5.48116 0.0968,0.3255 0.36032,0.8833 0.58565,1.24014 0.22536,0.35682 0.46832,0.59018 0.54009,0.51841 0.21322,-0.2132 -0.97714,-3.48831 -1.66799,-4.58967 -0.35162,-0.5606 -0.72996,-1.39426 -0.84104,-1.85236 -0.11108,-0.4581 -0.60764,-1.27019 -1.1035,-1.80464 -0.49588,-0.53445 -1.5815,-2.09616 -2.41252,-3.47046 -0.831,-1.3743 -1.63509,-2.7031 -1.78673,-2.95261 -0.15162,-0.24949 -0.72877,-1.12404 -1.28246,-1.94346 -0.55369,-0.81939 -1.05344,-1.61451 -1.11055,-1.76721 -0.27316,-0.73035 -5.79519,-8.84234 -7.22721,-10.61688 -0.89216,-1.10558 -1.6219,-2.12959 -1.6219,-2.27535 0,-0.30073 -1.02537,-1.39282 -6.52446,-6.95121 -4.92536,-4.97847 -10.64054,-10.4226 -11.76269,-11.2047 -0.47551,-0.33141 -0.92825,-0.78985 -1.00588,-1.0189 -0.0776,-0.22905 -0.58662,-0.71938 -1.13117,-1.08939 -0.54456,-0.37003 -1.97655,-1.6194 -3.18253,-2.77636 -1.20597,-1.157 -2.84108,-2.66565 -3.63365,-3.3528 -0.79254,-0.68715 -1.7807,-1.56171 -2.19563,-1.94346 -0.41493,-0.38175 -1.29607,-1.13137 -1.95809,-1.66582 -0.66203,-0.53445 -2.77059,-2.48407 -4.6862,-4.33266 -4.73315,-4.56756 -6.3528,-6.00914 -7.57862,-6.74679 -0.57277,-0.34466 -1.19745,-0.84651 -1.38819,-1.11488 -0.48189,-0.67782 -4.35514,-4.20261 -7.9815,-7.263 -0.38175,-0.32217 -1.2563,-0.91267 -1.94345,-1.31228 -2.13267,-1.24017 -5.37455,-3.42978 -6.24683,-4.21932 -0.84385,-0.76381 -1.49524,-1.14773 -3.74809,-2.21024 -0.68715,-0.32412 -1.56171,-0.81445 -1.94346,-1.08939 -0.38175,-0.27495 -1.25628,-0.86282 -1.94293,-1.30631 -0.68662,-0.4435 -1.78923,-1.21239 -2.45045,-1.70866 -0.66119,-0.49628 -1.46178,-0.90232 -1.77915,-0.90232 z"
       id="path1462" />
    <path
       style="fill:#000000;fill-opacity:0.913044;stroke-width:0.277637"
       d="m 337.79384,157.89215 c 0.1527,0 0.20066,0.12494 0.10628,0.27764 -0.0944,0.1527 -0.29683,0.27763 -0.44953,0.27763 -0.1527,0 -0.20012,-0.12493 -0.10574,-0.27763 0.0944,-0.1527 0.29629,-0.27764 0.44899,-0.27764 z"
       id="path1458" />
    <path
       style="fill:#000000;fill-opacity:0.913044;stroke-width:0.277637"
       d="m 430.06248,152.18416 c -0.16703,0.0169 -0.16409,0.14748 -0.0189,0.38231 0.0895,0.14481 1.19506,0.67204 2.45697,1.17182 1.26189,0.49977 2.54471,1.12115 2.85011,1.3806 0.3054,0.25945 1.30489,0.7527 2.22109,1.09645 2.3136,0.86797 9.48446,4.33771 13.46538,6.51524 1.14525,0.62643 2.64449,1.37999 3.33164,1.67504 0.68715,0.29507 1.61346,0.78513 2.05843,1.08883 0.44497,0.30376 1.63186,0.94716 2.63755,1.42994 1.00565,0.48278 2.20329,1.18784 2.66139,1.56659 0.4581,0.37876 1.43477,0.97529 2.17065,1.32583 0.73585,0.35055 1.67287,0.91734 2.08227,1.25914 0.40938,0.3418 1.24429,0.88283 1.85509,1.20272 0.6108,0.31989 1.27399,0.58712 1.47386,0.59378 0.56388,0.0192 0.11133,-0.49966 -0.86709,-0.99396 -0.48658,-0.24582 -1.13428,-0.66394 -1.43968,-0.92945 -0.3054,-0.26553 -0.99255,-0.71933 -1.527,-1.0086 -0.53445,-0.28924 -1.40901,-0.85004 -1.94346,-1.24611 -0.53445,-0.39608 -2.03369,-1.24929 -3.33164,-1.89573 -2.82215,-1.40562 -6.39525,-3.47799 -6.63238,-3.84733 -0.0936,-0.14576 -0.85687,-0.46918 -1.69672,-0.71849 -0.83985,-0.24929 -2.15168,-0.82175 -2.91518,-1.27213 -1.81589,-1.07115 -2.72193,-1.50924 -4.62765,-2.23628 -0.86551,-0.3302 -1.98324,-0.90196 -2.48355,-1.27105 -0.50027,-0.36909 -1.10396,-0.67241 -1.34154,-0.67241 -0.23754,0 -0.84104,-0.25046 -1.34101,-0.55527 -0.49997,-0.30485 -1.04699,-0.5542 -1.21574,-0.5542 -0.16878,0 -1.9753,-0.83493 -4.01435,-1.85561 -2.31077,-1.15669 -3.50103,-1.66879 -3.86848,-1.63167 z"
       id="path1454" />
    <path
       style="fill:#000000;fill-opacity:0.913044;stroke-width:0.277637"
       d="m 334.35429,150.95595 c -0.0315,-0.003 -0.13509,0.13044 -0.34054,0.39586 -0.22943,0.29643 -0.417,0.69589 -0.417,0.88768 0,0.1918 -0.31234,0.93592 -0.69409,1.65389 -0.38175,0.71796 -0.69409,1.43863 -0.69409,1.60129 0,0.9164 1.33408,-1.76546 2.05299,-4.12659 0.0833,-0.2735 0.1242,-0.41005 0.0927,-0.41213 z"
       id="path1452" />
    <path
       style="fill:#000000;fill-opacity:0.913044;stroke-width:0.277637"
       d="m 335.56298,148.03633 -0.41808,0.69409 c -0.23001,0.38175 -0.42243,0.81256 -0.42784,0.95762 -0.0178,0.47673 0.47479,-0.23344 0.66427,-0.95762 z"
       id="path1448" />
    <path
       style="fill:#000000;fill-opacity:0.913044;stroke-width:0.277637"
       d="m 336.20285,146.88122 c -0.0332,0.006 -0.0692,0.0208 -0.10737,0.0445 -0.1527,0.0944 -0.27763,0.29629 -0.27763,0.44899 0,0.1527 0.12493,0.20065 0.27763,0.10628 0.1527,-0.0944 0.27764,-0.2963 0.27764,-0.449 0,-0.11452 -0.0707,-0.16996 -0.17027,-0.15075 z"
       id="path1444" />
    <path
       style="fill:#000000;fill-opacity:0.913044;stroke-width:0.277637"
       d="m 416.49354,146.57051 c -0.0255,0 -0.0442,0.006 -0.0542,0.0164 -0.18321,0.18324 3.32092,1.90025 5.72353,2.80454 4.14018,1.55824 6.17528,2.36758 6.32221,2.51447 0.0858,0.0858 0.32964,0.15617 0.54225,0.15617 0.6183,0 0.16747,-0.4534 -0.81989,-0.82424 -0.49955,-0.1876 -1.53297,-0.63379 -2.29647,-0.99178 -0.7635,-0.35801 -2.63755,-1.08098 -4.16455,-1.60618 -1.527,-0.52518 -3.31321,-1.23468 -3.96879,-1.57689 -0.57362,-0.29943 -1.10591,-0.50061 -1.28407,-0.49236 z"
       id="path1440" />
    <path
       style="fill:#000000;fill-opacity:0.913044;stroke-width:0.277637"
       d="m 324.52259,146.23269 c -0.12482,0 -0.46128,0.59403 -0.74778,1.31877 -0.28649,0.72477 -0.802,1.76 -1.14525,2.30028 -0.34324,0.54028 -0.71147,1.38207 -0.81881,1.87077 -0.10733,0.48869 -0.31075,0.95948 -0.4517,1.04658 -0.14095,0.0871 -0.25595,0.42878 -0.25595,0.75914 0,0.58906 0.007,0.5902 0.36657,0.0531 0.20187,-0.30121 0.53413,-0.98495 0.73801,-1.5194 0.20389,-0.53445 0.77159,-1.78834 1.2613,-2.78614 1.05365,-2.14663 1.36428,-3.04592 1.05361,-3.04314 z"
       id="path1438" />
    <path
       style="fill:#000000;fill-opacity:0.913044;stroke-width:0.277637"
       d="m 309.3594,145.95397 c -0.15194,0.0233 -0.4714,0.51235 -0.59594,1.0086 -0.10166,0.40504 -0.86528,2.10021 -1.69673,3.76653 -0.83146,1.66632 -1.50714,3.11605 -1.50206,3.22211 0.0183,0.38258 1.10133,-1.12807 1.10133,-1.53622 0,-0.23013 0.3582,-0.82664 0.79603,-1.3253 0.63484,-0.72305 1.98033,-4.11144 1.98033,-4.98716 0,-0.11278 -0.0323,-0.15636 -0.083,-0.14856 z"
       id="path1436" />
    <path
       style="fill:#000000;fill-opacity:0.913044;stroke-width:0.277637"
       d="m 413.4173,145.67092 0.83291,0.40668 c 0.97573,0.47631 1.77582,0.56982 1.36542,0.15942 -0.14984,-0.14984 -0.70562,-0.33847 -1.23529,-0.41915 z"
       id="path1434" />
    <path
       style="fill:#000000;fill-opacity:0.913044;stroke-width:0.277637"
       d="m 337.08348,144.84342 c -0.0673,0 -0.19953,0.12494 -0.2939,0.27764 -0.0944,0.1527 -0.0397,0.27763 0.122,0.27763 0.16172,0 0.29445,-0.12493 0.29445,-0.27763 0,-0.1527 -0.0552,-0.27764 -0.12255,-0.27764 z"
       id="path1432" />
    <path
       style="fill:#000000;fill-opacity:0.913044;stroke-width:0.277637"
       d="m 325.09738,144.67206 c -0.0332,-0.003 -0.0692,0.009 -0.10736,0.0325 -0.1527,0.0944 -0.27764,0.28905 -0.27764,0.43273 0,0.1437 0.12494,0.26136 0.27764,0.26136 0.1527,0 0.27763,-0.19468 0.27763,-0.43272 0,-0.17866 -0.0707,-0.28952 -0.17027,-0.29391 z"
       id="path1430" />
    <path
       style="fill:#000000;fill-opacity:0.913044;stroke-width:0.277637"
       d="m 411.38167,144.57445 c -0.39952,0.007 -0.38953,0.0648 0.0754,0.41645 0.60166,0.45508 1.26619,0.53914 1.26619,0.15998 0,-0.29302 -0.68829,-0.58893 -1.34154,-0.57643 z"
       id="path1428" />
    <path
       style="fill:#000000;fill-opacity:0.913044;stroke-width:0.277637"
       d="m 405.64347,142.27581 0.70982,0.56777 c 0.39063,0.31236 1.14025,0.69178 1.66581,0.84265 1.65374,0.47479 1.84248,0.30274 0.40074,-0.36548 -0.7635,-0.35385 -1.70053,-0.73385 -2.08228,-0.84429 z"
       id="path1424" />
    <path
       style="fill:#000000;fill-opacity:0.913044;stroke-width:0.277637"
       d="m 403.5151,141.56817 c -0.13301,0.0158 -0.18359,0.0659 -0.0927,0.16106 0.1527,0.15994 0.58997,0.3469 0.97172,0.41537 1.19817,0.21494 1.23348,0.21239 0.94896,-0.0721 -0.2884,-0.28838 -1.42894,-0.55147 -1.82796,-0.5043 z"
       id="path1422" />
    <path
       style="fill:#000000;fill-opacity:0.913044;stroke-width:0.277637"
       d="m 311.34352,141.5145 c -0.065,-0.0111 -0.21248,0.24593 -0.49074,0.83019 -0.31169,0.65447 -0.30626,0.66325 0.10086,0.15509 0.23748,-0.29643 0.43218,-0.66064 0.43218,-0.80959 0,-0.11025 -0.0127,-0.17069 -0.0423,-0.17569 z"
       id="path1420" />
    <path
       style="fill:#000000;fill-opacity:0.913044;stroke-width:0.277637"
       d="m 401.76577,140.98796 c -0.14155,0 -0.12416,0.0822 0.1296,0.24618 0.22905,0.14804 0.60386,0.26212 0.83291,0.25379 0.27461,-0.01 0.22731,-0.0965 -0.13881,-0.25379 -0.38163,-0.164 -0.68214,-0.24618 -0.8237,-0.24618 z"
       id="path1418" />
    <path
       style="fill:#000000;fill-opacity:0.913044;stroke-width:0.277637"
       d="m 339.14949,139.56832 c -0.1527,0 -0.27764,0.19468 -0.27764,0.43273 0,0.23821 0.12494,0.35573 0.27764,0.26137 0.1527,-0.0944 0.27763,-0.28905 0.27763,-0.43273 0,-0.1437 -0.12493,-0.26137 -0.27763,-0.26137 z"
       id="path1416" />
    <path
       style="fill:#000000;fill-opacity:0.913044;stroke-width:0.277637"
       d="m 312.39225,139.40727 c -0.0697,-0.006 -0.17437,0.0466 -0.31234,0.16105 -0.22905,0.1901 -0.41645,0.51791 -0.41645,0.72824 0,0.52257 0.45695,0.48334 0.66426,-0.0569 0.20209,-0.52665 0.21791,-0.81972 0.0645,-0.83238 z"
       id="path1414" />
    <path
       style="fill:#000000;fill-opacity:0.913044;stroke-width:0.277637"
       d="m 395.24836,138.67306 c -0.11858,0.008 -0.23664,0.0796 -0.2939,0.18923 -0.0763,0.14621 0.90276,0.47429 2.17608,0.7288 1.27333,0.25454 2.5184,0.66602 2.76661,0.91426 0.24823,0.2482 0.6819,0.45116 0.96359,0.45116 1.50265,0 -1.43882,-1.52537 -3.69116,-1.91417 -0.8431,-0.14554 -1.65519,-0.30537 -1.80463,-0.35518 -0.0374,-0.0125 -0.0771,-0.0169 -0.11659,-0.0142 z"
       id="path1412" />
    <path
       style="fill:#000000;fill-opacity:0.913044;stroke-width:0.277637"
       d="m 393.41065,137.9025 c -0.23807,0 -0.3552,0.12494 -0.26083,0.27764 0.0944,0.1527 0.28903,0.27764 0.43272,0.27764 0.14369,0 0.26137,-0.12494 0.26137,-0.27764 0,-0.1527 -0.1952,-0.27764 -0.43326,-0.27764 z"
       id="path1410" />
    <path
       style="fill:#000000;fill-opacity:0.913044;stroke-width:0.277637"
       d="m 385.37599,135.96771 c -0.1527,0 -0.0902,0.12094 0.13882,0.26897 0.22905,0.14804 0.54139,0.26895 0.69409,0.26895 0.1527,0 0.0902,-0.12091 -0.13882,-0.26895 -0.22905,-0.14803 -0.54139,-0.26897 -0.69409,-0.26897 z"
       id="path1408" />
    <path
       style="fill:#000000;fill-opacity:0.913044;stroke-width:0.277637"
       d="m 309.91358,135.5236 c 0.0953,0.0287 0.10603,0.17525 -0.0434,0.41701 -0.10065,0.16286 -0.31588,0.29607 -0.47827,0.29607 -0.1841,0 -0.16313,-0.15908 0.0559,-0.42295 0.19039,-0.22941 0.37047,-0.31881 0.46579,-0.29013 z"
       id="path1406" />
    <path
       style="fill:#000000;fill-opacity:0.913044;stroke-width:0.277637"
       d="m 378.07122,134.04324 -0.74669,0.0278 0.69409,0.22233 c 0.98547,0.31559 1.16678,0.31559 0.97173,0 -0.0944,-0.1527 -0.50822,-0.26526 -0.91913,-0.24999 z"
       id="path1404" />
    <path
       style="fill:#000000;fill-opacity:0.913044;stroke-width:0.277637"
       d="m 341.74908,133.27855 c -0.0421,-0.006 -0.0708,0.095 -0.0792,0.29715 -0.012,0.29266 0.0536,0.45666 0.14586,0.3644 0.0923,-0.0923 0.1019,-0.33153 0.0217,-0.53195 -0.0332,-0.083 -0.0631,-0.12577 -0.0884,-0.1296 z"
       id="path1400" />
    <path
       style="fill:#000000;fill-opacity:0.913044;stroke-width:0.277637"
       d="m 425.65772,128.36568 c -0.26634,-0.008 -0.46171,0.0158 -0.52221,0.0743 -0.40116,0.3883 0.55694,0.8725 2.0644,1.0433 0.81786,0.0927 1.92468,0.38486 2.45913,0.64909 1.29751,0.64142 4.66627,1.46306 5.30925,1.2949 0.28272,-0.0739 0.82292,0.10844 1.20003,0.40507 0.37711,0.29665 1.34679,0.77277 2.15493,1.05796 0.80815,0.28519 2.34409,0.94899 3.41299,1.47547 1.0689,0.52646 2.4432,1.12837 3.054,1.33777 0.6108,0.20939 1.59433,0.67627 2.18584,1.03733 0.5915,0.3611 1.65346,0.82886 2.35991,1.0395 1.32977,0.39652 7.21214,3.30854 8.91963,4.41562 0.53445,0.34649 2.22109,1.35112 3.7481,2.23247 2.53074,1.46071 3.66838,2.18487 6.52446,4.15317 1.51762,1.04586 3.29913,2.25519 5.41391,3.67491 1.0689,0.71758 2.13086,1.51068 2.35991,1.76233 0.22906,0.25165 0.97867,0.87322 1.66582,1.38113 0.68716,0.50791 1.65322,1.29867 2.1468,1.75747 0.49356,0.45879 1.45149,1.15555 2.12892,1.54815 3.1361,1.8175 5.55657,3.85735 9.08283,7.65453 0.85082,0.9162 2.64163,2.66531 3.97912,3.88691 1.33751,1.22161 2.62227,2.59591 2.85552,3.05401 0.23327,0.4581 1.71179,2.14474 3.28555,3.74809 6.32975,6.44873 8.17185,8.42547 8.17185,8.76996 0,0.19843 0.2324,0.52385 0.51676,0.72338 0.4877,0.34222 8.39143,7.81492 11.61574,10.98237 0.81605,0.80167 1.60276,1.45759 1.74825,1.45759 0.14545,0 0.4521,0.36304 0.68162,0.80687 0.45172,0.87353 5.52567,6.6861 6.1541,7.04991 0.21092,0.12211 0.38391,0.38831 0.38391,0.59107 0,0.20278 0.18088,0.51895 0.40235,0.70278 0.2215,0.18379 0.80021,1.04258 1.28571,1.90819 0.88211,1.57273 3.96071,5.38152 5.44049,6.73053 0.90784,0.82763 3.104,3.59292 3.89937,4.91017 0.30057,0.49777 1.12735,1.55973 1.83718,2.35991 2.07675,2.34106 4.35101,5.14747 4.72035,5.82493 0.18816,0.34513 0.8059,1.33957 1.373,2.21026 0.56707,0.87067 1.03139,1.76258 1.03139,1.98141 0,0.21881 0.31748,0.60597 0.70603,0.86057 0.38858,0.25459 0.82567,0.73754 0.97118,1.07312 0.32541,0.75042 0.6736,1.29986 1.98141,3.12938 0.56165,0.78568 1.20197,1.86153 1.42288,2.39028 0.22095,0.52879 0.77555,1.38922 1.23257,1.91256 1.01576,1.16316 3.74116,6.49711 4.38741,8.58666 0.25976,0.83985 0.81389,2.0526 1.23149,2.69502 0.41759,0.64243 0.91014,1.76686 1.0948,2.49873 0.18463,0.73188 0.56427,1.83046 0.84321,2.44126 0.27894,0.6108 0.63118,1.42289 0.78302,1.80464 0.8921,2.24281 1.8274,4.33816 2.03835,4.5669 0.13377,0.14507 0.24349,0.51185 0.24349,0.81503 0,0.30321 0.25576,0.82394 0.56829,1.15664 0.42368,0.45099 0.60931,1.12659 0.73097,2.65542 0.0898,1.12779 0.53009,3.48707 0.97822,5.24312 0.77766,3.0472 0.94696,4.01382 1.14364,6.52446 0.12674,1.61762 0.49081,3.02568 0.83941,3.24704 0.40307,0.25598 0.49325,0.14157 1.05849,-1.34751 0.4636,-1.22126 0.46151,-1.29531 -0.0488,-2.0004 -0.53659,-0.74137 -1.13156,-3.07582 -1.81438,-7.11768 -0.77064,-4.56188 -0.87853,-5.02695 -1.46629,-6.30105 -0.33072,-0.71697 -0.60136,-1.43708 -0.60136,-1.60022 0,-0.16314 -0.11358,-0.51351 -0.25215,-0.77868 -0.3187,-0.60983 -1.7633,-4.23191 -2.37673,-5.95889 -0.25635,-0.72172 -0.39608,-1.42594 -0.31015,-1.56496 0.0859,-0.13901 -0.0297,-0.40726 -0.25704,-0.59594 -0.22738,-0.18871 -0.4132,-0.49661 -0.4132,-0.68432 0,-0.18771 -0.55725,-1.18898 -1.23799,-2.22543 -0.73298,-1.11599 -1.35864,-2.46791 -1.53458,-3.31537 -0.16339,-0.78704 -0.79315,-2.2378 -1.39959,-3.22375 -0.60644,-0.98591 -1.10402,-1.91763 -1.10402,-2.07033 0,-0.1527 -0.49964,-1.02726 -1.10947,-1.94346 -0.60983,-0.9162 -1.11474,-1.79076 -1.1214,-1.94346 -0.007,-0.1527 -0.38156,-0.71039 -0.83344,-1.23906 -0.45191,-0.52868 -0.82152,-1.10963 -0.82152,-1.29112 0,-0.18152 -0.54564,-1.0606 -1.21194,-1.95376 -0.66633,-0.89316 -1.36251,-2.09069 -1.54708,-2.66087 -0.1846,-0.57021 -0.68257,-1.31983 -1.10674,-1.66582 -0.42418,-0.34602 -1.16955,-1.46106 -1.6566,-2.47813 -0.48706,-1.01707 -1.06813,-2.00079 -1.29113,-2.18583 -0.22299,-0.18508 -0.40507,-0.45341 -0.40507,-0.59648 0,-0.3391 -3.50327,-4.51373 -4.89173,-5.82929 -0.59273,-0.56157 -1.36639,-1.43613 -1.71896,-1.94345 -1.30217,-1.87377 -2.86252,-3.9922 -3.33814,-4.53167 -2.3063,-2.61598 -4.48827,-5.418 -4.48827,-5.76313 0,-0.23102 -0.31235,-0.62454 -0.6941,-0.87466 -0.38175,-0.25016 -0.69409,-0.5889 -0.69409,-0.75268 0,-0.32972 -4.15902,-5.61326 -5.10971,-6.49137 -0.33063,-0.3054 -1.08833,-1.17995 -1.68372,-1.94345 -1.69323,-2.17134 -4.3057,-4.88305 -5.97785,-6.20454 -2.26996,-1.79395 -7.77383,-7.12427 -7.77383,-7.52873 0,-0.13232 -0.46851,-0.61699 -1.04114,-1.07693 -0.57262,-0.45996 -1.47841,-1.41228 -2.01286,-2.11642 -0.53446,-0.70414 -1.59308,-1.86888 -2.35234,-2.58821 -2.5386,-2.40509 -7.45662,-7.55883 -7.94407,-8.32474 -0.26506,-0.41643 -1.64902,-1.85959 -3.07516,-3.20749 -1.42616,-1.34789 -2.71748,-2.57669 -2.87018,-2.73027 -2.52014,-2.53466 -3.7481,-3.87626 -3.7481,-4.09459 0,-0.14748 -0.87338,-0.85371 -1.94073,-1.56984 -1.06738,-0.71611 -2.22304,-1.58161 -2.56814,-1.92286 -0.34513,-0.34124 -1.06468,-0.84274 -1.59913,-1.11488 -1.2678,-0.64553 -6.10748,-4.26841 -6.73433,-5.04138 -0.26786,-0.33027 -1.29859,-1.1131 -2.2905,-1.73956 -0.99191,-0.62646 -1.803,-1.24506 -1.803,-1.37463 0,-0.1296 -0.57551,-0.45538 -1.27866,-0.72391 -0.70317,-0.26853 -1.87507,-1.00416 -2.60445,-1.63439 -0.72941,-0.63024 -1.97822,-1.52059 -2.77476,-1.97869 -0.79654,-0.4581 -1.65482,-1.03884 -1.90711,-1.29057 -0.25226,-0.25173 -1.02043,-0.74345 -1.70758,-1.09267 -0.68715,-0.34918 -1.93651,-1.08503 -2.77637,-1.63544 -0.83985,-0.55042 -1.8942,-1.16011 -2.34255,-1.35456 -0.44833,-0.19449 -1.27805,-0.72017 -1.84423,-1.16858 -0.56619,-0.44844 -1.12624,-0.81555 -1.24396,-0.81555 -0.3474,0 -4.67157,-1.73546 -5.05601,-2.02914 -0.19396,-0.14817 -1.15577,-0.55003 -2.13758,-0.8931 -0.98181,-0.34308 -2.57239,-1.05999 -3.53445,-1.59316 -2.52172,-1.3976 -6.397,-2.87793 -9.26071,-3.53771 -1.36589,-0.31467 -2.92027,-0.74612 -3.45472,-0.9587 -0.53445,-0.21259 -1.40901,-0.45735 -1.94346,-0.54389 -0.53445,-0.0865 -1.53394,-0.27353 -2.22109,-0.4159 -0.34357,-0.0712 -0.68101,-0.11206 -0.94732,-0.12039 z"
       id="path1398" />
    <path
       style="fill:#000000;fill-opacity:0.913044;stroke-width:0.277637"
       d="m 333.70412,125.50308 c -0.0332,0.006 -0.0692,0.0208 -0.10737,0.0445 -0.1527,0.0944 -0.27763,0.29629 -0.27763,0.44899 0,0.1527 0.12493,0.20065 0.27763,0.10628 0.1527,-0.0944 0.27764,-0.29629 0.27764,-0.44899 0,-0.11453 -0.0707,-0.16997 -0.17027,-0.15076 z"
       id="path1396" />
    <path
       style="fill:#000000;fill-opacity:0.913044;stroke-width:0.277637"
       d="m 476.09269,108.03629 c -0.15964,0.0153 0.11983,0.22172 0.90341,0.68976 1.69702,1.01368 1.80175,1.03714 0.89798,0.19954 -0.39035,-0.36173 -1.06412,-0.74123 -1.49773,-0.84321 -0.14835,-0.0349 -0.25046,-0.0511 -0.30366,-0.0461 z"
       id="path1382" />
    <path
       style="fill:#000000;fill-opacity:0.913044;stroke-width:0.277637"
       d="m 365.13509,107.19147 c -0.37762,-0.0504 -1.83121,1.12507 -1.83121,1.52428 0,0.25643 -0.20065,0.75251 -0.44574,1.10242 -0.92674,1.32313 -3.44113,6.50433 -3.43521,7.07865 0.006,0.58251 0.0216,0.57968 0.54931,-0.0949 0.29861,-0.38175 0.54538,-0.96576 0.54876,-1.29762 0.003,-0.33186 0.30091,-0.95654 0.66102,-1.38818 0.36011,-0.43164 0.82583,-1.26289 1.03517,-1.84748 0.20934,-0.58456 0.90608,-1.6782 1.54815,-2.4304 1.07428,-1.25856 1.68087,-2.36927 1.43048,-2.61967 -0.0149,-0.0147 -0.0356,-0.0239 -0.0607,-0.0272 z"
       id="path1380" />
    <path
       style="fill:#000000;fill-opacity:0.913044;stroke-width:0.277637"
       d="m 369.83322,106.23979 c -0.40884,0.0225 -1.03782,0.32064 -1.48417,0.7863 -0.77413,0.80761 -4.46064,6.12541 -6.57001,9.47759 -0.15124,0.24036 -1.05703,1.62807 -2.01286,3.08383 -0.95584,1.45576 -1.7374,2.84897 -1.7374,3.09576 0,0.42983 -1.03061,2.09968 -2.5497,4.13145 -0.39233,0.52474 -0.85398,1.39113 -1.02596,1.92558 -0.17197,0.53445 -0.8084,1.59641 -1.41421,2.35991 -0.60581,0.7635 -1.49567,2.1378 -1.97707,3.054 -0.4814,0.91621 -1.52857,2.54038 -2.32738,3.60928 -0.79881,1.0689 -1.70403,2.51461 -2.01124,3.2129 -0.30721,0.69828 -0.9502,1.8103 -1.42885,2.47105 -0.47865,0.66077 -0.87496,1.33901 -0.88117,1.50695 -0.006,0.16797 -0.38102,0.73804 -0.83291,1.26672 -0.4519,0.52867 -0.82153,1.06959 -0.82153,1.20219 0,0.13258 -0.42262,0.88675 -0.93919,1.67612 -0.51656,0.78938 -1.1021,1.89826 -1.30088,2.46403 -0.19878,0.56577 -0.77565,1.49424 -1.2819,2.06328 -0.50625,0.56905 -0.92021,1.27005 -0.92021,1.55791 0,0.28785 -0.32703,0.95212 -0.72663,1.47602 -0.3996,0.5239 -0.74633,1.33794 -0.77001,1.809 -0.0242,0.48131 -0.24935,0.97215 -0.51406,1.12029 -0.2591,0.14501 -0.81111,1.00513 -1.22713,1.91148 l -0.75645,1.64791 -4.3191,-0.19954 c -7.38863,-0.34083 -37.88571,-0.17261 -40.41186,0.22286 -1.2216,0.19124 -2.81454,0.33813 -3.53987,0.32592 -0.93759,-0.0156 -1.31877,0.0867 -1.31877,0.35515 0,0.20765 0.12206,0.41923 0.27167,0.47015 v 0 c 0.14961,0.0509 2.04168,-0.0225 4.20414,-0.16322 2.84692,-0.18513 4.37075,-0.165 5.52399,0.0732 1.32103,0.27286 1.91503,0.25429 3.4813,-0.10897 1.03859,-0.24085 2.1707,-0.36706 2.51609,-0.28036 0.34538,0.0867 1.45571,0.0402 2.46728,-0.10303 1.15534,-0.16364 2.45064,-0.16153 3.48401,0.005 1.05621,0.17 3.12073,0.16525 5.76747,-0.0125 3.00676,-0.20187 4.37871,-0.1911 5.06958,0.0396 0.53845,0.1798 3.22365,0.34774 6.22242,0.3888 2.90131,0.0397 5.52497,0.094 5.83037,0.12094 0.3054,0.0269 1.45865,0.018 2.56272,-0.02 1.70892,-0.0589 2.03264,-0.14962 2.17825,-0.60841 0.122,-0.38356 0.33812,-0.49492 0.75429,-0.38608 0.75568,0.19762 1.30684,-0.27325 1.30684,-1.11652 0,-0.36784 0.18767,-0.7409 0.41754,-0.82911 0.22986,-0.0882 0.99726,-1.3515 1.7054,-2.80729 0.70814,-1.45582 1.51338,-2.87229 1.78892,-3.14782 0.27554,-0.27555 0.6453,-1.03858 0.82206,-1.69564 0.41265,-1.5338 0.89612,-2.45622 2.12837,-4.06204 0.54751,-0.7135 1.29934,-1.98425 1.67124,-2.8241 0.3719,-0.83985 0.95211,-1.90181 1.28895,-2.35991 0.33684,-0.4581 1.02291,-1.64499 1.52483,-2.63755 1.17471,-2.32295 1.41092,-2.72342 2.2943,-3.89124 0.40247,-0.53206 1.14563,-1.71702 1.65172,-2.63322 0.5061,-0.9162 1.37736,-2.2905 1.93587,-3.054 0.5585,-0.7635 1.29897,-1.9504 1.64521,-2.63755 0.86542,-1.71749 0.81769,-1.63708 2.29539,-3.86198 0.72532,-1.09209 1.31877,-2.03319 1.31877,-2.09094 0,-0.36598 3.74517,-6.23375 4.28656,-6.71589 0.36522,-0.32522 1.07363,-1.38718 1.57418,-2.35991 0.50054,-0.9727 1.05631,-1.85878 1.23526,-1.96947 0.17896,-0.11067 0.86794,-1.04769 1.5308,-2.08228 0.66286,-1.03456 1.55439,-2.29161 1.98087,-2.79319 0.42649,-0.50158 0.77543,-1.03256 0.77543,-1.17996 0,-0.20783 -0.16627,-0.29335 -0.41157,-0.2798 z"
       id="path1378" />
    <path
       style="fill:#000000;fill-opacity:0.913044;stroke-width:0.277637"
       d="m 370.0409,103.76602 c -0.54699,0.0167 -1.58407,0.24415 -3.21234,0.69678 -5.14601,1.43056 -11.18577,3.58482 -16.43479,5.86239 -0.9162,0.39752 -1.91569,0.82358 -2.22109,0.94624 -2.34115,0.94024 -5.08432,2.17312 -7.07974,3.18252 -1.29795,0.65658 -2.85965,1.4162 -3.47045,1.68803 -1.2431,0.55327 -3.94321,2.26402 -6.24683,3.95741 -0.83985,0.61735 -2.52649,1.69422 -3.74809,2.39353 -2.63311,1.50732 -2.73181,1.56729 -5.37705,3.26278 -1.13162,0.72533 -2.13368,1.32247 -2.22705,1.32691 -0.0934,0.004 -0.7276,0.50397 -1.40934,1.11055 -0.68174,0.60658 -1.49383,1.18204 -1.80464,1.27866 -0.3108,0.0966 -1.04575,0.55371 -1.63274,1.01565 -1.30583,1.02759 -2.5693,1.87155 -3.58704,2.39678 -0.79844,0.41207 -4.50043,3.64384 -6.48434,5.66009 -0.62931,0.63957 -2.00361,1.99183 -3.054,3.0052 -2.68177,2.58724 -7.73148,7.85834 -9.54484,9.96346 -0.83985,0.97501 -1.99853,2.27846 -2.57465,2.89623 -0.57612,0.61779 -1.74804,2.06003 -2.60393,3.20528 -0.85589,1.14525 -1.91483,2.49276 -2.3534,2.99434 -0.43858,0.50158 -0.79712,1.09364 -0.79712,1.31608 0,0.22245 -0.24988,0.56083 -0.55528,0.75157 -0.3054,0.1907 -0.55527,0.50393 -0.55527,0.69625 0,0.19232 0.32048,0.34977 0.71253,0.34977 0.5647,0 0.67938,-0.10564 0.55147,-0.50863 -0.1,-0.31506 0.0512,-0.70114 0.39748,-1.01457 0.30756,-0.27833 0.55961,-0.62898 0.55961,-0.77869 0,-0.1497 0.28111,-0.53881 0.62469,-0.86492 0.34357,-0.32611 1.0078,-1.0368 1.47602,-1.57958 0.46823,-0.54281 1.41224,-1.37294 2.098,-1.84476 1.87838,-1.29234 3.1693,-2.86296 4.72579,-5.74958 0.60798,-1.12754 8.45762,-9.01808 11.06209,-11.11957 1.13549,-0.9162 2.56234,-1.9534 3.17059,-2.30513 0.60824,-0.35174 1.62907,-1.12224 2.26881,-1.71194 0.63974,-0.5897 1.52125,-1.2595 1.95864,-1.48849 0.43739,-0.22897 1.23277,-0.87403 1.76722,-1.43375 0.53445,-0.55971 1.59641,-1.47094 2.35992,-2.02477 0.7635,-0.55383 2.28374,-1.73071 3.37881,-2.61531 1.09507,-0.88458 2.09456,-1.60866 2.22109,-1.60891 0.12653,-2.7e-4 0.91762,-0.49819 1.75747,-1.10674 1.6216,-1.17499 2.4334,-1.7239 5.96919,-4.03495 5.05911,-3.30673 7.00614,-4.48894 8.19028,-4.97305 1.03512,-0.42321 5.9645,-2.76032 8.92721,-4.23288 0.40531,-0.20145 0.97344,-0.36656 1.26292,-0.36656 0.28947,0 0.64501,-0.1095 0.79007,-0.24349 0.14507,-0.13396 1.26357,-0.61952 2.48518,-1.07854 1.2216,-0.45901 3.15811,-1.24012 4.30336,-1.73631 1.14526,-0.49616 2.58202,-1.08509 3.19283,-1.30847 0.6108,-0.22342 1.67276,-0.66128 2.35991,-0.97281 1.37639,-0.62405 4.22793,-1.4275 6.8021,-1.91689 1.52681,-0.29024 2.0666,-0.58692 2.07793,-1.142 0.003,-0.13918 -0.14899,-0.20512 -0.47719,-0.19521 z"
       id="path1376" />
    <path
       style="fill:#000000;fill-opacity:0.913044;stroke-width:0.277637"
       d="m 414.76806,90.359197 c -0.53898,0 -1.17427,0.018 -2.04485,0.0531 -2.65693,0.10739 -3.05401,0.21603 -3.05401,0.83616 0,0.61483 0.70179,0.93036 1.33885,0.60192 0.25618,-0.13204 1.25478,-0.32645 2.21946,-0.43164 0.9647,-0.10517 1.92177,-0.2554 2.12672,-0.33403 0.20498,-0.0786 0.44486,0.0845 0.53306,0.36276 0.14762,0.46571 0.57454,0.50588 5.36944,0.50866 4.81042,0.003 8.96084,0.37276 13.81623,1.2331 2.3364,0.41395 12.79241,3.31809 17.9363,4.98171 1.46645,0.47426 2.88392,0.86221 3.14998,0.86221 0.26603,0 0.81531,0.22649 1.22063,0.50321 0.40532,0.27672 1.17421,0.642843 1.70866,0.813393 2.07925,0.66361 3.48798,1.24076 3.88691,1.59261 0.55439,0.48897 3.73958,1.81041 4.36409,1.81061 0.27181,8e-5 1.30664,0.49991 2.29919,1.11055 0.99256,0.61063 1.92958,1.11448 2.08228,1.1192 0.1527,0.005 1.01795,0.37676 1.92286,0.82642 1.28648,0.63931 1.72995,0.7474 2.03399,0.49508 0.42939,-0.35637 1.59189,0.13496 3.40052,1.43752 1.22854,0.88477 1.42161,1.1611 1.09048,1.56009 -0.18866,0.22731 0.15864,0.49475 1.19569,0.92076 0.80396,0.33025 1.59919,0.68984 1.76722,0.79929 1.72662,1.12465 2.53676,1.72007 2.84413,2.09041 0.20085,0.24201 0.79277,0.58137 1.315,0.75373 0.52224,0.17235 0.94949,0.4262 0.94949,0.56449 0,0.13829 0.63246,0.57184 1.40554,0.96359 0.77308,0.39177 2.49095,1.67795 3.8175,2.85771 1.32655,1.17977 2.97418,2.57833 3.66134,3.10823 1.40556,1.08389 8.14738,7.06133 10.68901,9.47707 0.9162,0.87084 2.54037,2.22401 3.60927,3.00683 2.07106,1.51676 5.11787,4.55155 6.94092,6.9138 0.6108,0.79146 1.51659,1.94606 2.01287,2.56597 0.49627,0.61988 0.90232,1.29493 0.90232,1.49988 0,0.20495 0.53098,1.16901 1.17995,2.14194 0.64898,0.97292 1.33893,2.01136 1.5335,2.30785 0.1946,0.29649 0.66713,1.22616 1.05035,2.06601 1.11286,2.43898 1.29013,2.74263 2.26124,3.87714 0.50616,0.59133 1.41356,2.14754 2.01612,3.45799 0.74651,1.62348 1.30956,2.48002 1.76721,2.68852 0.3694,0.16833 0.9453,0.7931 1.27974,1.38818 0.6241,1.11044 0.95712,1.27036 1.68317,0.80851 0.34327,-0.21836 0.35546,-0.36323 0.0694,-0.82477 -0.19087,-0.30799 -0.34704,-0.70134 -0.34704,-0.87412 0,-0.1728 -0.37481,-0.74117 -0.83291,-1.26294 -0.45811,-0.52173 -0.83291,-1.11515 -0.83291,-1.31877 0,-0.41746 -2.37355,-5.07709 -2.91302,-5.71865 -0.1926,-0.22905 -0.60148,-0.9935 -0.90829,-1.69891 -0.30682,-0.7054 -1.2904,-2.31047 -2.18584,-3.56644 -0.89543,-1.25598 -2.06514,-2.93029 -2.59959,-3.72097 -0.53445,-0.79066 -1.25284,-1.7161 -1.59641,-2.05623 -0.34358,-0.34014 -0.62468,-0.79474 -0.62468,-1.0108 0,-0.21608 -0.55489,-0.88172 -1.2331,-1.47872 -0.67824,-0.597 -1.38543,-1.41961 -1.57148,-1.82796 -0.18607,-0.40835 -0.88158,-1.0604 -1.54544,-1.44946 -0.66388,-0.38905 -1.41436,-1.02364 -1.66743,-1.40989 -0.25309,-0.38625 -0.88824,-0.99302 -1.4115,-1.34859 -1.20172,-0.81659 -3.73949,-2.99126 -5.23065,-4.48178 -0.62982,-0.62951 -1.33587,-1.2542 -1.56876,-1.38818 -0.23288,-0.13399 -1.803,-1.53711 -3.48942,-3.11797 -1.68642,-1.58087 -3.98189,-3.57985 -5.10104,-4.44219 -2.94251,-2.26729 -7.19032,-5.81657 -8.01676,-6.69854 -0.3915,-0.41779 -1.33169,-0.96518 -2.08933,-1.21683 -0.75761,-0.25165 -1.99385,-0.96692 -2.74708,-1.58936 -0.7532,-0.6224 -1.68705,-1.29675 -2.07522,-1.49879 -0.38819,-0.20206 -1.01781,-0.70259 -1.39957,-1.11218 -0.38175,-0.4096 -1.0689,-0.90241 -1.527,-1.09484 -0.4581,-0.19245 -1.47633,-0.82785 -2.26232,-1.41256 -1.33846,-0.99574 -3.35232,-1.75758 -4.72035,-1.78567 -0.32822,-0.007 -1.23679,-0.4433 -2.01884,-0.96956 -0.78201,-0.52627 -2.26232,-1.23577 -3.28988,-1.5769 -1.02753,-0.34116 -2.14263,-0.82924 -2.47813,-1.0845 -0.33547,-0.25529 -1.6473,-0.87564 -2.91518,-1.37897 -1.26786,-0.503303 -2.58769,-1.134313 -2.93307,-1.402293 -0.35307,-0.27397 -1.38607,-0.56848 -2.35991,-0.6724 -2.06256,-0.22009 -3.33225,-0.56014 -4.64717,-1.24501 -0.53445,-0.27836 -1.90875,-0.715 -3.054,-0.97065 -1.14525,-0.25564 -3.2067,-0.81858 -4.581,-1.25044 -1.37431,-0.43189 -3.31082,-0.97281 -4.30337,-1.2022 -0.99255,-0.22935 -2.17945,-0.54439 -2.63755,-0.70006 -2.36863,-0.80489 -4.13618,-1.1571 -6.52174,-1.29925 -1.44907,-0.0863 -3.07325,-0.2205 -3.60928,-0.29824 -0.53603,-0.0777 -2.97343,-0.19871 -5.41663,-0.26898 -2.44321,-0.0702 -4.94194,-0.19509 -5.55274,-0.27763 -1.00696,-0.13607 -1.63783,-0.19518 -2.53615,-0.19737 z"
       id="path1372" />
    <path
       style="fill:#000000;fill-opacity:0.913044;stroke-width:0.277637"
       d="m 318.1646,89.743197 c 0.18373,0 0.34402,0.0117 0.4696,0.0369 l 0.87737,0.17514 -0.6621,0.34271 c -0.36404,0.18835 -1.44268,0.43173 -2.39732,0.54064 -0.95466,0.10889 -1.80577,0.31021 -1.89086,0.44789 -0.0851,0.13768 -0.85508,0.25054 -1.71137,0.25054 -1.8431,0 -1.7785,-0.18125 0.24347,-0.68488 0.81689,-0.20345 2.20012,-0.5671 3.07407,-0.8085 0.68215,-0.18838 1.44596,-0.29935 1.99714,-0.30041 z"
       id="path1368" />
    <path
       style="fill:#000000;fill-opacity:0.913044;stroke-width:0.277637"
       d="m 329.35683,86.956507 c -1.15793,0.0304 -2.88178,0.2281 -3.84136,0.49944 -0.82354,0.23285 -2.62161,0.62601 -3.99591,0.87411 -1.3743,0.2481 -3.24835,0.58678 -4.16455,0.75264 -0.9162,0.16589 -2.54038,0.61094 -3.60928,0.98856 -1.0689,0.37764 -2.4432,0.7818 -3.054,0.89851 -3.48832,0.66666 -14.42048,5.18926 -16.10293,6.66167 -0.3054,0.26728 -1.24242,0.86207 -2.08227,1.32203 -5.90521,3.234243 -6.81525,3.862313 -10.02041,6.917043 -1.79612,1.71182 -3.90244,3.61602 -4.68078,4.23126 -0.77834,0.61524 -2.09177,1.90564 -2.91898,2.86802 -0.82721,0.96237 -1.96983,2.12467 -2.53886,2.58277 -0.56904,0.4581 -1.85686,1.70424 -2.86204,2.76931 -1.00518,1.0651 -2.16858,2.2686 -2.58549,2.67442 -0.41692,0.40585 -1.17913,1.37719 -1.69348,2.15818 -0.51435,0.78102 -1.51666,2.05124 -2.2276,2.82301 -0.71094,0.7718 -2.03102,2.75571 -2.93308,4.40857 -0.90206,1.65285 -2.09335,3.59972 -2.64785,4.32616 -0.55451,0.72646 -1.20856,1.70988 -1.45326,2.18583 -0.504,0.98031 -2.57004,3.78003 -3.71176,5.03 -0.41843,0.4581 -1.42078,2.08228 -2.2276,3.60928 -0.80682,1.527 -1.81905,3.26373 -2.24929,3.85926 -0.43025,0.59556 -0.78194,1.31566 -0.78194,1.60021 0,0.28455 -0.12215,0.73421 -0.27113,0.99938 -0.14897,0.26515 -1.12692,2.23118 -2.17337,4.36898 -1.04645,2.1378 -2.30168,4.6234 -2.78938,5.52344 -0.98972,1.82652 -0.93322,2.38271 0.11496,1.12898 l 0.68758,-0.82205 -0.17515,1.03897 c -0.0961,0.57146 -0.10243,1.22738 -0.0141,1.45759 0.47466,1.23693 1.31712,-0.2738 1.85615,-3.32947 0.18856,-1.0689 0.57207,-2.38074 0.85243,-2.91519 0.28036,-0.53445 1.20716,-2.4085 2.0595,-4.16455 0.85234,-1.75605 1.94875,-3.71322 2.43637,-4.34945 0.48763,-0.63624 1.44881,-2.12462 2.13596,-3.30724 1.53565,-2.64293 1.75234,-2.96702 3.40105,-5.08911 0.72533,-0.93358 1.31877,-1.78415 1.31877,-1.89031 0,-0.1062 0.49028,-0.89283 1.08994,-1.7477 0.59967,-0.85487 1.97506,-3.2823 3.05618,-5.3944 1.08111,-2.11209 2.37627,-4.29479 2.87831,-4.8505 0.79773,-0.883 2.08718,-2.52975 4.98607,-6.36721 0.88776,-1.17521 4.03883,-4.20739 4.37224,-4.20739 0.12428,0 0.99735,-0.90579 1.9402,-2.01287 0.94284,-1.10707 2.73403,-2.93478 3.98072,-4.06152 1.2467,-1.12673 3.56217,-3.25065 5.1455,-4.71982 1.58333,-1.46917 3.39491,-2.93015 4.02573,-3.24652 0.63082,-0.31639 1.62508,-0.90404 2.20917,-1.3063 0.58408,-0.40224 1.70851,-0.97654 2.49873,-1.27594 0.79021,-0.29943 3.12363,-1.401183 5.18508,-2.448283 2.06145,-1.04711 4.74758,-2.23209 5.96919,-2.63322 3.08824,-1.01407 5.22037,-1.59855 12.07719,-3.31212 3.49361,-0.87306 7.51623,-2.18972 8.50046,-2.78178 0.47612,-0.28641 1.07129,-0.52057 1.32257,-0.52057 0.25127,0 0.67403,-0.11325 0.93919,-0.25162 0.26515,-0.13835 1.26292,-0.47043 2.2173,-0.73802 0.95437,-0.26756 1.73522,-0.56849 1.73522,-0.6686 0,-0.12233 -0.49116,-0.16409 -1.18592,-0.14587 z"
       id="path1364" />
    <path
       style="fill:#000000;fill-opacity:0.913044;stroke-width:0.277637"
       d="m 363.00672,86.706547 c -3.78246,0.003 -6.64452,0.0626 -6.83572,0.19682 -0.18179,0.12766 -0.27389,0.37883 -0.20497,0.55855 0.0917,0.23924 1.40654,0.29665 4.91124,0.21364 2.63244,-0.0624 5.2238,-0.0918 5.75825,-0.0656 0.53445,0.0261 2.7833,0.1009 4.99746,0.16647 2.21415,0.0656 7.02421,0.29855 10.68901,0.51785 3.6648,0.21931 7.78771,0.39605 9.16201,0.39261 1.3743,-0.004 3.06094,0.12133 3.74809,0.27708 0.68716,0.15575 2.3738,0.2328 3.7481,0.17136 1.3743,-0.0614 3.99797,-0.15748 5.83037,-0.21312 3.27059,-0.0993 4.60983,-0.36734 5.00179,-1.00154 0.42348,-0.68518 -0.3732,-0.93131 -1.4527,-0.449 -0.93037,0.41568 -1.82747,0.44955 -7.85246,0.2988 -3.74115,-0.0936 -8.48874,-0.1969 -10.55019,-0.22992 -2.06145,-0.033 -5.87202,-0.22319 -8.46792,-0.42242 -3.31685,-0.25459 -12.17826,-0.41476 -18.48236,-0.41157 z"
       id="path1362" />
    <path
       style="fill:#000000;fill-opacity:0.913044;stroke-width:0.277637"
       d="m 343.12642,80.76554 c -1.56015,0.0058 -2.86252,0.112887 -4.62276,0.342715 -4.04673,0.528398 -4.78824,0.786434 -5.34451,1.862109 -0.50144,0.969674 -0.49768,1.038722 0.11442,2.042157 0.44923,0.736459 0.6661,0.835853 1.87296,0.856759 l 1.36541,0.02332 -1.17996,-0.520013 c -2.24524,-0.989525 -1.21201,-2.79111 1.90062,-3.313205 2.08193,-0.349212 9.37758,-0.147203 15.94784,0.441386 2.60815,0.233659 6.77371,0.365648 10.12344,0.321032 3.13035,-0.04173 6.75351,0.02193 8.05146,0.140984 1.29795,0.11905 3.82278,0.3491 5.6113,0.511351 1.78851,0.162223 3.55542,0.410402 3.92649,0.55147 0.75678,0.287714 1.92109,0.0849 1.68698,-0.293907 -0.20745,-0.335662 0.25838,-0.312063 0.60082,0.03037 0.15195,0.15195 1.08305,0.342104 2.06872,0.422951 5.67296,0.46532 8.06333,0.698756 9.42717,0.920755 0.93283,0.151839 1.79708,0.146453 2.22109,-0.0136 l 0.6941,-0.261923 -0.66373,-0.540087 c -0.36486,-0.297071 -0.86704,-0.475397 -1.11597,-0.396381 -0.47466,0.150645 -5.72433,-0.364732 -11.11306,-1.091029 -1.74634,-0.235381 -4.24507,-0.431309 -5.55273,-0.435446 -1.30766,-0.0042 -3.56416,-0.142316 -5.01481,-0.307454 -1.45065,-0.165139 -5.19875,-0.332137 -8.3291,-0.370895 -3.13036,-0.03876 -7.12832,-0.1645 -8.88438,-0.279275 -1.75605,-0.114775 -3.87997,-0.237379 -4.71982,-0.272195 -0.83985,-0.03482 -3.46352,-0.160085 -5.83037,-0.278719 -1.27643,-0.064 -2.30554,-0.09684 -3.24162,-0.09329 z"
       id="path1358" />
    <path
       style="fill:#000000;fill-opacity:0.913044;stroke-width:0.277637"
       d="m 543.6289,79.876242 c -0.42934,0 -0.55181,0.327723 -0.23913,0.640397 0.2218,0.221832 0.65558,-0.02893 0.65558,-0.37903 0,-0.143677 -0.1874,-0.261367 -0.41645,-0.261367 z"
       id="path1356" />
  </g>
</svg>
